<svg width="140" height="26" viewBox="0 0 140 26" fill="none" xmlns="http://www.w3.org/2000/svg">
<path d="M0.000976562 0.522245C3.94225 0.527419 7.88508 0.467807 11.8244 0.5588C14.8611 0.628986 17.2403 2.70755 17.7525 5.54669C18.3323 8.76059 16.6775 11.5048 14.1247 12.2412C14.0598 12.2599 14.007 12.3205 13.9199 12.3818C16.3531 13.0837 17.8056 14.7068 18.2145 17.1384C18.8889 21.1504 16.693 24.4471 12.5442 24.9136C11.6241 25.0168 10.6898 25.0142 9.76185 25.0191C6.50833 25.0365 3.2546 25.036 0.00108811 25.0422L0.000976562 0.522245ZM5.24064 20.361C5.30827 20.3844 5.3758 20.4281 5.4431 20.4281C7.07622 20.4308 8.71224 20.4892 10.3418 20.4114C12.028 20.3307 13.0308 19.2864 13.0754 17.7474C13.1204 16.201 12.1942 15.0857 10.5428 14.886C9.49889 14.7596 8.43265 14.8176 7.37635 14.8026C6.67642 14.7928 5.97616 14.8008 5.24064 14.8008V20.361ZM5.20492 10.2383C6.72732 10.2383 8.17281 10.2409 9.61831 10.2361C9.89645 10.235 10.181 10.2374 10.4515 10.1825C11.4722 9.97601 12.2409 9.44861 12.5082 8.37648C12.9344 6.66718 11.8534 5.19047 10.0984 5.10285C9.28236 5.06225 8.46301 5.09161 7.64522 5.09082C6.8521 5.08981 6.05876 5.09059 5.24097 5.09059C5.22468 5.26763 5.20626 5.37561 5.20615 5.48359C5.20425 7.03633 5.20492 8.58906 5.20492 10.2383ZM93.9789 25.492C93.3627 25.3766 92.7402 25.2881 92.1316 25.141C87.3663 23.99 84.9382 19.8567 85.3545 15.2896C85.7033 11.4655 87.6162 8.66982 91.2598 7.37555C96.3467 5.56851 102.246 8.00824 103.116 14.8292C103.231 15.7303 103.226 16.6471 103.28 17.6376H90.1434C90.448 19.318 91.2889 20.4968 92.7552 21.1235C95.1379 22.1418 97.37 21.6342 99.4746 20.2692C99.5989 20.1885 99.7137 20.0927 99.8346 20.006C99.8465 19.9974 99.8699 20.0049 99.9542 20.0049C100.598 20.9599 101.263 21.9462 102.01 23.0546C101.332 23.4805 100.707 23.9422 100.024 24.288C98.7682 24.924 97.4177 25.2612 96.0144 25.379C95.8546 25.3924 95.6989 25.4531 95.5413 25.4919L93.9789 25.492ZM98.746 14.41C98.8374 12.2078 96.7554 10.526 94.1193 10.6309C91.9266 10.718 89.9774 12.5893 90.2113 14.41H98.746ZM112.841 25.492C112.083 25.3383 111.313 25.2296 110.569 25.0229C107.018 24.0356 104.568 21.0091 104.246 17.31C103.941 13.8209 104.945 10.8639 107.724 8.66274C111.936 5.32724 120.213 6.08387 121.858 13.9758C121.976 14.5412 122.045 15.1217 122.08 15.6987C122.118 16.3114 122.089 16.9285 122.089 17.6372H109.038C109.151 18.6238 109.532 19.417 110.162 20.073C111.606 21.5744 113.407 21.8569 115.353 21.5127C116.594 21.2933 117.739 20.8185 118.769 19.9288L120.87 23.0325C120.323 23.4013 119.828 23.7914 119.283 24.0915C117.93 24.8374 116.466 25.2311 114.933 25.3756C114.754 25.3924 114.58 25.4521 114.404 25.4918C113.883 25.492 113.362 25.492 112.841 25.492ZM109.069 14.4068H117.612C117.722 12.2722 115.689 10.5768 113.135 10.627C110.868 10.6715 108.906 12.4781 109.069 14.4068ZM26.4532 25.492C25.8949 25.3769 25.3329 25.2771 24.7789 25.1439C21.347 24.3197 19.3198 21.7309 19.3168 18.1724C19.3141 14.7614 19.3162 11.3504 19.3162 7.9394V7.32809H23.9551V7.97944C23.9551 11.2031 23.9645 14.4267 23.9508 17.6503C23.9445 19.1125 24.3884 20.3507 25.7632 20.987C27.2533 21.6766 28.7793 21.6514 30.1578 20.662C31.1676 19.9375 31.453 18.8285 31.4551 17.6369C31.4613 14.432 31.4574 11.2271 31.4574 8.0223V7.31752H36.0458L36.046 7.9493C36.046 11.3229 36.0475 14.6964 36.0454 18.0701C36.0431 22.1409 33.5288 24.9392 29.4993 25.3658C29.3004 25.387 29.1057 25.4487 28.9089 25.4916C28.0902 25.492 27.2717 25.492 26.4532 25.492ZM70.2544 24.9859V0.538779H87.1278V2.91024C87.1278 3.43505 87.0928 3.9629 87.1376 4.48389C87.182 5.00264 86.9753 5.1033 86.5016 5.1006C83.1723 5.08148 79.8428 5.09048 76.5134 5.09048H75.4603V10.2383H76.0887C78.5998 10.2383 81.111 10.2528 83.6217 10.2264C84.1293 10.2211 84.2481 10.3836 84.2365 10.8667C84.2053 12.1548 84.2257 13.4441 84.2257 14.7968H75.4225V24.9859H70.2544ZM123.264 24.9763V24.3332C123.264 18.8621 123.264 13.3914 123.264 7.92028C123.264 7.20212 123.265 7.19582 124.001 7.20268C126.547 7.2263 129.103 7.11697 131.635 7.31459C135.244 7.59601 138.069 9.23401 139.406 12.824C140.765 16.4721 139.73 20.6355 136.968 22.9164C135.341 24.2602 133.427 24.9219 131.365 24.9968C128.747 25.0923 126.123 25.027 123.502 25.0289C123.449 25.029 123.396 25.0063 123.264 24.9763ZM127.688 21.2242C128.577 21.2242 129.41 21.2245 130.242 21.2242C133.238 21.2232 135.124 19.522 135.46 16.5183C135.701 14.3617 134.543 12.2167 132.7 11.4551C131.076 10.7845 129.379 11.141 127.688 11.0462C127.688 14.471 127.688 17.8008 127.688 21.2242ZM45.3972 11.3213H37.5376V7.30976H51.7465C51.7465 8.06661 51.7088 8.82718 51.7576 9.58235C51.8025 10.2785 51.5923 10.8162 51.1562 11.3627C48.793 14.3263 46.4671 17.3196 44.1291 20.3033C44.0036 20.4633 43.8843 20.6282 43.6889 20.8883H51.8409V24.9769H37.4945C37.4945 23.8601 37.4782 22.7438 37.5099 21.6287C37.5154 21.4373 37.7062 21.2377 37.8407 21.0653C40.2394 17.9867 42.6429 14.912 45.0439 11.8353C45.1438 11.7069 45.229 11.5668 45.3972 11.3213ZM53.1106 11.3258C53.1106 10.0599 53.1094 8.8995 53.1122 7.73897C53.1125 7.61097 53.1334 7.48297 53.1484 7.31696H67.3134C67.3134 8.39549 67.3251 9.45671 67.301 10.5171C67.2973 10.677 67.1408 10.8453 67.0289 10.9888C64.5898 14.108 62.1468 17.224 59.706 20.3417C59.5854 20.4957 59.4778 20.6602 59.2901 20.9236H60.0012C62.3068 20.9236 64.6126 20.9334 66.9184 20.9151C67.3468 20.9119 67.5067 21.018 67.4942 21.478C67.4628 22.6353 67.4838 23.7941 67.4838 24.9871H53.1244C53.1244 23.8314 53.1153 22.6949 53.136 21.559C53.1385 21.4166 53.2868 21.2679 53.3878 21.1383C55.7299 18.1329 58.0751 15.13 60.4194 12.1262C60.5984 11.8967 60.7737 11.6641 61.0326 11.3257L53.1106 11.3258Z" fill="#161616"/>
</svg>
