<svg width="138" height="32" viewBox="0 0 138 32" fill="none" xmlns="http://www.w3.org/2000/svg">
<g clip-path="url(#clip0_83_30461)">
<path d="M9.54296 21.2663C14.1956 21.2663 16.0104 18.3819 16.0104 13.4468C16.0104 8.51288 13.888 5.07262 9.67929 5.07262H4.96234V21.2663H9.54296ZM0 0.764263H10.2955C16.8305 0.764263 21.0392 6.11566 21.0392 13.4468C21.0392 17.4773 19.7043 21.0227 17.1381 23.2118C15.3244 24.7398 12.9632 25.609 9.88433 25.609H0V0.764263ZM35.2119 16.7144C35.2119 13.2387 33.6043 10.8758 30.7643 10.8758C27.8895 10.8758 26.3146 13.2387 26.3146 16.7144C26.3146 20.1889 27.8895 22.5164 30.7643 22.5164C33.6043 22.5164 35.2119 20.1889 35.2119 16.7144ZM21.5933 16.7144C21.5933 11.3973 25.3232 7.2971 30.7643 7.2971C36.2044 7.2971 39.9343 11.3973 39.9343 16.7144C39.9343 22.0292 36.2044 26.1305 30.7643 26.1305C25.3221 26.1305 21.5933 22.0303 21.5933 16.7144ZM40.7032 16.7144C40.7032 11.3973 44.1256 7.2971 49.4631 7.2971C54.0154 7.2971 56.8205 9.97336 57.4367 13.8299H52.8855C52.5779 12.2665 51.3804 11.0839 49.6692 11.0839C46.863 11.0839 45.4267 13.2741 45.4267 16.7144C45.4267 20.0849 46.7605 22.3437 49.6005 22.3437C51.4829 22.3437 52.8179 21.3361 53.1254 19.3209H57.6079C57.3003 23.1077 54.3905 26.1305 49.703 26.1305C44.1605 26.1305 40.7032 22.0303 40.7032 16.7144ZM69.7247 25.6101V23.5251H69.6222C68.4247 25.1583 67.056 26.0962 64.5922 26.0962C60.6911 26.0962 58.5011 23.5606 58.5011 19.6674V7.78319H63.1199V18.868C63.1199 20.953 64.0447 22.1001 66.0286 22.1001C68.2186 22.1001 69.5535 20.4325 69.5535 18.0697V7.78319H74.2072V25.6101H69.7247ZM96.8802 25.6101H101.533V7.78319H96.8802V25.6101ZM96.8802 5.29185H101.533V0.873882H96.8802V5.29185ZM115.748 15.9138C115.748 13.3084 114.379 11.085 111.573 11.085C109.212 11.085 107.638 12.9607 107.638 15.9492C107.638 18.9721 109.212 20.7448 111.608 20.7448C114.55 20.7448 115.748 18.5546 115.748 15.9138ZM103.463 26.1305H108.081C108.458 27.2422 109.45 28.1114 111.606 28.1114C114.241 28.1114 115.507 26.8259 115.507 24.3932V22.4467H115.404C114.377 23.6281 113.043 24.5316 110.818 24.5316C106.918 24.5316 103.086 21.4047 103.086 16.019C103.086 10.7019 106.233 7.2971 110.682 7.2971C112.872 7.2971 114.48 8.1652 115.541 9.66H115.609V7.78319H120.092V24.2537C120.092 26.7561 119.305 28.458 118.004 29.6749C116.532 31.0645 114.275 31.6901 111.674 31.6901C106.883 31.6901 103.942 29.6051 103.463 26.1305ZM126.64 10.2158H126.743C127.94 8.30471 129.549 7.2971 131.944 7.2971C135.571 7.2971 138 10.0763 138 13.9684V25.609H133.346V14.6637C133.346 12.7526 132.251 11.3973 130.301 11.3973C128.248 11.3973 126.743 13.0648 126.743 15.4975V25.609H122.089V7.78319H126.64V10.2158ZM86.275 10.6322C82.6475 9.83495 80.9363 9.24367 80.9363 7.22735C80.9363 5.45573 82.6813 4.30861 85.3512 4.30861C87.7866 4.30861 89.6483 5.46902 90.03 7.78319H94.8025C94.3172 2.95885 90.7912 0.3125 85.385 0.3125C79.945 0.3125 76.0089 2.84924 76.0089 7.74887C76.0089 12.9264 80.0126 14.1079 84.3925 15.1155C88.1225 15.9847 90.4499 16.4708 90.4499 18.9023C90.4499 21.1966 88.225 22.1001 85.6936 22.1001C82.2036 22.1001 80.5263 20.9186 80.1838 17.9301H75.3251C75.4963 23.1774 79.2601 26.1648 85.8987 26.1648C91.4074 26.1648 95.4111 23.3513 95.4111 18.3121C95.4111 12.9607 91.3049 11.745 86.275 10.6322Z" fill="#161616"/>
</g>
<defs>
<clipPath id="clip0_83_30461">
<rect width="138" height="32" fill="white"/>
</clipPath>
</defs>
</svg>
