<svg width="120" height="34" viewBox="0 0 120 34" fill="none" xmlns="http://www.w3.org/2000/svg">
<g clip-path="url(#clip0_83_30483)">
<path d="M57.6821 26.5952H53.9516C53.928 26.5952 53.928 26.5952 53.9162 26.5834L50.7052 22.6622L47.4942 26.5834C47.4824 26.5952 47.4706 26.5952 47.4587 26.5952H44.472C44.4484 26.5952 44.4366 26.5834 44.4248 26.5716C44.4248 26.5598 44.4248 26.5361 44.4366 26.5243L49.1705 20.7134L44.4956 14.9616C44.4838 14.938 44.4838 14.9261 44.4838 14.9025C44.4956 14.8907 44.5074 14.8789 44.5192 14.8789H48.2497C48.2615 14.8789 48.2733 14.8907 48.2851 14.9025L51.1066 18.3985L53.9752 14.9025C53.987 14.8907 53.9988 14.8789 54.0106 14.8789H57.0446C57.0564 14.8789 57.08 14.8907 57.0918 14.9025C57.1036 14.9261 57.0918 14.938 57.08 14.9616L52.653 20.2882L57.7293 26.5243C57.7411 26.5361 57.7411 26.5598 57.7411 26.5716C57.7175 26.5952 57.7057 26.5952 57.6821 26.5952Z" fill="#161616"/>
<path d="M77.856 16.9338C76.2033 16.9338 75.0818 17.9378 74.7512 19.6739H80.3705V19.5558C80.3705 18.174 79.3435 16.9338 77.856 16.9338ZM83.2628 21.4692C83.251 21.481 83.2392 21.4928 83.2274 21.4928H74.6922C74.8693 23.477 76.1561 24.6108 78.2456 24.6108C79.5323 24.6108 80.9017 24.1738 82.826 23.1463C82.8614 23.1227 82.8968 23.1581 82.8968 23.1936V25.8155C82.8968 25.8392 82.885 25.851 82.8732 25.851C81.0788 26.6069 79.2726 27.1265 77.856 27.1265C74.1846 27.1265 71.5166 24.4455 71.5166 20.7605C71.5166 17.0756 74.1846 14.3945 77.856 14.3945C81.2087 14.3945 83.3572 16.6504 83.3572 19.7566C83.3572 20.2645 83.2746 21.4338 83.2628 21.4692Z" fill="#161616"/>
<path d="M100.593 12.4475C99.5424 12.4475 98.6924 11.6089 98.6924 10.5814C98.6924 9.51844 99.5424 8.65625 100.593 8.65625C101.644 8.65625 102.494 9.51844 102.494 10.5814C102.494 11.6089 101.644 12.4475 100.593 12.4475ZM99.0583 26.5968C99.0229 26.5968 99.0111 26.585 99.0111 26.5496V14.916C99.0111 14.8923 99.0229 14.8687 99.0465 14.8687H102.128C102.151 14.8687 102.163 14.8923 102.163 14.916V26.5496C102.163 26.585 102.14 26.5968 102.116 26.5968H99.0583Z" fill="#161616"/>
<path d="M63.3243 24.849C62.7695 24.849 62.2028 24.7663 61.5417 24.601L61.5535 17.1366C62.3209 16.8886 62.982 16.7823 63.6431 16.7823C65.7798 16.7823 67.2082 18.3531 67.2082 20.7034C67.2082 23.2191 65.6854 24.849 63.3243 24.849ZM64.1625 14.3965C63.2889 14.3965 62.4153 14.55 61.4945 14.8689H58.4251C58.4015 14.8689 58.3779 14.8925 58.3779 14.9162V33.9906C59.2987 33.8606 60.432 33.5299 61.5417 32.7504V26.9513C62.2973 27.0576 62.9229 27.1285 63.525 27.1285C67.7277 27.1285 70.4429 24.6128 70.4429 20.7152C70.4429 16.9949 67.8575 14.3965 64.1625 14.3965Z" fill="#161616"/>
<path d="M93.4509 23.8799C92.4947 24.3877 91.6329 24.6239 90.8302 24.6239C88.9295 24.6239 87.7844 23.2775 87.7844 21.0217C87.7844 18.4233 89.2365 16.7343 91.4913 16.7343C92.1169 16.7343 92.719 16.8879 93.4509 17.2186V23.8799ZM93.4509 8.71483V14.7974C92.5537 14.5375 91.7628 14.4194 90.96 14.4194C87.3004 14.4194 84.5498 17.1713 84.5498 20.8327C84.5498 24.4704 86.9817 27.116 90.3344 27.116C91.4913 27.116 92.5773 26.8207 93.8523 26.1712V27.2223C94.6905 27.057 95.6585 26.7263 96.6147 26.0412V7.46289C95.6821 7.59281 94.5724 7.9117 93.4509 8.71483Z" fill="#161616"/>
<path d="M112.847 23.8548C111.915 24.3863 111.124 24.6461 110.416 24.6461C108.373 24.6461 107.157 23.2997 107.157 21.0438C107.157 18.4809 108.598 16.7565 110.734 16.7565C111.301 16.7565 111.997 16.9809 112.847 17.4297V23.8548ZM116.011 14.725C116.011 14.6542 115.952 14.5951 115.881 14.5951H113.39C113.32 14.5951 113.249 14.6542 113.249 14.725V15.1502H113.19C112.045 14.6424 111.053 14.418 110.097 14.418C106.65 14.418 103.946 17.2762 103.946 20.9375C103.946 24.6343 106.366 27.1145 109.967 27.1145C110.923 27.1145 112.163 27.0437 113.32 25.7209V27.2208C114.134 27.0437 115.102 26.7012 116.011 26.0398V14.725Z" fill="#161616"/>
<path d="M35.9469 23.6903H43.6793C43.5612 24.5525 43.2661 25.5682 42.605 26.5957H34.5657C33.5858 26.5957 32.7713 25.828 32.6768 24.8713C32.6768 24.8595 32.665 24.8477 32.665 24.8241V9.56458C32.665 9.55277 32.6768 9.54096 32.6768 9.52915C32.7713 8.56067 33.5858 7.79297 34.5657 7.79297H43.6675C43.5494 8.65516 43.2543 9.6945 42.5814 10.722H35.9469V14.8794H42.5224C42.546 14.8794 42.5696 14.9031 42.5696 14.9267V17.8085C42.5696 17.8321 42.546 17.8557 42.5224 17.8557H35.9469V23.6903Z" fill="#161616"/>
<path d="M26.2675 26.8442C25.5001 26.8442 25.0279 26.2418 25.0279 25.5095C25.0279 24.73 25.571 24.1749 26.2675 24.1749C26.9522 24.1749 27.4952 24.7182 27.4952 25.5095C27.4952 26.3009 26.9522 26.8442 26.2675 26.8442ZM26.2675 24.0332C25.4883 24.0332 24.8154 24.6237 24.8154 25.5095C24.8154 26.3481 25.4175 26.9859 26.2675 26.9859C27.0348 26.9859 27.7077 26.3954 27.7077 25.5095C27.7077 24.6237 27.0466 24.0332 26.2675 24.0332Z" fill="#161616"/>
<path d="M25.9248 25.3927V24.8494H26.2908C26.4797 24.8494 26.6922 24.873 26.6922 25.0974C26.6922 25.3691 26.4915 25.3809 26.2672 25.3809C26.2554 25.3927 25.9248 25.3927 25.9248 25.3927ZM26.9519 25.1329C26.9519 24.7785 26.7394 24.625 26.3144 24.625H25.6533V26.373H25.9366V25.6289H26.2082L26.6568 26.373H26.9873L26.5033 25.6053C26.763 25.5817 26.9519 25.4518 26.9519 25.1329Z" fill="#161616"/>
<path d="M118.56 16.805C117.793 16.805 117.321 16.2027 117.321 15.4704C117.321 14.6909 117.864 14.1358 118.56 14.1358C119.245 14.1358 119.788 14.6791 119.788 15.4704C119.788 16.2617 119.245 16.805 118.56 16.805ZM118.56 14.0059C117.781 14.0059 117.108 14.5964 117.108 15.4822C117.108 16.3208 117.71 16.9586 118.56 16.9586C119.328 16.9586 120.001 16.368 120.001 15.4822C120.001 14.5846 119.328 14.0059 118.56 14.0059Z" fill="#161616"/>
<path d="M118.206 15.3535V14.8221H118.572C118.761 14.8221 118.973 14.8457 118.973 15.0701C118.973 15.3417 118.773 15.3535 118.548 15.3535H118.206ZM119.245 15.1055C119.245 14.7512 119.032 14.5977 118.607 14.5977H117.946V16.3457H118.23V15.6016H118.501L118.95 16.3457H119.28L118.796 15.578C119.044 15.5543 119.245 15.4244 119.245 15.1055Z" fill="#161616"/>
<path d="M16.2923 10.7103L15.7374 9.12763L10.9681 2.76162L11.8181 2.54903L20.0227 9.6473L24.8511 8.26544C25.4177 8.12371 26.067 8.08828 26.551 8.08828C25.0399 4.8167 22.2539 2.12384 18.5943 0.824656C11.3577 -1.7619 3.38918 2.02935 0.815646 9.28117C0.0128917 11.5252 -0.164187 13.8401 0.166359 16.0369L11.7237 12.0213L16.2923 10.7103Z" fill="#161616"/>
<path d="M27.0702 9.33984C26.6452 9.61149 26.0195 9.97763 25.4057 10.1784L20.5655 11.5603L17.3427 21.9301L16.5045 22.2018L17.1892 14.2886L16.8115 12.6469L12.2783 13.946L0.28418 16.7452C1.2404 21.3514 4.49864 25.3789 9.25614 27.0678C16.5045 29.6544 24.4613 25.8631 27.0466 18.6113C28.1563 15.5051 28.0855 12.2453 27.0702 9.33984Z" fill="#161616"/>
</g>
<defs>
<clipPath id="clip0_83_30483">
<rect width="120" height="34" fill="white" transform="translate(0.000976562)"/>
</clipPath>
</defs>
</svg>
