<svg width="183" height="44" viewBox="0 0 183 44" fill="none" xmlns="http://www.w3.org/2000/svg">
<path d="M9.84319 3.20268C6.7166 3.84167 4.18116 5.5229 2.49292 8.10365C1.44463 9.69181 0.76204 11.5653 0.341505 13.9103C0.000200734 15.8955 0.0855164 18.6686 0.597473 21.3362C1.40198 25.5486 3.66313 30.0463 6.85676 33.7995C9.1179 36.4485 13.0185 39.0789 16.2853 40.1521C19.5703 41.2378 23.2576 41.1696 26.5305 39.9847C28.5356 39.2588 31.2783 37.6272 33.0945 36.1011C34.0758 35.276 36.1236 33.1543 36.215 32.8628C36.2394 32.7821 36.4222 32.5278 36.6112 32.2796C38.915 29.3763 40.7678 25.4927 41.5479 21.9504C42.1208 19.3572 42.3951 16.6462 42.2 15.6412C42.133 15.3372 41.9989 14.5555 41.9014 13.9103C41.0725 8.43864 38.0434 4.72881 33.2712 3.3826C32.5338 3.18408 32.1255 3.14685 30.2178 3.14685C28.1822 3.13444 27.9262 3.15926 26.8352 3.43843C25.0495 3.89751 23.1418 4.6978 21.5572 5.65938L21.1732 5.8951L19.9055 5.22511C18.2965 4.35658 17.1934 3.91611 15.621 3.49426C14.4873 3.20268 14.1582 3.15926 12.3725 3.12824C11.2876 3.10343 10.154 3.14685 9.84319 3.20268ZM14.2984 7.05522C15.1578 7.23513 16.1817 7.58872 17.23 8.0478L17.8577 8.33938L16.6814 9.58013C16.0293 10.2625 15.4259 10.9512 15.3284 11.1124C15.2309 11.2737 14.8226 11.8507 14.4142 12.409C12.9576 14.419 11.7143 16.7393 10.8976 18.9974C10.6964 19.5433 10.4892 20.0582 10.4344 20.1265C10.2942 20.325 10.0504 21.2308 9.71518 22.7941C9.44092 24.1465 9.41655 24.4381 9.41655 27.0375C9.40436 29.2398 9.447 29.9718 9.58108 30.524C9.6786 30.9148 9.73348 31.225 9.69082 31.225C9.5933 31.2126 8.3134 29.6058 7.69783 28.7001C4.88817 24.5994 3.43151 19.2394 3.98613 14.996C4.18726 13.4885 4.81503 11.4785 5.40621 10.4859C6.18634 9.13347 7.80752 7.78104 9.23978 7.27233C10.5928 6.77604 12.5431 6.70161 14.2984 7.05522ZM32.485 7.11105C36.7574 8.27115 39.049 13.0294 38.2689 19.0719C37.8362 22.4095 36.7026 25.4369 34.801 28.365C34.1062 29.4259 32.6983 31.2436 32.6313 31.1815C32.6069 31.1567 32.6618 30.7039 32.7532 30.1517C33.125 27.8191 33.0641 25.319 32.546 22.6824C32.2839 21.3548 31.7659 19.4999 31.6196 19.3882C31.5891 19.3572 31.388 18.9105 31.1808 18.3832C30.9735 17.8559 30.62 17.0432 30.3763 16.5655C29.9374 15.6598 29.6571 15.4365 29.2305 15.604C29.0964 15.6474 27.2923 16.7641 25.2079 18.0855C23.1236 19.4007 21.222 20.5856 20.966 20.7096C20.7223 20.8337 20.4602 21.0198 20.3809 21.1129C20.1493 21.392 20.3017 22.1055 20.6918 22.6514C20.8807 22.9182 21.1976 23.3897 21.4109 23.6998C21.7766 24.2458 21.9838 24.4133 22.2825 24.4133C22.4044 24.4133 24.9276 22.8251 26.8901 21.4975C27.396 21.1625 27.8713 20.8399 27.9506 20.8027C28.1151 20.7034 28.4442 21.7395 28.8221 23.5696C29.651 27.633 28.9989 31.7089 27.1156 34.2338C26.4452 35.1395 25.5066 35.8964 24.44 36.4113C23.2637 36.982 22.2337 37.1682 20.771 37.1061C18.6561 36.9945 17.3458 36.4113 15.8587 34.9038C15.0785 34.1097 14.8225 33.7561 14.4569 32.993C12.9454 29.7981 12.7503 26.6528 13.7742 22.4281C15.3711 15.7963 20.5942 9.61735 26.3903 7.50808C27.1156 7.25373 28.4381 6.93733 29.3097 6.82566C30.0167 6.74502 31.6623 6.88772 32.485 7.11105ZM60.9108 10.8519C59.7345 10.976 58.7167 11.1559 58.4303 11.2862C58.2535 11.3668 57.6562 11.6088 57.1321 11.8321C55.6023 12.4463 54.6089 13.1411 53.2558 14.5121C52.2441 15.5481 51.9577 15.9204 51.5249 16.7579C50.5193 18.7368 50.1476 20.5669 50.2573 22.9554C50.3548 24.9964 50.8423 26.7086 51.8114 28.3464C52.3051 29.1839 53.7068 30.6604 54.6454 31.318C55.779 32.1245 57.5343 32.9496 58.6436 33.204C59.7223 33.4521 62.1115 33.4397 63.2695 33.1792C64.8358 32.8317 66.8958 31.7027 67.999 30.5984L68.517 30.0711V31.1753C68.517 32.0687 68.5597 32.3355 68.7364 32.627L68.9558 32.993H70.4673C71.3023 32.993 72.0459 32.9496 72.1068 32.9062C72.4603 32.6704 72.4786 32.3168 72.4786 27.8688C72.4786 23.9604 72.4542 23.3772 72.3018 23.2346C72.1617 23.0795 71.5949 23.0546 67.8527 23.0546H63.5681L63.3487 23.3462C63.1476 23.6006 63.1171 23.8053 63.1171 24.9096C63.1171 26.1503 63.1293 26.1813 63.4157 26.4605C63.7144 26.7273 63.7814 26.7397 65.1222 26.7397C65.9024 26.7397 66.5301 26.7831 66.5301 26.8389C66.5301 27.0499 65.4697 27.875 64.7261 28.2596C63.6778 28.7745 62.3674 29.0164 61.0997 28.9296C58.1804 28.7311 56.0838 27.0002 55.328 24.1589C55.1939 23.6564 55.1391 23.0298 55.1391 22.0496C55.1391 20.8213 55.1818 20.5421 55.4499 19.7605C56.1569 17.6822 57.5222 16.2554 59.4359 15.5605C60.3379 15.2379 62.1237 15.1573 63.2268 15.393C64.9455 15.7591 66.4875 16.8571 67.292 18.284C67.7795 19.1463 67.9075 19.2021 68.7486 18.9106C70.2479 18.3832 71.7594 17.7256 71.8569 17.5581C72.0032 17.3348 71.6497 16.4725 70.9854 15.4241C69.8822 13.7056 68.4744 12.5517 66.4814 11.77C65.9938 11.5777 65.5245 11.3792 65.4148 11.3234C64.9211 11.0628 61.9591 10.7526 60.9108 10.8519ZM91.3905 11.3544L91.104 11.5777V22.0186C91.104 31.4421 91.1284 32.4843 91.2808 32.7263L91.4575 33.0054L96.3272 32.993C101.349 32.993 101.514 32.9806 103.172 32.5216C106.633 31.5848 108.846 29.8105 110.168 26.9382C110.93 25.288 111.095 24.4133 111.107 22.0559C111.107 19.6116 110.942 18.7927 110.071 16.975C108.706 14.1523 106.377 12.409 102.788 11.5343C101.221 11.1683 100.581 11.1187 96.0529 11.1187C91.7988 11.1249 91.6769 11.1311 91.3905 11.3544ZM101.825 15.7466C103.336 16.1685 104.427 16.9874 105.36 18.3708C105.646 18.8051 105.987 19.4627 106.097 19.8473C106.383 20.7655 106.469 22.1613 106.316 23.1663C106.195 23.9914 105.829 25.1887 105.677 25.3004C105.622 25.3314 105.39 25.6602 105.158 26.0138C104.324 27.2732 103.22 28.0549 101.721 28.4395C100.996 28.6318 100.496 28.6628 98.2958 28.6628H95.7299V22.1551C95.7299 18.5694 95.7604 15.5978 95.8153 15.5543C95.8579 15.4985 97.083 15.4861 98.5396 15.5233C100.502 15.5419 101.349 15.6102 101.825 15.7466ZM141.678 11.1993C141.257 11.3668 141.251 11.5219 141.239 15.4675V19.3076L140.691 18.7803C138.887 17.0618 135.535 16.9254 133.036 18.4701C132.67 18.6934 132.079 19.1835 131.701 19.5619C129.385 21.8945 128.806 25.9704 130.336 29.1529C131.628 31.8578 134.523 33.6196 137.345 33.4211C138.807 33.3218 139.648 32.931 140.782 31.8454L141.245 31.3987V31.926C141.245 32.23 141.325 32.5712 141.422 32.7325C141.599 33.0116 141.611 33.0117 143.397 33.0117C144.884 33.0117 145.225 32.9806 145.371 32.8317C145.524 32.6766 145.548 31.56 145.548 22.1365C145.548 11.708 145.548 11.615 145.329 11.373C145.109 11.1373 145.012 11.1249 143.476 11.1373C142.568 11.1311 141.763 11.1683 141.678 11.1993ZM139.143 21.8077C139.813 22.1179 140.66 22.9926 141.008 23.7371C141.251 24.2644 141.294 24.5063 141.294 25.4121C141.294 26.3923 141.264 26.5411 140.928 27.2236C140.301 28.5201 139.197 29.2088 137.765 29.2088C135.583 29.2088 134.066 27.4655 134.206 25.1329C134.273 24.0721 134.657 23.2346 135.419 22.4963C136.235 21.6898 136.784 21.4913 137.93 21.5471C138.35 21.572 138.856 21.6712 139.143 21.8077ZM158.92 11.3978L158.646 11.6646V15.4737C158.646 17.5643 158.621 19.2704 158.591 19.2704C158.566 19.2704 158.329 19.047 158.048 18.7803C157.543 18.2778 156.714 17.8311 155.879 17.583C155.153 17.372 153.215 17.3906 152.374 17.6264C150.887 18.042 149.376 19.047 148.541 20.2071C148.266 20.5732 148.01 20.9082 147.956 20.9454C147.815 21.0446 147.505 21.7271 147.236 22.5646C146.84 23.7805 146.694 25.1639 146.828 26.3302C146.962 27.3352 147.401 28.8738 147.712 29.3576C148.626 30.7411 149.65 31.7585 150.893 32.4843C151.954 33.0985 152.691 33.3343 153.855 33.4211C155.531 33.5452 156.805 33.0737 158.03 31.8826C158.286 31.6344 158.518 31.4483 158.56 31.4483C158.603 31.4483 158.64 31.6468 158.64 31.9074C158.64 32.3665 158.792 32.7759 159.011 32.9248C159.176 33.0365 162.516 33.0365 162.68 32.9248C163.022 32.7015 163.046 32.1555 163.046 22.0621C163.046 11.2738 163.058 11.3978 162.552 11.1993C162.455 11.1683 161.65 11.1311 160.779 11.1311C159.231 11.1249 159.17 11.1311 158.92 11.3978ZM156.464 21.7953C157.159 22.1551 157.841 22.8313 158.158 23.4827C158.335 23.8425 158.53 24.1651 158.591 24.2086C158.658 24.252 158.701 24.7545 158.701 25.3252C158.701 26.2496 158.67 26.4295 158.384 27.0126C157.664 28.4395 156.744 29.1095 155.342 29.1902C153.825 29.2708 152.679 28.6008 152.015 27.2236C151.686 26.5411 151.649 26.3985 151.649 25.4121C151.661 24.4877 151.692 24.2706 151.96 23.7371C152.277 23.0919 152.423 22.8996 153.051 22.2978C153.861 21.5409 155.495 21.2928 156.464 21.7953ZM181.306 14.4377C181.263 14.4687 181.227 14.8533 181.227 15.2752C181.227 15.8769 181.257 16.032 181.391 16.032C181.513 16.032 181.556 15.9079 181.556 15.5543V15.0829L181.775 15.4427C181.897 15.6412 182.031 15.8087 182.086 15.8087C182.141 15.8087 182.263 15.6412 182.36 15.4427L182.537 15.0829V15.5543C182.549 15.9576 182.58 16.032 182.769 16.032C182.976 16.032 183 15.9762 182.97 15.2193C182.939 14.5059 182.915 14.4128 182.714 14.4128C182.58 14.4128 182.415 14.5679 182.263 14.8471L182.019 15.269L181.897 14.8781C181.818 14.6672 181.69 14.4563 181.598 14.4191C181.397 14.3508 181.397 14.3508 181.306 14.4377ZM80.2493 17.5333C77.4092 18.1041 75.1481 20.0148 74.2887 22.5708C74.1242 23.0609 73.9474 23.5199 73.8925 23.6006C73.6183 23.9604 73.6061 26.994 73.8925 27.3539C73.9474 27.4345 74.0571 27.6888 74.1364 27.937C74.3984 28.8055 75.0628 29.916 75.7758 30.6977C76.4584 31.4483 77.9577 32.5712 78.2685 32.5712C78.3478 32.5712 78.4697 32.6394 78.5306 32.7263C78.5977 32.8069 79.0365 32.993 79.5119 33.1419C80.6333 33.4893 82.5958 33.5079 83.833 33.1978C84.8021 32.9496 86.3867 32.0935 87.24 31.3677C89.8059 29.1591 90.5921 25.5486 89.2451 22.1861C88.5625 20.4863 87.1303 18.9912 85.4116 18.1971C83.9549 17.5085 81.7486 17.2293 80.2493 17.5333ZM82.9737 21.7953C83.1931 21.8759 83.5161 22.0496 83.6807 22.1985C85.1434 23.4393 85.4237 23.9542 85.4298 25.4121C85.4298 26.262 85.3872 26.4481 85.0763 27.0871C84.5827 28.1169 83.6136 28.8303 82.4008 29.0847C80.8893 29.3949 79.2925 28.5698 78.5306 27.0623C78.1588 26.324 78.1101 24.9096 78.4453 24.0162C78.7074 23.3028 79.6338 22.242 80.3164 21.8946C81.0416 21.5037 82.0595 21.4727 82.9737 21.7953ZM118.701 17.4403C117.567 17.676 117.202 17.7753 116.549 18.042C114.624 18.8485 113.246 20.3436 112.57 22.3723C112.143 23.6316 111.985 24.7049 112.064 25.9146C112.143 27.1988 112.362 28.0363 112.911 29.1529C113.636 30.6604 114.995 32.0563 116.196 32.5153C116.452 32.6146 116.659 32.7387 116.659 32.7945C116.659 33.0861 118.939 33.508 120.011 33.4211C121.444 33.297 122.26 32.9186 123.363 31.8454L123.827 31.3987V31.926C123.827 32.23 123.906 32.5712 124.003 32.7325C124.18 33.0116 124.192 33.0117 126.033 33.0117C127.672 33.0117 127.898 32.9868 128.05 32.8131C128.215 32.6208 128.239 31.9508 128.239 25.3997C128.239 18.5631 128.227 18.1847 128.038 18.0172C127.861 17.8621 127.55 17.8249 126.076 17.8249C123.948 17.8249 123.827 17.8683 123.827 18.7431V19.3138L123.284 18.7989C122.614 18.1599 121.809 17.7505 120.858 17.5395C120.182 17.3844 119.201 17.341 118.701 17.4403ZM121.559 21.7643C121.834 21.8449 122.242 22.1427 122.73 22.6266C123.4 23.2842 123.504 23.4393 123.723 24.1775C124.32 26.1441 123.558 28.0611 121.858 28.8675C120.974 29.2832 119.743 29.2708 118.847 28.8427C118.112 28.4699 117.521 27.8558 117.171 27.0995C116.982 26.6776 116.94 26.3737 116.94 25.4121C116.94 24.3823 116.97 24.1713 117.214 23.6936C117.64 22.8251 118.616 21.9194 119.304 21.7271C120.2 21.5037 120.688 21.5037 121.559 21.7643ZM164.253 17.9304C163.887 18.1413 163.924 18.5445 164.472 20.356C167.471 30.1828 168.184 32.4409 168.361 32.6953C168.568 33.0054 168.592 33.0054 169.738 33.0054C170.622 33.0054 170.884 33.0365 170.841 33.1419C170.817 33.2226 170.707 33.5638 170.622 33.9112C170.25 35.2202 169.653 35.7227 168.452 35.7289C167.782 35.7289 167.593 35.6855 166.91 35.3132C166.008 34.8356 165.612 34.7983 165.289 35.1457C164.801 35.6793 163.936 37.1682 163.936 37.4659C163.936 37.8816 164.369 38.2786 165.301 38.7501C167.227 39.7117 170.116 39.6993 171.89 38.7253C172.67 38.291 173.651 37.2488 174.102 36.3679C174.535 35.5304 174.663 35.1147 175.217 33.1047C175.424 32.3354 176.064 30.0773 176.637 28.0797C178.277 22.3971 179.362 18.5321 179.362 18.3336C179.362 18.2468 179.282 18.0793 179.185 17.9862C179.045 17.8435 178.697 17.8063 177.149 17.8063C175.485 17.8063 175.266 17.8311 175.089 18.0048C174.87 18.2281 174.748 18.6314 173.742 22.5521C172.676 26.7273 172.036 29.0847 171.981 29.0847C171.938 29.0847 171.091 26.1255 169.592 20.7096C169.385 19.9404 169.165 19.258 169.116 19.2021C169.074 19.1339 168.964 18.8795 168.885 18.6128C168.665 17.8435 168.568 17.8063 166.362 17.8063C165.301 17.8187 164.35 17.8745 164.253 17.9304Z" fill="#161616"/>
</svg>
