<svg width="112" height="34" viewBox="0 0 112 34" fill="none" xmlns="http://www.w3.org/2000/svg">
<g clip-path="url(#clip0_83_30469)">
<path d="M90.0737 28.4916H22.4014L27.799 33.9975L90.0737 28.4916ZM100.936 24.9816V13.9698C100.936 11.9051 102.353 10.1845 104.377 10.1845C106.401 10.1845 107.818 11.9051 107.818 13.9698V24.9816H112.001V13.9698C112.001 9.42742 108.965 5.77976 104.512 5.77976C102.488 5.77976 100.936 6.94976 100.936 6.94976V6.1927H96.7532V24.9127H100.936V24.9816ZM87.105 5.71094C82.2472 5.71094 78.8062 10.0468 78.8062 15.5527C78.8062 21.3339 83.1243 25.3945 87.5098 25.3945C89.7363 25.3945 92.5026 24.6374 94.864 21.1963L91.1532 18.9939C88.3194 23.261 83.5291 21.1274 82.9893 16.7915H94.999C96.0785 10.1845 91.8279 5.71094 87.105 5.71094ZM90.7484 13.1439H83.2592C84.1363 8.808 89.9387 8.53271 90.7484 13.1439Z" fill="#161616"/>
<path d="M77.457 20.509C77.0522 20.7843 76.5799 20.9908 76.0401 20.9908C75.3654 20.9908 74.0835 20.4402 74.0835 18.7196V10.6672H77.6594V6.19368H74.0835V1.51367H69.9004V6.19368H67.6739V10.6672H69.9004V18.7196C69.9004 22.9178 73.004 25.3955 76.1076 25.3955C77.2546 25.3955 78.8739 24.9825 80.1558 24.2255L77.457 20.509ZM62.0739 6.19368V17.2055C62.0739 19.2702 60.657 20.9908 58.6329 20.9908C56.6088 20.9908 55.1919 19.2702 55.1919 17.2055V6.19368H51.0088V17.2055C51.0088 21.7478 54.0449 25.3955 58.4979 25.3955C60.522 25.3955 62.0739 24.2255 62.0739 24.2255V24.9137H66.257V6.19368H62.0739Z" fill="#161616"/>
<path d="M43.181 15.0036L50.3329 6.19413H44.5304L39.4702 12.7324V0H35.2196V24.983H39.4702V17.2747L45.6774 24.983H51.4798L43.181 15.0036ZM28.675 6.19413V7.02001C27.3931 6.19413 26.3136 5.71237 24.7618 5.71237C20.0389 5.71237 16.3955 10.1171 16.3955 15.5542C16.3955 20.9912 19.9714 25.3959 24.7618 25.3959C26.3136 25.3959 27.4606 24.9142 28.675 24.0883V24.9142H32.8582V6.19413H28.675ZM24.6943 20.9224C22.3329 20.9224 20.6461 18.5824 20.6461 15.623C20.6461 12.6636 22.3329 10.3236 24.6943 10.3236C27.0557 10.3236 28.675 12.6636 28.675 15.623C28.7425 18.5824 27.0557 20.9224 24.6943 20.9224Z" fill="#161616"/>
<path d="M4.38652 24.9825V17.6872H7.42266L12.7528 24.9137H18.2178L11.7407 16.1731C13.7648 14.7278 15.0468 12.319 15.0468 9.56604C15.0468 5.0925 11.4709 1.51367 7.15278 1.51367H0.000976562V24.9137H4.38652V24.9825ZM4.38652 5.98721H7.22025C9.17688 5.98721 10.7962 7.63898 10.7962 9.63487C10.7962 11.6308 9.17688 13.2825 7.22025 13.2825H4.38652V5.98721Z" fill="#161616"/>
</g>
<defs>
<clipPath id="clip0_83_30469">
<rect width="112" height="34" fill="white" transform="translate(0.000976562)"/>
</clipPath>
</defs>
</svg>
