<svg width="85" height="30" viewBox="0 0 85 30" fill="none" xmlns="http://www.w3.org/2000/svg">
<path d="M4.89033 21.4256C5.24953 22.3948 5.74684 23.2234 6.38234 23.9116C7.01784 24.5998 7.77072 25.1265 8.64098 25.4917C9.51134 25.8568 10.4576 26.0394 11.4799 26.0394C12.4746 26.0394 13.4071 25.8498 14.2774 25.4705C15.1478 25.0912 15.9075 24.5576 16.5568 23.8694C17.206 23.1812 17.7103 22.3596 18.0695 21.4045C18.4287 20.4495 18.6083 19.3821 18.6083 18.2023V0H22.9598V29.4944H18.6497V26.7556C17.6827 27.7949 16.5429 28.5955 15.2306 29.1574C13.9181 29.7191 12.5022 30 10.9826 30C9.43531 30 7.99173 29.7261 6.65167 29.1783C5.31171 28.6306 4.15121 27.8512 3.17045 26.8399C2.18968 25.8286 1.41598 24.6139 0.849628 23.1953C0.283179 21.7767 0 20.1967 0 18.455V0H4.35158V18.2023C4.35158 19.3821 4.53113 20.4565 4.89033 21.4256Z" fill="#161616"/>
<path d="M30.4612 0V10.7444C31.4282 9.76123 32.5472 8.98181 33.8181 8.40591C35.0891 7.83002 36.4706 7.54212 37.9625 7.54212C39.5098 7.54212 40.9601 7.83701 42.314 8.42689C43.6679 9.01677 44.842 9.81736 45.8367 10.8286C46.8314 11.8399 47.6189 13.0337 48.1991 14.4101C48.7793 15.7866 49.0693 17.2472 49.0693 18.7922C49.0693 20.337 48.7793 21.7907 48.1991 23.153C47.6189 24.5154 46.8314 25.7023 45.8367 26.7134C44.842 27.7247 43.6679 28.5252 42.314 29.1151C40.9601 29.705 39.5097 29.9999 37.9625 29.9999C36.4705 29.9999 35.0822 29.712 33.7974 29.1361C32.5127 28.5603 31.3867 27.7808 30.4197 26.7977V29.4943H26.2754V0H30.4612ZM30.9377 21.6994C31.3107 22.5984 31.8288 23.3849 32.4919 24.059C33.155 24.7332 33.9286 25.267 34.8128 25.6602C35.6969 26.0535 36.6501 26.2501 37.6724 26.2501C38.6671 26.2501 39.6064 26.0535 40.4905 25.6602C41.3746 25.267 42.1413 24.7333 42.7907 24.059C43.44 23.385 43.958 22.5984 44.3448 21.6994C44.7316 20.8006 44.925 19.8315 44.925 18.7922C44.925 17.7528 44.7316 16.7767 44.3448 15.8637C43.958 14.9508 43.44 14.1573 42.7907 13.4832C42.1414 12.8091 41.3747 12.2823 40.4905 11.9031C39.6063 11.524 38.667 11.3342 37.6724 11.3342C36.6778 11.3342 35.7384 11.5239 34.8543 11.9031C33.9702 12.2824 33.1966 12.8091 32.5334 13.4832C31.8704 14.1573 31.3454 14.9508 30.9586 15.8637C30.5718 16.7767 30.3784 17.7528 30.3784 18.7922C30.3783 19.8315 30.5648 20.8006 30.9377 21.6994Z" fill="#161616"/>
<path d="M51.4303 14.4518C51.9828 13.1035 52.7427 11.9168 53.7097 10.8915C54.6766 9.86622 55.8233 9.05864 57.1495 8.46876C58.4757 7.87888 59.9124 7.58398 61.4597 7.58398C62.9793 7.58398 64.3884 7.86489 65.687 8.42662C66.9855 8.98844 68.1044 9.76795 69.0438 10.7652C69.9833 11.7623 70.7155 12.9421 71.2403 14.3044C71.7653 15.6668 72.0278 17.1486 72.0278 18.7498V20.1402H54.8287C54.9669 21.011 55.2432 21.8186 55.6576 22.5629C56.0721 23.3072 56.59 23.9533 57.2117 24.5011C57.8334 25.0489 58.5379 25.4773 59.3254 25.7862C60.1128 26.0952 60.9485 26.2497 61.8327 26.2497C64.347 26.2497 66.3778 25.1963 67.925 23.0895L70.9503 25.3648C69.9004 26.7974 68.6019 27.921 67.0547 28.7356C65.5074 29.5502 63.7668 29.9575 61.8328 29.9575C60.2579 29.9575 58.7867 29.6765 57.419 29.1148C56.0514 28.553 54.8634 27.7664 53.8549 26.7551C52.8464 25.7439 52.0521 24.5571 51.4719 23.1948C50.8917 21.8325 50.6016 20.3507 50.6016 18.7496C50.6014 17.2328 50.8778 15.8002 51.4303 14.4518ZM57.2531 12.7875C56.0789 13.7847 55.2984 15.1119 54.9116 16.7692H67.8006C67.4414 15.1119 66.6747 13.7847 65.5004 12.7875C64.3262 11.7903 62.9517 11.2917 61.3768 11.2917C59.8019 11.2917 58.4274 11.7903 57.2531 12.7875Z" fill="#161616"/>
<path d="M79.8617 13.2714C78.9776 14.2545 78.5355 15.5888 78.5355 17.2742V29.4934H74.3496V8.00459H78.4939V10.6591C79.0189 9.78831 79.7028 9.10007 80.5454 8.59448C81.3881 8.08878 82.3897 7.83594 83.5502 7.83594H85.0006V11.7966H83.26C81.8786 11.7967 80.7458 12.2882 79.8617 13.2714Z" fill="#161616"/>
</svg>
