<svg width="108" height="44" viewBox="0 0 108 44" fill="none" xmlns="http://www.w3.org/2000/svg">
<path d="M85.8951 25.2245L87.5765 24.8476C87.6116 24.8397 87.671 24.8266 87.7412 24.8044C88.2056 24.6837 88.6036 24.3931 88.8512 23.9937C89.0988 23.5942 89.1768 23.1173 89.0687 22.6632L89.062 22.6344C89.0064 22.4169 88.9093 22.2114 88.7757 22.0285C88.5874 21.7969 88.3544 21.6031 88.0896 21.4578C87.7779 21.2857 87.4518 21.1395 87.1146 21.0207L85.2712 20.3676C84.2367 19.9946 83.2023 19.6321 82.157 19.2774C81.4804 19.0445 80.9065 18.839 80.4081 18.6885C80.3133 18.663 80.2192 18.6351 80.1259 18.6047C79.5236 18.4267 79.0995 18.3521 78.7416 18.3495C78.5024 18.3409 78.2642 18.3829 78.0434 18.4725C77.8128 18.5693 77.6058 18.712 77.4357 18.8913C77.3514 18.9841 77.272 19.0811 77.198 19.1819C77.0542 19.3961 76.9355 19.6253 76.8442 19.8651C76.5017 20.8454 76.331 21.8743 76.3391 22.9093C76.3459 23.8438 76.3716 25.0439 76.9023 25.858C77.0306 26.0674 77.2021 26.248 77.406 26.388C77.7842 26.6406 78.165 26.6746 78.5634 26.7021C79.1576 26.7427 79.7315 26.6027 80.3055 26.4731L85.8911 25.2232L85.8951 25.2245ZM104.653 16.5748C104.194 15.6412 103.577 14.7887 102.827 14.0528C102.73 13.9592 102.627 13.8726 102.517 13.7936C102.415 13.7198 102.31 13.6512 102.201 13.5882C102.089 13.5286 101.973 13.4749 101.855 13.4272C101.622 13.3383 101.372 13.2982 101.122 13.3094C100.883 13.3225 100.649 13.3879 100.437 13.4965C100.117 13.651 99.7699 13.8997 99.308 14.3145C99.2446 14.376 99.1649 14.4454 99.092 14.5109C98.7125 14.8577 98.2884 15.2856 97.7847 15.783C97.0055 16.546 96.2398 17.3129 95.4767 18.0864L94.1128 19.458C93.8637 19.7082 93.6369 19.9783 93.4348 20.2656C93.2618 20.5086 93.1393 20.782 93.0742 21.0705C93.0377 21.292 93.0432 21.5182 93.0904 21.7379L93.0972 21.7667C93.205 22.2203 93.4902 22.6156 93.8927 22.8695C94.2952 23.1234 94.7837 23.216 95.2553 23.1279C95.312 23.1201 95.3684 23.1096 95.4241 23.0964L102.692 21.4683C103.266 21.3401 103.847 21.2223 104.362 20.9317C104.707 20.7393 105.035 20.5469 105.261 20.1595C105.381 19.9462 105.454 19.7108 105.474 19.4685C105.586 18.5079 105.069 17.4176 104.653 16.5748ZM91.6414 19.5366C92.1681 18.8953 92.1681 17.9399 92.214 17.1572C92.3733 14.5462 92.5395 11.9352 92.6732 9.32285C92.7231 8.33342 92.8325 7.35707 92.7717 6.35978C92.7218 5.53787 92.7164 4.59293 92.1802 3.9176C91.2349 2.72661 89.2173 2.82477 87.8411 3.01061C87.4166 3.06744 86.9952 3.14431 86.5785 3.24096C86.1598 3.33781 85.7439 3.44382 85.3387 3.57077C84.018 3.98958 82.161 4.75914 81.8477 6.23414C81.6695 7.06783 82.0908 7.91984 82.4149 8.68155C82.8106 9.60293 83.3495 10.434 83.841 11.3017C85.1415 13.5934 86.465 15.872 87.7844 18.1519C88.1801 18.8324 88.6082 19.6936 89.3712 20.047C89.4226 20.0679 89.4739 20.0862 89.5265 20.1033C89.8682 20.2289 90.2423 20.2525 90.5975 20.1726L90.6609 20.1595C90.9905 20.0719 91.2876 19.8978 91.5212 19.6583C91.5644 19.619 91.6022 19.5798 91.6414 19.5366ZM91.0107 26.5267C90.8052 26.2465 90.5134 26.0365 90.1772 25.9267C89.841 25.8169 89.4776 25.813 89.1389 25.9155C89.0593 25.941 88.9816 25.972 88.9067 26.0085C88.7906 26.0658 88.6799 26.1328 88.5758 26.2087C88.2785 26.4357 88.0129 26.6993 87.7858 26.9927C87.7277 27.0647 87.6737 27.1602 87.6035 27.223L86.4339 28.7805C85.7722 29.6547 85.1172 30.5303 84.4704 31.419C84.0463 31.9935 83.6817 32.4791 83.3913 32.907C83.3373 32.9882 83.2806 33.0772 83.2293 33.1505C82.8822 33.6688 82.6864 34.0483 82.5851 34.386C82.5094 34.6103 82.4855 34.848 82.5149 35.0822C82.5473 35.3257 82.6324 35.5599 82.7634 35.7707C82.8336 35.8754 82.9092 35.9774 82.9902 36.0756C83.1653 36.2708 83.3623 36.4464 83.5777 36.5991C84.3853 37.1436 85.2685 37.5349 86.1976 37.8372C86.9714 38.0859 87.775 38.2351 88.588 38.2796C88.7271 38.2861 88.8662 38.2835 89.0039 38.2717C89.1316 38.2601 89.2587 38.2427 89.3847 38.2194C89.5108 38.1909 89.6352 38.156 89.7575 38.1147C89.9951 38.0284 90.2114 37.8946 90.3922 37.722C90.5637 37.5558 90.6961 37.3556 90.7784 37.1344C90.9135 36.8072 91.0026 36.3936 91.062 35.7785C91.0661 35.6908 91.0796 35.5861 91.089 35.4906C91.135 34.9801 91.1566 34.3781 91.189 33.674C91.247 32.589 91.2916 31.5093 91.3267 30.4269L91.4024 28.5004C91.4199 28.058 91.405 27.5659 91.2781 27.1249C91.2223 26.913 91.132 26.7111 91.0107 26.5267ZM104.209 29.5409C103.966 29.2804 103.62 29.0226 103.075 28.7032C102.996 28.6601 102.903 28.6038 102.818 28.554C102.364 28.2884 101.817 28.0109 101.178 27.6745C100.197 27.151 99.2149 26.6432 98.2223 26.138L96.4707 25.2376C96.3802 25.2114 96.2884 25.1486 96.2019 25.108C95.8651 24.9413 95.5074 24.8177 95.1378 24.7403C95.0104 24.7164 94.8812 24.7033 94.7515 24.701C94.6676 24.7006 94.5837 24.7054 94.5003 24.7154C94.1497 24.7679 93.8251 24.9263 93.5729 25.1682C93.3207 25.41 93.1537 25.7229 93.0958 26.0621C93.0702 26.2781 93.0783 26.4966 93.1215 26.7087C93.2066 27.1615 93.4146 27.6078 93.6306 27.9991L94.5652 29.6992C95.0865 30.6573 95.6131 31.61 96.1533 32.5602C96.5017 33.1793 96.7921 33.7093 97.0635 34.1491C97.1149 34.2315 97.1729 34.3205 97.2175 34.3977C97.5484 34.9252 97.8131 35.2576 98.0818 35.4971C98.2608 35.664 98.4757 35.7904 98.711 35.8673C98.9464 35.9443 99.1964 35.9698 99.4431 35.9421C99.5716 35.9269 99.6992 35.9051 99.8253 35.8767C100.084 35.8096 100.333 35.7144 100.569 35.5927C101.28 35.2065 101.935 34.7313 102.518 34.1792C103.218 33.5117 103.836 32.784 104.317 31.9516C104.384 31.8338 104.441 31.7121 104.49 31.5852C104.535 31.4689 104.574 31.3506 104.607 31.2305C104.636 31.1075 104.657 30.9844 104.672 30.8601C104.696 30.6158 104.667 30.3692 104.587 30.1364C104.508 29.9129 104.379 29.7092 104.209 29.5396V29.5409Z" fill="#161616"/>
<path fill-rule="evenodd" clip-rule="evenodd" d="M43.889 13.0091C43.889 11.6087 45.0653 10.4648 46.486 10.4648C47.8864 10.4648 49.0235 11.6087 49.0843 13.0301V32.8895C49.0843 34.2899 47.9067 35.4337 46.486 35.4337C46.1426 35.4336 45.8026 35.3675 45.4858 35.2392C45.1689 35.1109 44.8814 34.9231 44.6399 34.6865C44.3984 34.4499 44.2077 34.1693 44.0788 33.8608C43.95 33.5524 43.8854 33.2222 43.889 32.8895V13.0091ZM41.473 25.2763C41.4527 25.6702 41.3515 26.4005 40.8248 26.9332C40.2562 27.5051 39.4851 27.6426 39.0381 27.6426C37.1812 27.653 35.3243 27.6583 33.4674 27.6622C31.6105 27.6674 29.7536 27.6727 27.8967 27.6818C28.0587 28.1752 28.3828 28.9252 29.1134 29.6149C29.5591 30.0298 29.9859 30.2654 30.1695 30.3648C30.3923 30.5022 31.1635 30.8975 32.1169 30.8975C33.1325 30.8975 34.0251 30.5808 34.8989 30.1476L34.9705 30.1109C35.5782 29.806 36.2034 29.4919 36.8665 29.378C37.5148 29.2798 38.2062 29.3976 38.7126 29.8322C39.3217 30.3452 39.5661 31.0938 39.3419 31.8634C39.0786 32.7311 38.3277 33.481 37.5364 33.9339C37.0834 34.1907 36.608 34.4084 36.1157 34.5843C34.8596 35.0163 33.5314 35.2173 32.1993 35.1772C31.8752 35.1772 31.5294 35.1772 31.1837 35.1379C30.8191 35.0987 30.4545 35.0188 30.1087 34.9403C29.5483 34.8225 29.0033 34.6438 28.4841 34.4076C27.9648 34.1845 27.4687 33.9137 27.0027 33.5988C26.5378 33.275 26.1035 32.912 25.7048 32.5138C25.3084 32.1108 24.9483 31.6755 24.6285 31.2129C23.5333 29.5953 23.0255 27.6033 23.1268 25.6702C23.2078 23.7777 23.8574 21.8839 25.035 20.3461C25.162 20.1524 25.3092 19.9888 25.4483 19.8344C25.509 19.7663 25.5684 19.7009 25.6238 19.6355C27.0769 17.9131 29.0189 17.3687 29.8197 17.1435L29.8643 17.1305C31.4897 16.6832 33.2114 16.6832 34.8368 17.1305C35.223 17.2299 37.3946 17.8804 39.0786 19.6355C39.1596 19.714 39.3838 19.9705 39.6674 20.3461C40.3877 21.2967 40.9169 22.3703 41.2272 23.5108L41.2299 23.5212C41.3515 23.9544 41.473 24.5473 41.473 25.2763ZM29.5605 22.0227C28.7591 22.6542 28.2014 23.5295 27.9777 24.5067H36.826C36.5872 23.5304 36.024 22.6571 35.223 22.0214C34.4161 21.3943 33.4158 21.0473 32.3816 21.0358C31.3529 21.0457 30.358 21.3931 29.5591 22.0214L29.5605 22.0227ZM63.2089 16.7954C60.8955 16.7954 58.7847 17.8019 57.283 19.4391V19.3789C57.2529 18.7214 56.9574 18.1017 56.4602 17.6534C55.963 17.205 55.304 16.964 54.6251 16.9822C53.9463 17.0004 53.3019 17.2764 52.8311 17.7507C52.3602 18.225 52.1005 18.8596 52.108 19.5177V38.4701C52.1064 38.8015 52.1725 39.13 52.3024 39.4365C52.4323 39.7431 52.6235 40.0218 52.865 40.2564C53.1065 40.4911 53.3936 40.6771 53.7096 40.8038C54.0256 40.9305 54.3643 40.9954 54.7063 40.9947C55.0482 40.9952 55.3868 40.9302 55.7026 40.8035C56.0185 40.6767 56.3053 40.4906 56.5467 40.256C56.7881 40.0213 56.9792 39.7427 57.109 39.4362C57.2389 39.1298 57.3049 38.8014 57.3033 38.4701V32.5531C58.805 34.1708 60.8955 35.1968 63.2292 35.1968C67.8775 35.1968 71.6521 31.1134 71.6521 26.0249C71.6318 20.9377 67.8572 16.7954 63.2089 16.7954ZM62.0732 31.0742C59.4343 31.0742 57.283 28.8453 57.283 26.0655C57.283 23.2647 59.4141 21.0358 62.0732 21.0358C64.7106 21.0358 66.8619 23.2647 66.8619 26.0655C66.8417 28.8453 64.7106 31.0742 62.0732 31.0742ZM19.2307 27.3468L18.3785 29.1621C17.9923 29.9499 17.606 30.7588 17.2414 31.5676L16.8889 32.3267C15.2657 35.8237 13.3412 39.9752 9.14396 40.856C7.1142 41.2905 4.04997 40.6989 2.91287 38.8444C1.77712 36.9715 3.46116 34.8212 5.63272 35.3146C5.97575 35.3879 6.31201 35.5502 6.65233 35.7151C7.21818 35.99 7.79214 36.2661 8.41335 36.1431C9.00216 36.0449 9.36679 35.63 9.83405 35.0974C10.4823 34.3684 10.7672 33.5988 10.8888 33.1447L10.8591 33.0766C10.8497 33.0531 10.8393 33.03 10.828 33.0073C10.3 32.0518 9.83811 31.1985 9.45322 30.4852C9.23684 30.0824 9.01851 29.6806 8.79824 29.2798L7.91368 27.6517C7.26545 26.4607 7.15741 26.2644 6.87111 25.7501C6.23994 24.5955 5.57662 23.4578 4.88186 22.3381C4.131 21.1144 3.35987 19.7546 3.9892 18.3136C4.22574 17.7557 4.66991 17.3043 5.23369 17.0488C5.79748 16.7933 6.43973 16.7524 7.03317 16.9341C8.33908 17.3176 8.91843 18.523 9.45862 19.6485C9.55721 19.8527 9.65309 20.0543 9.75303 20.2467C10.6254 21.9232 11.4776 23.5997 12.3297 25.2763C12.4054 25.4425 12.5188 25.6689 12.6592 25.9464C12.7835 26.1924 12.928 26.4791 13.0806 26.7945L13.3061 27.2499C13.3939 27.4279 13.4709 27.5797 13.5276 27.7015C13.9233 26.7461 14.3244 25.7946 14.7241 24.8418C15.1252 23.8903 15.5263 22.9388 15.922 21.9821C15.9328 21.9297 16.0273 21.7256 16.1705 21.418C16.2907 21.1576 16.4446 20.8238 16.6121 20.4443L16.7836 20.0425C17.3103 18.7991 17.945 17.3032 19.3522 16.8949C19.8517 16.7544 20.3839 16.7681 20.8749 16.9342C21.366 17.1003 21.7915 17.4104 22.0923 17.8215C22.3962 18.2351 22.5177 18.7088 22.538 19.1826C22.5542 20.2296 22.0329 21.3526 21.5845 22.3158C21.4765 22.5514 21.3712 22.7765 21.2807 22.9885L21.2267 23.1037C21.1024 23.3746 20.7648 24.1076 20.1841 25.3156C19.9748 25.7475 19.7736 26.182 19.5696 26.6204L19.2307 27.3468Z" fill="#161616"/>
</svg>
