<svg width="60" height="60" viewBox="0 0 60 60" fill="none" xmlns="http://www.w3.org/2000/svg">
<path d="M54 0H6C4.41073 0.00658092 2.88842 0.640835 1.76463 1.76463C0.640835 2.88842 0.00658092 4.41073 0 6L0 54C0.00658092 55.5893 0.640835 57.1116 1.76463 58.2354C2.88842 59.3592 4.41073 59.9934 6 60H54C55.5893 59.9934 57.1116 59.3592 58.2354 58.2354C59.3592 57.1116 59.9934 55.5893 60 54V6C59.9934 4.41073 59.3592 2.88842 58.2354 1.76463C57.1116 0.640835 55.5893 0.00658092 54 0ZM17.6125 36.1625C18.8855 36.7426 20.3369 36.7933 21.6473 36.3034C22.9577 35.8135 24.0198 34.823 24.6 33.55H28.75C28.2151 35.7415 26.8957 37.6611 25.0413 38.9457C23.187 40.2303 20.9262 40.7909 18.6865 40.5215C16.4468 40.2521 14.3834 39.1714 12.8865 37.4837C11.3897 35.796 10.5631 33.6184 10.5631 31.3625C10.5631 29.1067 11.3897 26.929 12.8865 25.2413C14.3834 23.5536 16.4468 22.4729 18.6865 22.2035C20.9262 21.9341 23.187 22.4947 25.0413 23.7793C26.8957 25.0639 28.2151 26.9835 28.75 29.175H24.6C24.2467 28.3998 23.711 27.7217 23.0385 27.1986C22.3661 26.6756 21.5769 26.3232 20.7386 26.1716C19.9003 26.02 19.0377 26.0737 18.2247 26.3281C17.4116 26.5825 16.6723 27.03 16.0699 27.6324C15.4675 28.2348 15.02 28.9741 14.7656 29.7872C14.5112 30.6002 14.4575 31.4628 14.6091 32.3011C14.7607 33.1394 15.1131 33.9286 15.6361 34.601C16.1592 35.2735 16.8373 35.8092 17.6125 36.1625ZM45.975 38.275C45.1903 38.9506 44.2934 39.4836 43.325 39.85C41.9406 40.3874 40.4466 40.5817 38.9708 40.4163C37.4949 40.2509 36.0811 39.7306 34.85 38.9V39.85H31.075V13.425H34.825V23.7C36.1637 22.795 37.7141 22.2523 39.325 22.125H40C41.8771 22.1221 43.7098 22.6949 45.2511 23.7663C46.7924 24.8377 47.968 26.356 48.6193 28.1164C49.2706 29.8769 49.3663 31.7947 48.8934 33.6112C48.4206 35.4277 47.402 37.0555 45.975 38.275ZM45.4175 31.36C45.4328 32.0602 45.308 32.7565 45.0506 33.4079C44.7932 34.0592 44.4083 34.6527 43.9185 35.1533C43.4286 35.6539 42.8437 36.0517 42.1981 36.3232C41.5525 36.5948 40.8592 36.7347 40.1587 36.7347C39.4583 36.7347 38.765 36.5948 38.1194 36.3232C37.4738 36.0517 36.8889 35.6539 36.399 35.1533C35.9092 34.6527 35.5243 34.0592 35.2669 33.4079C35.0095 32.7565 34.8847 32.0602 34.9 31.36C34.93 29.9851 35.4972 28.6767 36.4801 27.715C37.4631 26.7532 38.7836 26.2147 40.1587 26.2147C41.5339 26.2147 42.8544 26.7532 43.8374 27.715C44.8203 28.6767 45.3875 29.9851 45.4175 31.36Z" fill="#0288D1"/>
</svg>
