<svg width="33" height="32" viewBox="0 0 33 32" fill="none" xmlns="http://www.w3.org/2000/svg">
<path fill-rule="evenodd" clip-rule="evenodd" d="M16.998 0C8.16149 0 0.998047 7.16344 0.998047 16C0.998047 24.8366 8.16149 32 16.998 32C25.8346 32 32.998 24.8366 32.998 16C32.998 7.16344 25.8346 0 16.998 0ZM16.5524 13.5592L16.5188 13.0056C16.4181 11.5707 17.3023 10.26 18.7012 9.75156C19.216 9.57078 20.089 9.54819 20.6598 9.70637C20.8836 9.77416 21.3089 10.0001 21.6111 10.2035L22.1595 10.5764L22.7638 10.3843C23.0996 10.2826 23.5472 10.1131 23.7487 10.0001C23.9389 9.89845 24.1068 9.84195 24.1068 9.87585C24.1068 10.0679 23.6927 10.7232 23.3458 11.0848C22.8757 11.5932 23.01 11.6384 23.9613 11.2995C24.5321 11.1074 24.5433 11.1074 24.4314 11.3221C24.3642 11.4351 24.0173 11.8305 23.6479 12.1921C23.0212 12.8135 22.9876 12.8813 22.9876 13.401C22.9876 14.2032 22.6071 15.8755 22.2266 16.7906C21.5215 18.5081 20.0107 20.2819 18.4998 21.1745C16.3734 22.4287 13.5419 22.7451 11.158 22.0106C10.3634 21.7621 8.99805 21.1293 8.99805 21.0164C8.99805 20.9825 9.41214 20.9373 9.91576 20.926C10.9678 20.9034 12.0198 20.6096 12.9151 20.0899L13.5195 19.7283L12.8256 19.491C11.8407 19.1521 10.9566 18.3725 10.7328 17.6381C10.6656 17.4008 10.688 17.3895 11.3147 17.3895L11.9638 17.3782L11.4154 17.1183C10.7663 16.7906 10.1732 16.237 9.88219 15.6721C9.66955 15.2653 9.40095 14.2371 9.47929 14.1581C9.50167 14.1242 9.7367 14.1919 10.0053 14.2823C10.7775 14.5648 10.8782 14.497 10.4306 14.0225C9.59121 13.1638 9.3338 11.887 9.7367 10.6781L9.92696 10.1357L10.6656 10.8701C12.1765 12.3503 13.956 13.2316 15.9928 13.4914L16.5524 13.5592Z" fill="white" fill-opacity="0.96"/>
</svg>
