<svg width="18" height="11" viewBox="0 0 18 11" fill="none" xmlns="http://www.w3.org/2000/svg">
<path d="M17.7003 2.3253L9.5753 10.4503C9.49984 10.5258 9.41023 10.5858 9.31159 10.6267C9.21296 10.6675 9.10723 10.6886 9.00045 10.6886C8.89368 10.6886 8.78795 10.6675 8.68931 10.6267C8.59068 10.5858 8.50107 10.5258 8.42561 10.4503L0.300608 2.3253C0.14815 2.17284 0.0625 1.96606 0.0625 1.75045C0.0625 1.53484 0.14815 1.32807 0.300608 1.17561C0.453066 1.02315 0.659844 0.9375 0.875452 0.9375C1.09106 0.9375 1.29784 1.02315 1.4503 1.17561L9.00045 8.72678L16.5506 1.17561C16.6261 1.10012 16.7157 1.04024 16.8144 0.999382C16.913 0.958527 17.0187 0.9375 17.1255 0.9375C17.2322 0.9375 17.3379 0.958527 17.4366 0.999382C17.5352 1.04024 17.6248 1.10012 17.7003 1.17561C17.7758 1.2511 17.8357 1.34072 17.8765 1.43935C17.9174 1.53798 17.9384 1.64369 17.9384 1.75045C17.9384 1.85721 17.9174 1.96292 17.8765 2.06156C17.8357 2.16019 17.7758 2.24981 17.7003 2.3253Z" fill="black"/>
</svg>
