<svg width="100" height="22" viewBox="0 0 100 22" fill="none" xmlns="http://www.w3.org/2000/svg">
<path d="M8.49913 12.8482L13.9986 20.8473H8.83243L5.58276 15.9867L4.22179 17.4588V20.8473H0V0.738281H4.22179V11.6816L8.4158 7.04319H13.8875L8.49913 12.8482Z" fill="white" fill-opacity="0.96"/>
<path d="M21.3312 17.3755C21.7386 17.3755 22.1274 17.3107 22.4977 17.181C22.8681 17.0329 23.1921 16.82 23.4699 16.5422C23.7661 16.246 23.9976 15.8849 24.1642 15.459C24.3494 15.0331 24.442 14.5239 24.442 13.9314C24.442 13.3574 24.3494 12.8574 24.1642 12.4315C23.9976 11.9871 23.7661 11.6261 23.4699 11.3483C23.1921 11.0706 22.8681 10.8669 22.4977 10.7373C22.1274 10.5891 21.7386 10.5151 21.3312 10.5151C20.9423 10.5151 20.5535 10.5891 20.1646 10.7373C19.7943 10.8669 19.461 11.0706 19.1647 11.3483C18.887 11.6261 18.6555 11.9871 18.4704 12.4315C18.3037 12.8574 18.2204 13.3574 18.2204 13.9314C18.2204 14.5054 18.3037 15.0146 18.4704 15.459C18.6555 15.8849 18.887 16.246 19.1647 16.5422C19.461 16.82 19.7943 17.0329 20.1646 17.181C20.5535 17.3107 20.9423 17.3755 21.3312 17.3755ZM21.3312 6.62657C22.3681 6.62657 23.331 6.81173 24.2198 7.18207C25.1086 7.53388 25.877 8.03383 26.5251 8.68191C27.1917 9.32999 27.7102 10.0984 28.0805 10.9872C28.4693 11.876 28.6638 12.8574 28.6638 13.9314C28.6638 15.0053 28.4693 15.996 28.0805 16.9033C27.7102 17.7921 27.1917 18.5605 26.5251 19.2086C25.877 19.8567 25.1086 20.3659 24.2198 20.7362C23.331 21.0881 22.3681 21.264 21.3312 21.264C20.2943 21.264 19.3314 21.0881 18.4426 20.7362C17.5538 20.3659 16.7761 19.8567 16.1095 19.2086C15.4614 18.5605 14.943 17.7921 14.5541 16.9033C14.1838 15.996 13.9986 15.0053 13.9986 13.9314C13.9986 12.8574 14.1838 11.876 14.5541 10.9872C14.943 10.0984 15.4614 9.32999 16.1095 8.68191C16.7761 8.03383 17.5538 7.53388 18.4426 7.18207C19.3314 6.81173 20.2943 6.62657 21.3312 6.62657Z" fill="white" fill-opacity="0.96"/>
<path d="M29.5751 11.2094C29.8158 11.1539 30.0473 11.1169 30.2695 11.0983C30.4917 11.0798 30.7046 11.0706 30.9083 11.0706C31.3342 11.0706 31.7415 11.1354 32.1304 11.265C32.5192 11.3946 32.8618 11.6075 33.1581 11.9038C33.4543 12.2001 33.695 12.5889 33.8802 13.0704C34.0469 13.5518 34.1302 14.1351 34.1302 14.8202V20.8473H38.352V7.04319H34.2691V8.90411C34.0839 8.51526 33.8524 8.19122 33.5747 7.93199C33.2784 7.67276 32.9636 7.46908 32.6303 7.32094C32.297 7.17281 31.9637 7.07097 31.6304 7.01542C31.2786 6.94135 30.9638 6.90432 30.6861 6.90432C30.2602 6.90432 29.8899 6.95061 29.5751 7.04319V11.2094Z" fill="white" fill-opacity="0.96"/>
<path d="M50.3851 11.2094C50.1444 11.1539 49.9129 11.1168 49.6907 11.0983C49.4685 11.0798 49.2556 11.0706 49.0519 11.0706C48.626 11.0706 48.2186 11.1354 47.8298 11.265C47.4409 11.3946 47.0984 11.6075 46.8021 11.9038C46.5058 12.2001 46.2651 12.5889 46.08 13.0704C45.9133 13.5518 45.83 14.1351 45.83 14.8202V20.8473H41.6082V7.04319H45.6911V8.90411C45.8763 8.51526 46.1077 8.19122 46.3855 7.93199C46.6817 7.67276 46.9965 7.46907 47.3298 7.32094C47.6631 7.17281 47.9964 7.07097 48.3297 7.01542C48.6815 6.94135 48.9963 6.90432 49.2741 6.90432C49.7 6.90432 50.0703 6.95061 50.3851 7.04319V11.2094Z" fill="white" fill-opacity="0.96"/>
<path d="M61.5046 12.2927C61.4861 12.0334 61.4213 11.7649 61.3102 11.4872C61.2176 11.2094 61.0602 10.9595 60.838 10.7373C60.6158 10.5151 60.3288 10.3299 59.977 10.1818C59.6437 10.0336 59.227 9.95956 58.7271 9.95956C58.2827 9.95956 57.8938 10.0336 57.5606 10.1818C57.2273 10.3299 56.9402 10.5151 56.6995 10.7373C56.4773 10.9595 56.3014 11.2094 56.1718 11.4872C56.0607 11.7649 55.9959 12.0334 55.9774 12.2927H61.5046ZM65.3375 16.8755C65.1709 17.4681 64.9117 18.0328 64.5598 18.5698C64.208 19.1068 63.7636 19.5789 63.2266 19.9863C62.6897 20.3752 62.0601 20.6807 61.3379 20.9029C60.6343 21.1436 59.8474 21.264 58.9771 21.264C58.0327 21.264 57.1254 21.0973 56.2551 20.764C55.3848 20.4307 54.6164 19.9493 53.9498 19.3197C53.2832 18.6901 52.7555 17.9217 52.3666 17.0144C51.9778 16.1071 51.7834 15.0701 51.7834 13.9036C51.7834 12.7926 51.9685 11.7927 52.3389 10.9039C52.7277 9.99659 53.2369 9.22815 53.8665 8.59859C54.5146 7.96902 55.2552 7.48759 56.0885 7.15429C56.9217 6.80247 57.7827 6.62657 58.6715 6.62657C60.8195 6.62657 62.5045 7.24687 63.7266 8.48749C64.9672 9.7281 65.5875 11.4687 65.5875 13.7092C65.5875 14.0054 65.5782 14.2924 65.5597 14.5702C65.5412 14.8294 65.5227 14.9776 65.5042 15.0146H55.8941C55.9126 15.4034 56.0051 15.7645 56.1718 16.0978C56.357 16.4126 56.5884 16.6904 56.8662 16.9311C57.1624 17.1718 57.4957 17.357 57.8661 17.4866C58.2364 17.6162 58.6253 17.681 59.0326 17.681C59.8103 17.681 60.4121 17.5143 60.838 17.181C61.2824 16.8477 61.6064 16.4126 61.8101 15.8756L65.3375 16.8755Z" fill="white" fill-opacity="0.96"/>
<path d="M74.6586 10.5151C74.2142 10.5151 73.7976 10.5891 73.4088 10.7373C73.0384 10.8854 72.7051 11.1076 72.4089 11.4039C72.1311 11.7001 71.9089 12.0612 71.7423 12.4871C71.5756 12.913 71.4923 13.4037 71.4923 13.9592C71.4923 14.5146 71.5756 15.0053 71.7423 15.4312C71.9274 15.8386 72.1589 16.1904 72.4366 16.4867C72.7329 16.7829 73.0755 17.0051 73.4643 17.1533C73.8532 17.3014 74.2698 17.3755 74.7142 17.3755C75.5289 17.3755 76.1677 17.1625 76.6306 16.7366C77.1121 16.3108 77.4269 15.8386 77.575 15.3201L81.2968 16.4589C81.1487 17.0699 80.8895 17.6625 80.5191 18.2365C80.1673 18.8105 79.7137 19.3197 79.1582 19.7641C78.6027 20.2085 77.9546 20.5696 77.2139 20.8473C76.4733 21.1251 75.64 21.264 74.7142 21.264C73.6772 21.264 72.7051 21.0881 71.7978 20.7362C70.909 20.3659 70.1313 19.8567 69.4647 19.2086C68.7981 18.5605 68.2704 17.7921 67.8815 16.9033C67.4927 16.0145 67.2983 15.0331 67.2983 13.9592C67.2983 12.8852 67.4834 11.9038 67.8538 11.015C68.2426 10.1077 68.7611 9.32999 69.4092 8.68191C70.0758 8.03383 70.8442 7.53388 71.7145 7.18207C72.6033 6.81173 73.5569 6.62657 74.5753 6.62657C75.5197 6.62657 76.3714 6.76544 77.1306 7.04319C77.8898 7.30242 78.5471 7.65424 79.1026 8.09864C79.6581 8.54304 80.1118 9.0615 80.4636 9.65404C80.8154 10.2281 81.0654 10.8206 81.2135 11.4316L77.4361 12.5704C77.3621 12.3112 77.251 12.0612 77.1028 11.8205C76.9547 11.5612 76.7695 11.339 76.5473 11.1539C76.3251 10.9502 76.0566 10.7928 75.7418 10.6817C75.4271 10.5706 75.066 10.5151 74.6586 10.5151Z" fill="white" fill-opacity="0.96"/>
<path d="M88.9223 7.04319H91.6165V10.7373H88.9223V15.9034C88.9223 16.4774 89.0612 16.8663 89.339 17.0699C89.6167 17.2551 89.9871 17.3477 90.45 17.3477C90.6722 17.3477 90.8759 17.3384 91.061 17.3199C91.2647 17.2829 91.4314 17.2459 91.561 17.2088V20.7085C91.4684 20.7455 91.2462 20.8196 90.8944 20.9307C90.5426 21.0418 90.0333 21.0973 89.3667 21.0973C87.9224 21.0973 86.7929 20.7085 85.9782 19.9308C85.1635 19.1345 84.7561 18.0421 84.7561 16.6533V10.7373H82.3119V7.04319H83.0063C83.7284 7.04319 84.2654 6.83025 84.6172 6.40437C84.9691 5.97849 85.145 5.4415 85.145 4.79342V3.01583H88.9223V7.04319Z" fill="white" fill-opacity="0.96"/>
<path d="M94.5269 17.1522C94.3788 17.4855 94.3047 17.8465 94.3047 18.2354C94.3047 18.6242 94.3788 18.9946 94.5269 19.3464C94.675 19.6797 94.8787 19.976 95.1379 20.2352C95.3972 20.4944 95.6934 20.6981 96.0267 20.8462C96.3786 21.0129 96.7489 21.0962 97.1377 21.0962C97.5266 21.0962 97.8877 21.0129 98.221 20.8462C98.5728 20.6981 98.8783 20.4944 99.1375 20.2352C99.4153 19.976 99.6282 19.6797 99.7764 19.3464C99.9245 18.9946 99.9986 18.6242 99.9986 18.2354C99.9986 17.8465 99.9245 17.4855 99.7764 17.1522C99.6282 16.8003 99.4153 16.4948 99.1375 16.2356C98.8783 15.9764 98.5728 15.7727 98.221 15.6245C97.8877 15.4764 97.5266 15.4023 97.1377 15.4023C96.7489 15.4023 96.3786 15.4764 96.0267 15.6245C95.6934 15.7727 95.3972 15.9764 95.1379 16.2356C94.8787 16.4948 94.675 16.8003 94.5269 17.1522Z" fill="#007C89"/>
</svg>
