<svg width="139" height="36" viewBox="0 0 139 36" fill="none" xmlns="http://www.w3.org/2000/svg">
<path d="M137.509 17.6195L136.242 17.9615C135.039 13.8575 133.018 12.0994 130.168 12.0994C128.167 12.0994 126.748 13.4167 126.748 15.5194C126.748 17.5207 128.395 18.5974 132.871 20.4049C136.992 21.9198 138.7 23.7742 138.7 27.0169C138.7 31.9506 134.824 35.045 128.458 35.045C125.397 35.045 121.929 34.361 119.974 33.5795L119.73 26.7243L120.933 26.4798C122.74 31.1703 125.053 32.9449 128.064 32.9449C130.67 32.9449 132.038 31.1374 132.038 29.2804C132.038 27.4235 130.979 26.3494 126.908 24.8851C123.032 23.6146 120.378 21.954 120.378 17.8336C120.378 13.7802 123.944 10.3425 130.005 10.3425C132.871 10.3425 135.477 10.8314 137.187 11.613L137.509 17.6195ZM111.289 19.769C111.435 16.5454 110.782 11.8878 108.129 11.8878C105.41 11.8878 103.911 16.2363 103.863 19.9654L111.289 19.769ZM108.781 10.3248C115.456 10.3248 118.681 15.2103 118.73 21.626H103.702C103.652 27.3095 106.666 31.6073 112.301 31.6073C114.758 31.6073 116.177 30.9233 117.674 29.8492L118.374 30.6307C116.728 32.8778 113.308 35.026 108.748 35.026C101.42 35.026 96.3393 29.9948 96.3393 22.8939C96.3229 16.4782 100.491 10.3222 108.781 10.3222M87.1231 22.2099C86.9761 17.1432 85.1217 13.1076 81.5535 13.1076C80.7049 13.1076 80.0551 13.2546 79.0455 13.5966L79.3369 33.121C79.6953 33.2679 80.5402 33.3654 81.1444 33.3654C84.6125 33.3654 87.1205 28.4634 87.1205 22.2112M94.5622 21.8312C94.5622 29.8593 89.4955 35.0374 80.8999 35.0374C77.8384 35.0374 74.6629 34.5485 71.9117 33.9139C72.1561 30.6902 72.1561 10.725 71.9117 6.96303C71.6672 5.00857 71.1137 4.0801 69.5987 3.88503L68.5892 3.7875V2.89197L79.1912 0.9375C79.1405 2.58417 79.0443 6.96303 79.0443 12.0918C80.9012 11.1633 82.6099 10.6262 84.9216 10.6262C90.4417 10.6262 94.5483 15.3167 94.5483 21.8299M67.5683 17.47C64.2952 15.3205 60.7789 16.249 60.0772 17.47C59.7681 21.232 59.8327 27.0131 60.1279 29.9923C60.2748 31.9468 60.8283 32.7764 62.342 32.9234L64.3433 33.1184V34.3889H49.3675V33.1184L50.524 32.9234C51.9731 32.7764 52.4785 31.948 52.576 29.9923C52.9345 26.8168 53.032 20.1566 52.576 16.4922C52.4785 14.392 51.9731 13.6092 50.524 13.4142L49.3675 13.2672V12.3882L60.0658 10.3362L59.9189 15.8082C62.4269 10.1411 67.4099 9.4571 70.113 10.972L67.5683 17.47ZM32.4601 22.714C32.4601 28.6902 34.0725 33.5757 37.3291 33.5757C40.8467 33.5757 41.8562 28.7877 41.8562 22.714C41.8562 16.6404 40.2931 11.9018 36.9871 11.9018C33.4405 11.9018 32.4601 16.5428 32.4601 22.714ZM49.4283 22.6165C49.4283 29.4717 44.9013 35.0298 36.825 35.0298C28.8779 35.0298 24.8727 29.7377 24.8727 22.8002C24.8727 15.9931 29.3998 10.326 37.4761 10.326C45.4231 10.326 49.4283 15.6511 49.4283 22.6038M28.6297 10.8137L26.983 11.3026C25.5821 6.49817 23.107 3.76343 18.8409 3.76343H13.2713C12.9623 6.95543 12.8153 11.8891 12.9623 17.2154L16.6736 17.0204C19.1816 17.0204 20.2393 15.2128 20.8536 12.587H22.2545V23.6932H20.8295C20.2266 21.0078 19.1829 19.1838 16.6495 19.0356L12.9382 18.985C12.9382 22.942 12.9889 26.3291 13.2473 28.3811C13.4917 31.3122 14.3062 32.6472 16.4557 32.9246L18.4748 33.1197V34.3902H0.296875V33.1197L1.81181 32.9246C3.91194 32.6333 4.77581 31.3122 5.02028 28.3811C5.42561 23.5931 5.52694 13.3673 5.02028 7.68377C4.77581 4.64377 3.91321 3.4341 1.81181 3.18963L0.296875 2.94517V1.62783H28.5942L28.6297 10.8137Z" fill="#33629A"/>
</svg>
