<svg width="1512" height="978" viewBox="0 0 1512 978" fill="none" xmlns="http://www.w3.org/2000/svg">
<mask id="mask0_83_30013" style="mask-type:alpha" maskUnits="userSpaceOnUse" x="0" y="0" width="1512" height="978">
<rect width="1512" height="978" fill="#F0F7F8"/>
</mask>
<g mask="url(#mask0_83_30013)">
<mask id="path-2-inside-1_83_30013" fill="white">
<path d="M-24 0H36V60H-24V0Z"/>
<path d="M576 0H636V60H576V0Z"/>
<path d="M36 0H96V60H36V0Z"/>
<path d="M636 0H696V60H636V0Z"/>
<path d="M96 0H156V60H96V0Z"/>
<path d="M696 0H756V60H696V0Z"/>
<path d="M156 0H216V60H156V0Z"/>
<path d="M756 0H816V60H756V0Z"/>
<path d="M216 0H276V60H216V0Z"/>
<path d="M816 0H876V60H816V0Z"/>
<path d="M1176 0H1236V60H1176V0Z"/>
<path d="M276 0H336V60H276V0Z"/>
<path d="M876 0H936V60H876V0Z"/>
<path d="M1236 0H1296V60H1236V0Z"/>
<path d="M336 0H396V60H336V0Z"/>
<path d="M936 0H996V60H936V0Z"/>
<path d="M1296 0H1356V60H1296V0Z"/>
<path d="M396 0H456V60H396V0Z"/>
<path d="M996 0H1056V60H996V0Z"/>
<path d="M1356 0H1416V60H1356V0Z"/>
<path d="M456 0H516V60H456V0Z"/>
<path d="M1056 0H1116V60H1056V0Z"/>
<path d="M1416 0H1476V60H1416V0Z"/>
<path d="M516 0H576V60H516V0Z"/>
<path d="M1116 0H1176V60H1116V0Z"/>
<path d="M1476 0H1536V60H1476V0Z"/>
<path d="M-24 60H36V120H-24V60Z"/>
<path d="M576 60H636V120H576V60Z"/>
<path d="M36 60H96V120H36V60Z"/>
<path d="M636 60H696V120H636V60Z"/>
<path d="M96 60H156V120H96V60Z"/>
<path d="M696 60H756V120H696V60Z"/>
<path d="M156 60H216V120H156V60Z"/>
<path d="M756 60H816V120H756V60Z"/>
<path d="M216 60H276V120H216V60Z"/>
<path d="M816 60H876V120H816V60Z"/>
<path d="M1176 60H1236V120H1176V60Z"/>
<path d="M276 60H336V120H276V60Z"/>
<path d="M876 60H936V120H876V60Z"/>
<path d="M1236 60H1296V120H1236V60Z"/>
<path d="M336 60H396V120H336V60Z"/>
<path d="M936 60H996V120H936V60Z"/>
<path d="M1296 60H1356V120H1296V60Z"/>
<path d="M396 60H456V120H396V60Z"/>
<path d="M996 60H1056V120H996V60Z"/>
<path d="M1356 60H1416V120H1356V60Z"/>
<path d="M456 60H516V120H456V60Z"/>
<path d="M1056 60H1116V120H1056V60Z"/>
<path d="M1416 60H1476V120H1416V60Z"/>
<path d="M516 60H576V120H516V60Z"/>
<path d="M1116 60H1176V120H1116V60Z"/>
<path d="M1476 60H1536V120H1476V60Z"/>
<path d="M-24 120H36V180H-24V120Z"/>
<path d="M576 120H636V180H576V120Z"/>
<path d="M36 120H96V180H36V120Z"/>
<path d="M636 120H696V180H636V120Z"/>
<path d="M96 120H156V180H96V120Z"/>
<path d="M696 120H756V180H696V120Z"/>
<path d="M156 120H216V180H156V120Z"/>
<path d="M756 120H816V180H756V120Z"/>
<path d="M216 120H276V180H216V120Z"/>
<path d="M816 120H876V180H816V120Z"/>
<path d="M1176 120H1236V180H1176V120Z"/>
<path d="M276 120H336V180H276V120Z"/>
<path d="M876 120H936V180H876V120Z"/>
<path d="M1236 120H1296V180H1236V120Z"/>
<path d="M336 120H396V180H336V120Z"/>
<path d="M936 120H996V180H936V120Z"/>
<path d="M1296 120H1356V180H1296V120Z"/>
<path d="M396 120H456V180H396V120Z"/>
<path d="M996 120H1056V180H996V120Z"/>
<path d="M1356 120H1416V180H1356V120Z"/>
<path d="M456 120H516V180H456V120Z"/>
<path d="M1056 120H1116V180H1056V120Z"/>
<path d="M1416 120H1476V180H1416V120Z"/>
<path d="M516 120H576V180H516V120Z"/>
<path d="M1116 120H1176V180H1116V120Z"/>
<path d="M1476 120H1536V180H1476V120Z"/>
<path d="M-24 180H36V240H-24V180Z"/>
<path d="M576 180H636V240H576V180Z"/>
<path d="M36 180H96V240H36V180Z"/>
<path d="M636 180H696V240H636V180Z"/>
<path d="M96 180H156V240H96V180Z"/>
<path d="M696 180H756V240H696V180Z"/>
<path d="M156 180H216V240H156V180Z"/>
<path d="M756 180H816V240H756V180Z"/>
<path d="M216 180H276V240H216V180Z"/>
<path d="M816 180H876V240H816V180Z"/>
<path d="M1176 180H1236V240H1176V180Z"/>
<path d="M276 180H336V240H276V180Z"/>
<path d="M876 180H936V240H876V180Z"/>
<path d="M1236 180H1296V240H1236V180Z"/>
<path d="M336 180H396V240H336V180Z"/>
<path d="M936 180H996V240H936V180Z"/>
<path d="M1296 180H1356V240H1296V180Z"/>
<path d="M396 180H456V240H396V180Z"/>
<path d="M996 180H1056V240H996V180Z"/>
<path d="M1356 180H1416V240H1356V180Z"/>
<path d="M456 180H516V240H456V180Z"/>
<path d="M1056 180H1116V240H1056V180Z"/>
<path d="M1416 180H1476V240H1416V180Z"/>
<path d="M516 180H576V240H516V180Z"/>
<path d="M1116 180H1176V240H1116V180Z"/>
<path d="M1476 180H1536V240H1476V180Z"/>
<path d="M-24 240H36V300H-24V240Z"/>
<path d="M576 240H636V300H576V240Z"/>
<path d="M36 240H96V300H36V240Z"/>
<path d="M636 240H696V300H636V240Z"/>
<path d="M96 240H156V300H96V240Z"/>
<path d="M696 240H756V300H696V240Z"/>
<path d="M156 240H216V300H156V240Z"/>
<path d="M756 240H816V300H756V240Z"/>
<path d="M216 240H276V300H216V240Z"/>
<path d="M816 240H876V300H816V240Z"/>
<path d="M1176 240H1236V300H1176V240Z"/>
<path d="M276 240H336V300H276V240Z"/>
<path d="M876 240H936V300H876V240Z"/>
<path d="M1236 240H1296V300H1236V240Z"/>
<path d="M336 240H396V300H336V240Z"/>
<path d="M936 240H996V300H936V240Z"/>
<path d="M1296 240H1356V300H1296V240Z"/>
<path d="M396 240H456V300H396V240Z"/>
<path d="M996 240H1056V300H996V240Z"/>
<path d="M1356 240H1416V300H1356V240Z"/>
<path d="M456 240H516V300H456V240Z"/>
<path d="M1056 240H1116V300H1056V240Z"/>
<path d="M1416 240H1476V300H1416V240Z"/>
<path d="M516 240H576V300H516V240Z"/>
<path d="M1116 240H1176V300H1116V240Z"/>
<path d="M1476 240H1536V300H1476V240Z"/>
<path d="M-24 300H36V360H-24V300Z"/>
<path d="M576 300H636V360H576V300Z"/>
<path d="M36 300H96V360H36V300Z"/>
<path d="M636 300H696V360H636V300Z"/>
<path d="M96 300H156V360H96V300Z"/>
<path d="M696 300H756V360H696V300Z"/>
<path d="M156 300H216V360H156V300Z"/>
<path d="M756 300H816V360H756V300Z"/>
<path d="M216 300H276V360H216V300Z"/>
<path d="M816 300H876V360H816V300Z"/>
<path d="M1176 300H1236V360H1176V300Z"/>
<path d="M276 300H336V360H276V300Z"/>
<path d="M876 300H936V360H876V300Z"/>
<path d="M1236 300H1296V360H1236V300Z"/>
<path d="M336 300H396V360H336V300Z"/>
<path d="M936 300H996V360H936V300Z"/>
<path d="M1296 300H1356V360H1296V300Z"/>
<path d="M396 300H456V360H396V300Z"/>
<path d="M996 300H1056V360H996V300Z"/>
<path d="M1356 300H1416V360H1356V300Z"/>
<path d="M456 300H516V360H456V300Z"/>
<path d="M1056 300H1116V360H1056V300Z"/>
<path d="M1416 300H1476V360H1416V300Z"/>
<path d="M516 300H576V360H516V300Z"/>
<path d="M1116 300H1176V360H1116V300Z"/>
<path d="M1476 300H1536V360H1476V300Z"/>
<path d="M-24 360H36V420H-24V360Z"/>
<path d="M576 360H636V420H576V360Z"/>
<path d="M36 360H96V420H36V360Z"/>
<path d="M636 360H696V420H636V360Z"/>
<path d="M96 360H156V420H96V360Z"/>
<path d="M696 360H756V420H696V360Z"/>
<path d="M156 360H216V420H156V360Z"/>
<path d="M756 360H816V420H756V360Z"/>
<path d="M216 360H276V420H216V360Z"/>
<path d="M816 360H876V420H816V360Z"/>
<path d="M1176 360H1236V420H1176V360Z"/>
<path d="M276 360H336V420H276V360Z"/>
<path d="M876 360H936V420H876V360Z"/>
<path d="M1236 360H1296V420H1236V360Z"/>
<path d="M336 360H396V420H336V360Z"/>
<path d="M936 360H996V420H936V360Z"/>
<path d="M1296 360H1356V420H1296V360Z"/>
<path d="M396 360H456V420H396V360Z"/>
<path d="M996 360H1056V420H996V360Z"/>
<path d="M1356 360H1416V420H1356V360Z"/>
<path d="M456 360H516V420H456V360Z"/>
<path d="M1056 360H1116V420H1056V360Z"/>
<path d="M1416 360H1476V420H1416V360Z"/>
<path d="M516 360H576V420H516V360Z"/>
<path d="M1116 360H1176V420H1116V360Z"/>
<path d="M1476 360H1536V420H1476V360Z"/>
<path d="M-24 420H36V480H-24V420Z"/>
<path d="M576 420H636V480H576V420Z"/>
<path d="M36 420H96V480H36V420Z"/>
<path d="M636 420H696V480H636V420Z"/>
<path d="M96 420H156V480H96V420Z"/>
<path d="M696 420H756V480H696V420Z"/>
<path d="M156 420H216V480H156V420Z"/>
<path d="M756 420H816V480H756V420Z"/>
<path d="M216 420H276V480H216V420Z"/>
<path d="M816 420H876V480H816V420Z"/>
<path d="M1176 420H1236V480H1176V420Z"/>
<path d="M276 420H336V480H276V420Z"/>
<path d="M876 420H936V480H876V420Z"/>
<path d="M1236 420H1296V480H1236V420Z"/>
<path d="M336 420H396V480H336V420Z"/>
<path d="M936 420H996V480H936V420Z"/>
<path d="M1296 420H1356V480H1296V420Z"/>
<path d="M396 420H456V480H396V420Z"/>
<path d="M996 420H1056V480H996V420Z"/>
<path d="M1356 420H1416V480H1356V420Z"/>
<path d="M456 420H516V480H456V420Z"/>
<path d="M1056 420H1116V480H1056V420Z"/>
<path d="M1416 420H1476V480H1416V420Z"/>
<path d="M516 420H576V480H516V420Z"/>
<path d="M1116 420H1176V480H1116V420Z"/>
<path d="M1476 420H1536V480H1476V420Z"/>
<path d="M-24 480H36V540H-24V480Z"/>
<path d="M576 480H636V540H576V480Z"/>
<path d="M36 480H96V540H36V480Z"/>
<path d="M636 480H696V540H636V480Z"/>
<path d="M96 480H156V540H96V480Z"/>
<path d="M696 480H756V540H696V480Z"/>
<path d="M156 480H216V540H156V480Z"/>
<path d="M756 480H816V540H756V480Z"/>
<path d="M216 480H276V540H216V480Z"/>
<path d="M816 480H876V540H816V480Z"/>
<path d="M1176 480H1236V540H1176V480Z"/>
<path d="M276 480H336V540H276V480Z"/>
<path d="M876 480H936V540H876V480Z"/>
<path d="M1236 480H1296V540H1236V480Z"/>
<path d="M336 480H396V540H336V480Z"/>
<path d="M936 480H996V540H936V480Z"/>
<path d="M1296 480H1356V540H1296V480Z"/>
<path d="M396 480H456V540H396V480Z"/>
<path d="M996 480H1056V540H996V480Z"/>
<path d="M1356 480H1416V540H1356V480Z"/>
<path d="M456 480H516V540H456V480Z"/>
<path d="M1056 480H1116V540H1056V480Z"/>
<path d="M1416 480H1476V540H1416V480Z"/>
<path d="M516 480H576V540H516V480Z"/>
<path d="M1116 480H1176V540H1116V480Z"/>
<path d="M1476 480H1536V540H1476V480Z"/>
<path d="M-24 540H36V600H-24V540Z"/>
<path d="M576 540H636V600H576V540Z"/>
<path d="M36 540H96V600H36V540Z"/>
<path d="M636 540H696V600H636V540Z"/>
<path d="M96 540H156V600H96V540Z"/>
<path d="M696 540H756V600H696V540Z"/>
<path d="M156 540H216V600H156V540Z"/>
<path d="M756 540H816V600H756V540Z"/>
<path d="M216 540H276V600H216V540Z"/>
<path d="M816 540H876V600H816V540Z"/>
<path d="M1176 540H1236V600H1176V540Z"/>
<path d="M276 540H336V600H276V540Z"/>
<path d="M876 540H936V600H876V540Z"/>
<path d="M1236 540H1296V600H1236V540Z"/>
<path d="M336 540H396V600H336V540Z"/>
<path d="M936 540H996V600H936V540Z"/>
<path d="M1296 540H1356V600H1296V540Z"/>
<path d="M396 540H456V600H396V540Z"/>
<path d="M996 540H1056V600H996V540Z"/>
<path d="M1356 540H1416V600H1356V540Z"/>
<path d="M456 540H516V600H456V540Z"/>
<path d="M1056 540H1116V600H1056V540Z"/>
<path d="M1416 540H1476V600H1416V540Z"/>
<path d="M516 540H576V600H516V540Z"/>
<path d="M1116 540H1176V600H1116V540Z"/>
<path d="M1476 540H1536V600H1476V540Z"/>
</mask>
<path d="M35.5 0V60H36.5V0H35.5ZM36 59.5H-24V60.5H36V59.5ZM635.5 0V60H636.5V0H635.5ZM636 59.5H576V60.5H636V59.5ZM576.5 60V0H575.5V60H576.5ZM95.5 0V60H96.5V0H95.5ZM96 59.5H36V60.5H96V59.5ZM695.5 0V60H696.5V0H695.5ZM696 59.5H636V60.5H696V59.5ZM155.5 0V60H156.5V0H155.5ZM156 59.5H96V60.5H156V59.5ZM755.5 0V60H756.5V0H755.5ZM756 59.5H696V60.5H756V59.5ZM215.5 0V60H216.5V0H215.5ZM216 59.5H156V60.5H216V59.5ZM815.5 0V60H816.5V0H815.5ZM816 59.5H756V60.5H816V59.5ZM275.5 0V60H276.5V0H275.5ZM276 59.5H216V60.5H276V59.5ZM875.5 0V60H876.5V0H875.5ZM876 59.5H816V60.5H876V59.5ZM1235.5 0V60H1236.5V0H1235.5ZM1236 59.5H1176V60.5H1236V59.5ZM1176.5 60V0H1175.5V60H1176.5ZM335.5 0V60H336.5V0H335.5ZM336 59.5H276V60.5H336V59.5ZM935.5 0V60H936.5V0H935.5ZM936 59.5H876V60.5H936V59.5ZM1295.5 0V60H1296.5V0H1295.5ZM1296 59.5H1236V60.5H1296V59.5ZM395.5 0V60H396.5V0H395.5ZM396 59.5H336V60.5H396V59.5ZM995.5 0V60H996.5V0H995.5ZM996 59.5H936V60.5H996V59.5ZM1355.5 0V60H1356.5V0H1355.5ZM1356 59.5H1296V60.5H1356V59.5ZM455.5 0V60H456.5V0H455.5ZM456 59.5H396V60.5H456V59.5ZM1055.5 0V60H1056.5V0H1055.5ZM1056 59.5H996V60.5H1056V59.5ZM1415.5 0V60H1416.5V0H1415.5ZM1416 59.5H1356V60.5H1416V59.5ZM515.5 0V60H516.5V0H515.5ZM516 59.5H456V60.5H516V59.5ZM1115.5 0V60H1116.5V0H1115.5ZM1116 59.5H1056V60.5H1116V59.5ZM1475.5 0V60H1476.5V0H1475.5ZM1476 59.5H1416V60.5H1476V59.5ZM576 59.5H516V60.5H576V59.5ZM1176 59.5H1116V60.5H1176V59.5ZM1536 59.5H1476V60.5H1536V59.5ZM35.5 60V120H36.5V60H35.5ZM36 119.5H-24V120.5H36V119.5ZM635.5 60V120H636.5V60H635.5ZM636 119.5H576V120.5H636V119.5ZM576.5 120V60H575.5V120H576.5ZM95.5 60V120H96.5V60H95.5ZM96 119.5H36V120.5H96V119.5ZM695.5 60V120H696.5V60H695.5ZM696 119.5H636V120.5H696V119.5ZM155.5 60V120H156.5V60H155.5ZM156 119.5H96V120.5H156V119.5ZM755.5 60V120H756.5V60H755.5ZM756 119.5H696V120.5H756V119.5ZM215.5 60V120H216.5V60H215.5ZM216 119.5H156V120.5H216V119.5ZM815.5 60V120H816.5V60H815.5ZM816 119.5H756V120.5H816V119.5ZM275.5 60V120H276.5V60H275.5ZM276 119.5H216V120.5H276V119.5ZM875.5 60V120H876.5V60H875.5ZM876 119.5H816V120.5H876V119.5ZM1235.5 60V120H1236.5V60H1235.5ZM1236 119.5H1176V120.5H1236V119.5ZM1176.5 120V60H1175.5V120H1176.5ZM335.5 60V120H336.5V60H335.5ZM336 119.5H276V120.5H336V119.5ZM935.5 60V120H936.5V60H935.5ZM936 119.5H876V120.5H936V119.5ZM1295.5 60V120H1296.5V60H1295.5ZM1296 119.5H1236V120.5H1296V119.5ZM395.5 60V120H396.5V60H395.5ZM396 119.5H336V120.5H396V119.5ZM995.5 60V120H996.5V60H995.5ZM996 119.5H936V120.5H996V119.5ZM1355.5 60V120H1356.5V60H1355.5ZM1356 119.5H1296V120.5H1356V119.5ZM455.5 60V120H456.5V60H455.5ZM456 119.5H396V120.5H456V119.5ZM1055.5 60V120H1056.5V60H1055.5ZM1056 119.5H996V120.5H1056V119.5ZM1415.5 60V120H1416.5V60H1415.5ZM1416 119.5H1356V120.5H1416V119.5ZM515.5 60V120H516.5V60H515.5ZM516 119.5H456V120.5H516V119.5ZM1115.5 60V120H1116.5V60H1115.5ZM1116 119.5H1056V120.5H1116V119.5ZM1475.5 60V120H1476.5V60H1475.5ZM1476 119.5H1416V120.5H1476V119.5ZM576 119.5H516V120.5H576V119.5ZM1176 119.5H1116V120.5H1176V119.5ZM1536 119.5H1476V120.5H1536V119.5ZM35.5 120V180H36.5V120H35.5ZM36 179.5H-24V180.5H36V179.5ZM635.5 120V180H636.5V120H635.5ZM636 179.5H576V180.5H636V179.5ZM576.5 180V120H575.5V180H576.5ZM95.5 120V180H96.5V120H95.5ZM96 179.5H36V180.5H96V179.5ZM695.5 120V180H696.5V120H695.5ZM696 179.5H636V180.5H696V179.5ZM155.5 120V180H156.5V120H155.5ZM156 179.5H96V180.5H156V179.5ZM755.5 120V180H756.5V120H755.5ZM756 179.5H696V180.5H756V179.5ZM215.5 120V180H216.5V120H215.5ZM216 179.5H156V180.5H216V179.5ZM815.5 120V180H816.5V120H815.5ZM816 179.5H756V180.5H816V179.5ZM275.5 120V180H276.5V120H275.5ZM276 179.5H216V180.5H276V179.5ZM875.5 120V180H876.5V120H875.5ZM876 179.5H816V180.5H876V179.5ZM1235.5 120V180H1236.5V120H1235.5ZM1236 179.5H1176V180.5H1236V179.5ZM1176.5 180V120H1175.5V180H1176.5ZM335.5 120V180H336.5V120H335.5ZM336 179.5H276V180.5H336V179.5ZM935.5 120V180H936.5V120H935.5ZM936 179.5H876V180.5H936V179.5ZM1295.5 120V180H1296.5V120H1295.5ZM1296 179.5H1236V180.5H1296V179.5ZM395.5 120V180H396.5V120H395.5ZM396 179.5H336V180.5H396V179.5ZM995.5 120V180H996.5V120H995.5ZM996 179.5H936V180.5H996V179.5ZM1355.5 120V180H1356.5V120H1355.5ZM1356 179.5H1296V180.5H1356V179.5ZM455.5 120V180H456.5V120H455.5ZM456 179.5H396V180.5H456V179.5ZM1055.5 120V180H1056.5V120H1055.5ZM1056 179.5H996V180.5H1056V179.5ZM1415.5 120V180H1416.5V120H1415.5ZM1416 179.5H1356V180.5H1416V179.5ZM515.5 120V180H516.5V120H515.5ZM516 179.5H456V180.5H516V179.5ZM1115.5 120V180H1116.5V120H1115.5ZM1116 179.5H1056V180.5H1116V179.5ZM1475.5 120V180H1476.5V120H1475.5ZM1476 179.5H1416V180.5H1476V179.5ZM576 179.5H516V180.5H576V179.5ZM1176 179.5H1116V180.5H1176V179.5ZM1536 179.5H1476V180.5H1536V179.5ZM35.5 180V240H36.5V180H35.5ZM36 239.5H-24V240.5H36V239.5ZM635.5 180V240H636.5V180H635.5ZM636 239.5H576V240.5H636V239.5ZM576.5 240V180H575.5V240H576.5ZM95.5 180V240H96.5V180H95.5ZM96 239.5H36V240.5H96V239.5ZM695.5 180V240H696.5V180H695.5ZM696 239.5H636V240.5H696V239.5ZM155.5 180V240H156.5V180H155.5ZM156 239.5H96V240.5H156V239.5ZM755.5 180V240H756.5V180H755.5ZM756 239.5H696V240.5H756V239.5ZM215.5 180V240H216.5V180H215.5ZM216 239.5H156V240.5H216V239.5ZM815.5 180V240H816.5V180H815.5ZM816 239.5H756V240.5H816V239.5ZM275.5 180V240H276.5V180H275.5ZM276 239.5H216V240.5H276V239.5ZM875.5 180V240H876.5V180H875.5ZM876 239.5H816V240.5H876V239.5ZM1235.5 180V240H1236.5V180H1235.5ZM1236 239.5H1176V240.5H1236V239.5ZM1176.5 240V180H1175.5V240H1176.5ZM335.5 180V240H336.5V180H335.5ZM336 239.5H276V240.5H336V239.5ZM935.5 180V240H936.5V180H935.5ZM936 239.5H876V240.5H936V239.5ZM1295.5 180V240H1296.5V180H1295.5ZM1296 239.5H1236V240.5H1296V239.5ZM395.5 180V240H396.5V180H395.5ZM396 239.5H336V240.5H396V239.5ZM995.5 180V240H996.5V180H995.5ZM996 239.5H936V240.5H996V239.5ZM1355.5 180V240H1356.5V180H1355.5ZM1356 239.5H1296V240.5H1356V239.5ZM455.5 180V240H456.5V180H455.5ZM456 239.5H396V240.5H456V239.5ZM1055.5 180V240H1056.5V180H1055.5ZM1056 239.5H996V240.5H1056V239.5ZM1415.5 180V240H1416.5V180H1415.5ZM1416 239.5H1356V240.5H1416V239.5ZM515.5 180V240H516.5V180H515.5ZM516 239.5H456V240.5H516V239.5ZM1115.5 180V240H1116.5V180H1115.5ZM1116 239.5H1056V240.5H1116V239.5ZM1475.5 180V240H1476.5V180H1475.5ZM1476 239.5H1416V240.5H1476V239.5ZM576 239.5H516V240.5H576V239.5ZM1176 239.5H1116V240.5H1176V239.5ZM1536 239.5H1476V240.5H1536V239.5ZM35.5 240V300H36.5V240H35.5ZM36 299.5H-24V300.5H36V299.5ZM635.5 240V300H636.5V240H635.5ZM636 299.5H576V300.5H636V299.5ZM576.5 300V240H575.5V300H576.5ZM95.5 240V300H96.5V240H95.5ZM96 299.5H36V300.5H96V299.5ZM695.5 240V300H696.5V240H695.5ZM696 299.5H636V300.5H696V299.5ZM155.5 240V300H156.5V240H155.5ZM156 299.5H96V300.5H156V299.5ZM755.5 240V300H756.5V240H755.5ZM756 299.5H696V300.5H756V299.5ZM215.5 240V300H216.5V240H215.5ZM216 299.5H156V300.5H216V299.5ZM815.5 240V300H816.5V240H815.5ZM816 299.5H756V300.5H816V299.5ZM275.5 240V300H276.5V240H275.5ZM276 299.5H216V300.5H276V299.5ZM875.5 240V300H876.5V240H875.5ZM876 299.5H816V300.5H876V299.5ZM1235.5 240V300H1236.5V240H1235.5ZM1236 299.5H1176V300.5H1236V299.5ZM1176.5 300V240H1175.5V300H1176.5ZM335.5 240V300H336.5V240H335.5ZM336 299.5H276V300.5H336V299.5ZM935.5 240V300H936.5V240H935.5ZM936 299.5H876V300.5H936V299.5ZM1295.5 240V300H1296.5V240H1295.5ZM1296 299.5H1236V300.5H1296V299.5ZM395.5 240V300H396.5V240H395.5ZM396 299.5H336V300.5H396V299.5ZM995.5 240V300H996.5V240H995.5ZM996 299.5H936V300.5H996V299.5ZM1355.5 240V300H1356.5V240H1355.5ZM1356 299.5H1296V300.5H1356V299.5ZM455.5 240V300H456.5V240H455.5ZM456 299.5H396V300.5H456V299.5ZM1055.5 240V300H1056.5V240H1055.5ZM1056 299.5H996V300.5H1056V299.5ZM1415.5 240V300H1416.5V240H1415.5ZM1416 299.5H1356V300.5H1416V299.5ZM515.5 240V300H516.5V240H515.5ZM516 299.5H456V300.5H516V299.5ZM1115.5 240V300H1116.5V240H1115.5ZM1116 299.5H1056V300.5H1116V299.5ZM1475.5 240V300H1476.5V240H1475.5ZM1476 299.5H1416V300.5H1476V299.5ZM576 299.5H516V300.5H576V299.5ZM1176 299.5H1116V300.5H1176V299.5ZM1536 299.5H1476V300.5H1536V299.5ZM35.5 300V360H36.5V300H35.5ZM36 359.5H-24V360.5H36V359.5ZM635.5 300V360H636.5V300H635.5ZM636 359.5H576V360.5H636V359.5ZM576.5 360V300H575.5V360H576.5ZM95.5 300V360H96.5V300H95.5ZM96 359.5H36V360.5H96V359.5ZM695.5 300V360H696.5V300H695.5ZM696 359.5H636V360.5H696V359.5ZM155.5 300V360H156.5V300H155.5ZM156 359.5H96V360.5H156V359.5ZM755.5 300V360H756.5V300H755.5ZM756 359.5H696V360.5H756V359.5ZM215.5 300V360H216.5V300H215.5ZM216 359.5H156V360.5H216V359.5ZM815.5 300V360H816.5V300H815.5ZM816 359.5H756V360.5H816V359.5ZM275.5 300V360H276.5V300H275.5ZM276 359.5H216V360.5H276V359.5ZM875.5 300V360H876.5V300H875.5ZM876 359.5H816V360.5H876V359.5ZM1235.5 300V360H1236.5V300H1235.5ZM1236 359.5H1176V360.5H1236V359.5ZM1176.5 360V300H1175.5V360H1176.5ZM335.5 300V360H336.5V300H335.5ZM336 359.5H276V360.5H336V359.5ZM935.5 300V360H936.5V300H935.5ZM936 359.5H876V360.5H936V359.5ZM1295.5 300V360H1296.5V300H1295.5ZM1296 359.5H1236V360.5H1296V359.5ZM395.5 300V360H396.5V300H395.5ZM396 359.5H336V360.5H396V359.5ZM995.5 300V360H996.5V300H995.5ZM996 359.5H936V360.5H996V359.5ZM1355.5 300V360H1356.5V300H1355.5ZM1356 359.5H1296V360.5H1356V359.5ZM455.5 300V360H456.5V300H455.5ZM456 359.5H396V360.5H456V359.5ZM1055.5 300V360H1056.5V300H1055.5ZM1056 359.5H996V360.5H1056V359.5ZM1415.5 300V360H1416.5V300H1415.5ZM1416 359.5H1356V360.5H1416V359.5ZM515.5 300V360H516.5V300H515.5ZM516 359.5H456V360.5H516V359.5ZM1115.5 300V360H1116.5V300H1115.5ZM1116 359.5H1056V360.5H1116V359.5ZM1475.5 300V360H1476.5V300H1475.5ZM1476 359.5H1416V360.5H1476V359.5ZM576 359.5H516V360.5H576V359.5ZM1176 359.5H1116V360.5H1176V359.5ZM1536 359.5H1476V360.5H1536V359.5ZM35.5 360V420H36.5V360H35.5ZM36 419.5H-24V420.5H36V419.5ZM635.5 360V420H636.5V360H635.5ZM636 419.5H576V420.5H636V419.5ZM576.5 420V360H575.5V420H576.5ZM95.5 360V420H96.5V360H95.5ZM96 419.5H36V420.5H96V419.5ZM695.5 360V420H696.5V360H695.5ZM696 419.5H636V420.5H696V419.5ZM155.5 360V420H156.5V360H155.5ZM156 419.5H96V420.5H156V419.5ZM755.5 360V420H756.5V360H755.5ZM756 419.5H696V420.5H756V419.5ZM215.5 360V420H216.5V360H215.5ZM216 419.5H156V420.5H216V419.5ZM815.5 360V420H816.5V360H815.5ZM816 419.5H756V420.5H816V419.5ZM275.5 360V420H276.5V360H275.5ZM276 419.5H216V420.5H276V419.5ZM875.5 360V420H876.5V360H875.5ZM876 419.5H816V420.5H876V419.5ZM1235.5 360V420H1236.5V360H1235.5ZM1236 419.5H1176V420.5H1236V419.5ZM1176.5 420V360H1175.5V420H1176.5ZM335.5 360V420H336.5V360H335.5ZM336 419.5H276V420.5H336V419.5ZM935.5 360V420H936.5V360H935.5ZM936 419.5H876V420.5H936V419.5ZM1295.5 360V420H1296.5V360H1295.5ZM1296 419.5H1236V420.5H1296V419.5ZM395.5 360V420H396.5V360H395.5ZM396 419.5H336V420.5H396V419.5ZM995.5 360V420H996.5V360H995.5ZM996 419.5H936V420.5H996V419.5ZM1355.5 360V420H1356.5V360H1355.5ZM1356 419.5H1296V420.5H1356V419.5ZM455.5 360V420H456.5V360H455.5ZM456 419.5H396V420.5H456V419.5ZM1055.5 360V420H1056.5V360H1055.5ZM1056 419.5H996V420.5H1056V419.5ZM1415.5 360V420H1416.5V360H1415.5ZM1416 419.5H1356V420.5H1416V419.5ZM515.5 360V420H516.5V360H515.5ZM516 419.5H456V420.5H516V419.5ZM1115.5 360V420H1116.5V360H1115.5ZM1116 419.5H1056V420.5H1116V419.5ZM1475.5 360V420H1476.5V360H1475.5ZM1476 419.5H1416V420.5H1476V419.5ZM576 419.5H516V420.5H576V419.5ZM1176 419.5H1116V420.5H1176V419.5ZM1536 419.5H1476V420.5H1536V419.5ZM35.5 420V480H36.5V420H35.5ZM36 479.5H-24V480.5H36V479.5ZM635.5 420V480H636.5V420H635.5ZM636 479.5H576V480.5H636V479.5ZM576.5 480V420H575.5V480H576.5ZM95.5 420V480H96.5V420H95.5ZM96 479.5H36V480.5H96V479.5ZM695.5 420V480H696.5V420H695.5ZM696 479.5H636V480.5H696V479.5ZM155.5 420V480H156.5V420H155.5ZM156 479.5H96V480.5H156V479.5ZM755.5 420V480H756.5V420H755.5ZM756 479.5H696V480.5H756V479.5ZM215.5 420V480H216.5V420H215.5ZM216 479.5H156V480.5H216V479.5ZM815.5 420V480H816.5V420H815.5ZM816 479.5H756V480.5H816V479.5ZM275.5 420V480H276.5V420H275.5ZM276 479.5H216V480.5H276V479.5ZM875.5 420V480H876.5V420H875.5ZM876 479.5H816V480.5H876V479.5ZM1235.5 420V480H1236.5V420H1235.5ZM1236 479.5H1176V480.5H1236V479.5ZM1176.5 480V420H1175.5V480H1176.5ZM335.5 420V480H336.5V420H335.5ZM336 479.5H276V480.5H336V479.5ZM935.5 420V480H936.5V420H935.5ZM936 479.5H876V480.5H936V479.5ZM1295.5 420V480H1296.5V420H1295.5ZM1296 479.5H1236V480.5H1296V479.5ZM395.5 420V480H396.5V420H395.5ZM396 479.5H336V480.5H396V479.5ZM995.5 420V480H996.5V420H995.5ZM996 479.5H936V480.5H996V479.5ZM1355.5 420V480H1356.5V420H1355.5ZM1356 479.5H1296V480.5H1356V479.5ZM455.5 420V480H456.5V420H455.5ZM456 479.5H396V480.5H456V479.5ZM1055.5 420V480H1056.5V420H1055.5ZM1056 479.5H996V480.5H1056V479.5ZM1415.5 420V480H1416.5V420H1415.5ZM1416 479.5H1356V480.5H1416V479.5ZM515.5 420V480H516.5V420H515.5ZM516 479.5H456V480.5H516V479.5ZM1115.5 420V480H1116.5V420H1115.5ZM1116 479.5H1056V480.5H1116V479.5ZM1475.5 420V480H1476.5V420H1475.5ZM1476 479.5H1416V480.5H1476V479.5ZM576 479.5H516V480.5H576V479.5ZM1176 479.5H1116V480.5H1176V479.5ZM1536 479.5H1476V480.5H1536V479.5ZM35.5 480V540H36.5V480H35.5ZM36 539.5H-24V540.5H36V539.5ZM635.5 480V540H636.5V480H635.5ZM636 539.5H576V540.5H636V539.5ZM576.5 540V480H575.5V540H576.5ZM95.5 480V540H96.5V480H95.5ZM96 539.5H36V540.5H96V539.5ZM695.5 480V540H696.5V480H695.5ZM696 539.5H636V540.5H696V539.5ZM155.5 480V540H156.5V480H155.5ZM156 539.5H96V540.5H156V539.5ZM755.5 480V540H756.5V480H755.5ZM756 539.5H696V540.5H756V539.5ZM215.5 480V540H216.5V480H215.5ZM216 539.5H156V540.5H216V539.5ZM815.5 480V540H816.5V480H815.5ZM816 539.5H756V540.5H816V539.5ZM275.5 480V540H276.5V480H275.5ZM276 539.5H216V540.5H276V539.5ZM875.5 480V540H876.5V480H875.5ZM876 539.5H816V540.5H876V539.5ZM1235.5 480V540H1236.5V480H1235.5ZM1236 539.5H1176V540.5H1236V539.5ZM1176.5 540V480H1175.5V540H1176.5ZM335.5 480V540H336.5V480H335.5ZM336 539.5H276V540.5H336V539.5ZM935.5 480V540H936.5V480H935.5ZM936 539.5H876V540.5H936V539.5ZM1295.5 480V540H1296.5V480H1295.5ZM1296 539.5H1236V540.5H1296V539.5ZM395.5 480V540H396.5V480H395.5ZM396 539.5H336V540.5H396V539.5ZM995.5 480V540H996.5V480H995.5ZM996 539.5H936V540.5H996V539.5ZM1355.5 480V540H1356.5V480H1355.5ZM1356 539.5H1296V540.5H1356V539.5ZM455.5 480V540H456.5V480H455.5ZM456 539.5H396V540.5H456V539.5ZM1055.5 480V540H1056.5V480H1055.5ZM1056 539.5H996V540.5H1056V539.5ZM1415.5 480V540H1416.5V480H1415.5ZM1416 539.5H1356V540.5H1416V539.5ZM515.5 480V540H516.5V480H515.5ZM516 539.5H456V540.5H516V539.5ZM1115.5 480V540H1116.5V480H1115.5ZM1116 539.5H1056V540.5H1116V539.5ZM1475.5 480V540H1476.5V480H1475.5ZM1476 539.5H1416V540.5H1476V539.5ZM576 539.5H516V540.5H576V539.5ZM1176 539.5H1116V540.5H1176V539.5ZM1536 539.5H1476V540.5H1536V539.5ZM35.5 540V600H36.5V540H35.5ZM635.5 540V600H636.5V540H635.5ZM576.5 600V540H575.5V600H576.5ZM95.5 540V600H96.5V540H95.5ZM695.5 540V600H696.5V540H695.5ZM155.5 540V600H156.5V540H155.5ZM755.5 540V600H756.5V540H755.5ZM215.5 540V600H216.5V540H215.5ZM815.5 540V600H816.5V540H815.5ZM275.5 540V600H276.5V540H275.5ZM875.5 540V600H876.5V540H875.5ZM1235.5 540V600H1236.5V540H1235.5ZM1176.5 600V540H1175.5V600H1176.5ZM335.5 540V600H336.5V540H335.5ZM935.5 540V600H936.5V540H935.5ZM1295.5 540V600H1296.5V540H1295.5ZM395.5 540V600H396.5V540H395.5ZM995.5 540V600H996.5V540H995.5ZM1355.5 540V600H1356.5V540H1355.5ZM455.5 540V600H456.5V540H455.5ZM1055.5 540V600H1056.5V540H1055.5ZM1415.5 540V600H1416.5V540H1415.5ZM515.5 540V600H516.5V540H515.5ZM1115.5 540V600H1116.5V540H1115.5ZM1475.5 540V600H1476.5V540H1475.5ZM-24 0V-1H-25V0H-24ZM1536 0H1537V-1H1536V0ZM-24 600H-25V601H-24V600ZM1536 600V601H1537V600H1536ZM-24 1H36V-1H-24V1ZM-23 60V0H-25V60H-23ZM576 1H636V-1H576V1ZM36 1H96V-1H36V1ZM636 1H696V-1H636V1ZM96 1H156V-1H96V1ZM696 1H756V-1H696V1ZM156 1H216V-1H156V1ZM756 1H816V-1H756V1ZM216 1H276V-1H216V1ZM816 1H876V-1H816V1ZM1176 1H1236V-1H1176V1ZM276 1H336V-1H276V1ZM876 1H936V-1H876V1ZM1236 1H1296V-1H1236V1ZM336 1H396V-1H336V1ZM936 1H996V-1H936V1ZM1296 1H1356V-1H1296V1ZM396 1H456V-1H396V1ZM996 1H1056V-1H996V1ZM1356 1H1416V-1H1356V1ZM456 1H516V-1H456V1ZM1056 1H1116V-1H1056V1ZM1416 1H1476V-1H1416V1ZM516 1H576V-1H516V1ZM1116 1H1176V-1H1116V1ZM1476 1H1536V-1H1476V1ZM1535 0V60H1537V0H1535ZM-23 120V60H-25V120H-23ZM1535 60V120H1537V60H1535ZM-23 180V120H-25V180H-23ZM1535 120V180H1537V120H1535ZM-23 240V180H-25V240H-23ZM1535 180V240H1537V180H1535ZM-23 300V240H-25V300H-23ZM1535 240V300H1537V240H1535ZM-23 360V300H-25V360H-23ZM1535 300V360H1537V300H1535ZM-23 420V360H-25V420H-23ZM1535 360V420H1537V360H1535ZM-23 480V420H-25V480H-23ZM1535 420V480H1537V420H1535ZM-23 540V480H-25V540H-23ZM1535 480V540H1537V480H1535ZM36 599H-24V601H36V599ZM-23 600V540H-25V600H-23ZM636 599H576V601H636V599ZM96 599H36V601H96V599ZM696 599H636V601H696V599ZM156 599H96V601H156V599ZM756 599H696V601H756V599ZM216 599H156V601H216V599ZM816 599H756V601H816V599ZM276 599H216V601H276V599ZM876 599H816V601H876V599ZM1236 599H1176V601H1236V599ZM336 599H276V601H336V599ZM936 599H876V601H936V599ZM1296 599H1236V601H1296V599ZM396 599H336V601H396V599ZM996 599H936V601H996V599ZM1356 599H1296V601H1356V599ZM456 599H396V601H456V599ZM1056 599H996V601H1056V599ZM1416 599H1356V601H1416V599ZM516 599H456V601H516V599ZM1116 599H1056V601H1116V599ZM1476 599H1416V601H1476V599ZM576 599H516V601H576V599ZM1176 599H1116V601H1176V599ZM1535 540V600H1537V540H1535ZM1536 599H1476V601H1536V599Z" fill="url(#paint0_linear_83_30013)" mask="url(#path-2-inside-1_83_30013)"/>
<mask id="path-4-inside-2_83_30013" fill="white">
<path d="M-24 599H36V659H-24V599Z"/>
<path d="M576 599H636V659H576V599Z"/>
<path d="M36 599H96V659H36V599Z"/>
<path d="M636 599H696V659H636V599Z"/>
<path d="M96 599H156V659H96V599Z"/>
<path d="M696 599H756V659H696V599Z"/>
<path d="M156 599H216V659H156V599Z"/>
<path d="M756 599H816V659H756V599Z"/>
<path d="M216 599H276V659H216V599Z"/>
<path d="M816 599H876V659H816V599Z"/>
<path d="M1176 599H1236V659H1176V599Z"/>
<path d="M276 599H336V659H276V599Z"/>
<path d="M876 599H936V659H876V599Z"/>
<path d="M1236 599H1296V659H1236V599Z"/>
<path d="M336 599H396V659H336V599Z"/>
<path d="M936 599H996V659H936V599Z"/>
<path d="M1296 599H1356V659H1296V599Z"/>
<path d="M396 599H456V659H396V599Z"/>
<path d="M996 599H1056V659H996V599Z"/>
<path d="M1356 599H1416V659H1356V599Z"/>
<path d="M456 599H516V659H456V599Z"/>
<path d="M1056 599H1116V659H1056V599Z"/>
<path d="M1416 599H1476V659H1416V599Z"/>
<path d="M516 599H576V659H516V599Z"/>
<path d="M1116 599H1176V659H1116V599Z"/>
<path d="M1476 599H1536V659H1476V599Z"/>
<path d="M-24 659H36V719H-24V659Z"/>
<path d="M576 659H636V719H576V659Z"/>
<path d="M36 659H96V719H36V659Z"/>
<path d="M636 659H696V719H636V659Z"/>
<path d="M96 659H156V719H96V659Z"/>
<path d="M696 659H756V719H696V659Z"/>
<path d="M156 659H216V719H156V659Z"/>
<path d="M756 659H816V719H756V659Z"/>
<path d="M216 659H276V719H216V659Z"/>
<path d="M816 659H876V719H816V659Z"/>
<path d="M1176 659H1236V719H1176V659Z"/>
<path d="M276 659H336V719H276V659Z"/>
<path d="M876 659H936V719H876V659Z"/>
<path d="M1236 659H1296V719H1236V659Z"/>
<path d="M336 659H396V719H336V659Z"/>
<path d="M936 659H996V719H936V659Z"/>
<path d="M1296 659H1356V719H1296V659Z"/>
<path d="M396 659H456V719H396V659Z"/>
<path d="M996 659H1056V719H996V659Z"/>
<path d="M1356 659H1416V719H1356V659Z"/>
<path d="M456 659H516V719H456V659Z"/>
<path d="M1056 659H1116V719H1056V659Z"/>
<path d="M1416 659H1476V719H1416V659Z"/>
<path d="M516 659H576V719H516V659Z"/>
<path d="M1116 659H1176V719H1116V659Z"/>
<path d="M1476 659H1536V719H1476V659Z"/>
<path d="M-24 719H36V779H-24V719Z"/>
<path d="M576 719H636V779H576V719Z"/>
<path d="M36 719H96V779H36V719Z"/>
<path d="M636 719H696V779H636V719Z"/>
<path d="M96 719H156V779H96V719Z"/>
<path d="M696 719H756V779H696V719Z"/>
<path d="M156 719H216V779H156V719Z"/>
<path d="M756 719H816V779H756V719Z"/>
<path d="M216 719H276V779H216V719Z"/>
<path d="M816 719H876V779H816V719Z"/>
<path d="M1176 719H1236V779H1176V719Z"/>
<path d="M276 719H336V779H276V719Z"/>
<path d="M876 719H936V779H876V719Z"/>
<path d="M1236 719H1296V779H1236V719Z"/>
<path d="M336 719H396V779H336V719Z"/>
<path d="M936 719H996V779H936V719Z"/>
<path d="M1296 719H1356V779H1296V719Z"/>
<path d="M396 719H456V779H396V719Z"/>
<path d="M996 719H1056V779H996V719Z"/>
<path d="M1356 719H1416V779H1356V719Z"/>
<path d="M456 719H516V779H456V719Z"/>
<path d="M1056 719H1116V779H1056V719Z"/>
<path d="M1416 719H1476V779H1416V719Z"/>
<path d="M516 719H576V779H516V719Z"/>
<path d="M1116 719H1176V779H1116V719Z"/>
<path d="M1476 719H1536V779H1476V719Z"/>
<path d="M-24 779H36V839H-24V779Z"/>
<path d="M576 779H636V839H576V779Z"/>
<path d="M36 779H96V839H36V779Z"/>
<path d="M636 779H696V839H636V779Z"/>
<path d="M96 779H156V839H96V779Z"/>
<path d="M696 779H756V839H696V779Z"/>
<path d="M156 779H216V839H156V779Z"/>
<path d="M756 779H816V839H756V779Z"/>
<path d="M216 779H276V839H216V779Z"/>
<path d="M816 779H876V839H816V779Z"/>
<path d="M1176 779H1236V839H1176V779Z"/>
<path d="M276 779H336V839H276V779Z"/>
<path d="M876 779H936V839H876V779Z"/>
<path d="M1236 779H1296V839H1236V779Z"/>
<path d="M336 779H396V839H336V779Z"/>
<path d="M936 779H996V839H936V779Z"/>
<path d="M1296 779H1356V839H1296V779Z"/>
<path d="M396 779H456V839H396V779Z"/>
<path d="M996 779H1056V839H996V779Z"/>
<path d="M1356 779H1416V839H1356V779Z"/>
<path d="M456 779H516V839H456V779Z"/>
<path d="M1056 779H1116V839H1056V779Z"/>
<path d="M1416 779H1476V839H1416V779Z"/>
<path d="M516 779H576V839H516V779Z"/>
<path d="M1116 779H1176V839H1116V779Z"/>
<path d="M1476 779H1536V839H1476V779Z"/>
<path d="M-24 839H36V899H-24V839Z"/>
<path d="M576 839H636V899H576V839Z"/>
<path d="M36 839H96V899H36V839Z"/>
<path d="M636 839H696V899H636V839Z"/>
<path d="M96 839H156V899H96V839Z"/>
<path d="M696 839H756V899H696V839Z"/>
<path d="M156 839H216V899H156V839Z"/>
<path d="M756 839H816V899H756V839Z"/>
<path d="M216 839H276V899H216V839Z"/>
<path d="M816 839H876V899H816V839Z"/>
<path d="M1176 839H1236V899H1176V839Z"/>
<path d="M276 839H336V899H276V839Z"/>
<path d="M876 839H936V899H876V839Z"/>
<path d="M1236 839H1296V899H1236V839Z"/>
<path d="M336 839H396V899H336V839Z"/>
<path d="M936 839H996V899H936V839Z"/>
<path d="M1296 839H1356V899H1296V839Z"/>
<path d="M396 839H456V899H396V839Z"/>
<path d="M996 839H1056V899H996V839Z"/>
<path d="M1356 839H1416V899H1356V839Z"/>
<path d="M456 839H516V899H456V839Z"/>
<path d="M1056 839H1116V899H1056V839Z"/>
<path d="M1416 839H1476V899H1416V839Z"/>
<path d="M516 839H576V899H516V839Z"/>
<path d="M1116 839H1176V899H1116V839Z"/>
<path d="M1476 839H1536V899H1476V839Z"/>
<path d="M-24 899H36V959H-24V899Z"/>
<path d="M576 899H636V959H576V899Z"/>
<path d="M36 899H96V959H36V899Z"/>
<path d="M636 899H696V959H636V899Z"/>
<path d="M96 899H156V959H96V899Z"/>
<path d="M696 899H756V959H696V899Z"/>
<path d="M156 899H216V959H156V899Z"/>
<path d="M756 899H816V959H756V899Z"/>
<path d="M216 899H276V959H216V899Z"/>
<path d="M816 899H876V959H816V899Z"/>
<path d="M1176 899H1236V959H1176V899Z"/>
<path d="M276 899H336V959H276V899Z"/>
<path d="M876 899H936V959H876V899Z"/>
<path d="M1236 899H1296V959H1236V899Z"/>
<path d="M336 899H396V959H336V899Z"/>
<path d="M936 899H996V959H936V899Z"/>
<path d="M1296 899H1356V959H1296V899Z"/>
<path d="M396 899H456V959H396V899Z"/>
<path d="M996 899H1056V959H996V899Z"/>
<path d="M1356 899H1416V959H1356V899Z"/>
<path d="M456 899H516V959H456V899Z"/>
<path d="M1056 899H1116V959H1056V899Z"/>
<path d="M1416 899H1476V959H1416V899Z"/>
<path d="M516 899H576V959H516V899Z"/>
<path d="M1116 899H1176V959H1116V899Z"/>
<path d="M1476 899H1536V959H1476V899Z"/>
<path d="M-24 959H36V1019H-24V959Z"/>
<path d="M576 959H636V1019H576V959Z"/>
<path d="M36 959H96V1019H36V959Z"/>
<path d="M636 959H696V1019H636V959Z"/>
<path d="M96 959H156V1019H96V959Z"/>
<path d="M696 959H756V1019H696V959Z"/>
<path d="M156 959H216V1019H156V959Z"/>
<path d="M756 959H816V1019H756V959Z"/>
<path d="M216 959H276V1019H216V959Z"/>
<path d="M816 959H876V1019H816V959Z"/>
<path d="M1176 959H1236V1019H1176V959Z"/>
<path d="M276 959H336V1019H276V959Z"/>
<path d="M876 959H936V1019H876V959Z"/>
<path d="M1236 959H1296V1019H1236V959Z"/>
<path d="M336 959H396V1019H336V959Z"/>
<path d="M936 959H996V1019H936V959Z"/>
<path d="M1296 959H1356V1019H1296V959Z"/>
<path d="M396 959H456V1019H396V959Z"/>
<path d="M996 959H1056V1019H996V959Z"/>
<path d="M1356 959H1416V1019H1356V959Z"/>
<path d="M456 959H516V1019H456V959Z"/>
<path d="M1056 959H1116V1019H1056V959Z"/>
<path d="M1416 959H1476V1019H1416V959Z"/>
<path d="M516 959H576V1019H516V959Z"/>
<path d="M1116 959H1176V1019H1116V959Z"/>
<path d="M1476 959H1536V1019H1476V959Z"/>
<path d="M-24 1019H36V1079H-24V1019Z"/>
<path d="M576 1019H636V1079H576V1019Z"/>
<path d="M36 1019H96V1079H36V1019Z"/>
<path d="M636 1019H696V1079H636V1019Z"/>
<path d="M96 1019H156V1079H96V1019Z"/>
<path d="M696 1019H756V1079H696V1019Z"/>
<path d="M156 1019H216V1079H156V1019Z"/>
<path d="M756 1019H816V1079H756V1019Z"/>
<path d="M216 1019H276V1079H216V1019Z"/>
<path d="M816 1019H876V1079H816V1019Z"/>
<path d="M1176 1019H1236V1079H1176V1019Z"/>
<path d="M276 1019H336V1079H276V1019Z"/>
<path d="M876 1019H936V1079H876V1019Z"/>
<path d="M1236 1019H1296V1079H1236V1019Z"/>
<path d="M336 1019H396V1079H336V1019Z"/>
<path d="M936 1019H996V1079H936V1019Z"/>
<path d="M1296 1019H1356V1079H1296V1019Z"/>
<path d="M396 1019H456V1079H396V1019Z"/>
<path d="M996 1019H1056V1079H996V1019Z"/>
<path d="M1356 1019H1416V1079H1356V1019Z"/>
<path d="M456 1019H516V1079H456V1019Z"/>
<path d="M1056 1019H1116V1079H1056V1019Z"/>
<path d="M1416 1019H1476V1079H1416V1019Z"/>
<path d="M516 1019H576V1079H516V1019Z"/>
<path d="M1116 1019H1176V1079H1116V1019Z"/>
<path d="M1476 1019H1536V1079H1476V1019Z"/>
<path d="M-24 1079H36V1139H-24V1079Z"/>
<path d="M576 1079H636V1139H576V1079Z"/>
<path d="M36 1079H96V1139H36V1079Z"/>
<path d="M636 1079H696V1139H636V1079Z"/>
<path d="M96 1079H156V1139H96V1079Z"/>
<path d="M696 1079H756V1139H696V1079Z"/>
<path d="M156 1079H216V1139H156V1079Z"/>
<path d="M756 1079H816V1139H756V1079Z"/>
<path d="M216 1079H276V1139H216V1079Z"/>
<path d="M816 1079H876V1139H816V1079Z"/>
<path d="M1176 1079H1236V1139H1176V1079Z"/>
<path d="M276 1079H336V1139H276V1079Z"/>
<path d="M876 1079H936V1139H876V1079Z"/>
<path d="M1236 1079H1296V1139H1236V1079Z"/>
<path d="M336 1079H396V1139H336V1079Z"/>
<path d="M936 1079H996V1139H936V1079Z"/>
<path d="M1296 1079H1356V1139H1296V1079Z"/>
<path d="M396 1079H456V1139H396V1079Z"/>
<path d="M996 1079H1056V1139H996V1079Z"/>
<path d="M1356 1079H1416V1139H1356V1079Z"/>
<path d="M456 1079H516V1139H456V1079Z"/>
<path d="M1056 1079H1116V1139H1056V1079Z"/>
<path d="M1416 1079H1476V1139H1416V1079Z"/>
<path d="M516 1079H576V1139H516V1079Z"/>
<path d="M1116 1079H1176V1139H1116V1079Z"/>
<path d="M1476 1079H1536V1139H1476V1079Z"/>
<path d="M-24 1139H36V1199H-24V1139Z"/>
<path d="M576 1139H636V1199H576V1139Z"/>
<path d="M36 1139H96V1199H36V1139Z"/>
<path d="M636 1139H696V1199H636V1139Z"/>
<path d="M96 1139H156V1199H96V1139Z"/>
<path d="M696 1139H756V1199H696V1139Z"/>
<path d="M156 1139H216V1199H156V1139Z"/>
<path d="M756 1139H816V1199H756V1139Z"/>
<path d="M216 1139H276V1199H216V1139Z"/>
<path d="M816 1139H876V1199H816V1139Z"/>
<path d="M1176 1139H1236V1199H1176V1139Z"/>
<path d="M276 1139H336V1199H276V1139Z"/>
<path d="M876 1139H936V1199H876V1139Z"/>
<path d="M1236 1139H1296V1199H1236V1139Z"/>
<path d="M336 1139H396V1199H336V1139Z"/>
<path d="M936 1139H996V1199H936V1139Z"/>
<path d="M1296 1139H1356V1199H1296V1139Z"/>
<path d="M396 1139H456V1199H396V1139Z"/>
<path d="M996 1139H1056V1199H996V1139Z"/>
<path d="M1356 1139H1416V1199H1356V1139Z"/>
<path d="M456 1139H516V1199H456V1139Z"/>
<path d="M1056 1139H1116V1199H1056V1139Z"/>
<path d="M1416 1139H1476V1199H1416V1139Z"/>
<path d="M516 1139H576V1199H516V1139Z"/>
<path d="M1116 1139H1176V1199H1116V1139Z"/>
<path d="M1476 1139H1536V1199H1476V1139Z"/>
</mask>
<path d="M35.5 599V659H36.5V599H35.5ZM36 658.5H-24V659.5H36V658.5ZM635.5 599V659H636.5V599H635.5ZM636 658.5H576V659.5H636V658.5ZM576.5 659V599H575.5V659H576.5ZM95.5 599V659H96.5V599H95.5ZM96 658.5H36V659.5H96V658.5ZM695.5 599V659H696.5V599H695.5ZM696 658.5H636V659.5H696V658.5ZM155.5 599V659H156.5V599H155.5ZM156 658.5H96V659.5H156V658.5ZM755.5 599V659H756.5V599H755.5ZM756 658.5H696V659.5H756V658.5ZM215.5 599V659H216.5V599H215.5ZM216 658.5H156V659.5H216V658.5ZM815.5 599V659H816.5V599H815.5ZM816 658.5H756V659.5H816V658.5ZM275.5 599V659H276.5V599H275.5ZM276 658.5H216V659.5H276V658.5ZM875.5 599V659H876.5V599H875.5ZM876 658.5H816V659.5H876V658.5ZM1235.5 599V659H1236.5V599H1235.5ZM1236 658.5H1176V659.5H1236V658.5ZM1176.5 659V599H1175.5V659H1176.5ZM335.5 599V659H336.5V599H335.5ZM336 658.5H276V659.5H336V658.5ZM935.5 599V659H936.5V599H935.5ZM936 658.5H876V659.5H936V658.5ZM1295.5 599V659H1296.5V599H1295.5ZM1296 658.5H1236V659.5H1296V658.5ZM395.5 599V659H396.5V599H395.5ZM396 658.5H336V659.5H396V658.5ZM995.5 599V659H996.5V599H995.5ZM996 658.5H936V659.5H996V658.5ZM1355.5 599V659H1356.5V599H1355.5ZM1356 658.5H1296V659.5H1356V658.5ZM455.5 599V659H456.5V599H455.5ZM456 658.5H396V659.5H456V658.5ZM1055.5 599V659H1056.5V599H1055.5ZM1056 658.5H996V659.5H1056V658.5ZM1415.5 599V659H1416.5V599H1415.5ZM1416 658.5H1356V659.5H1416V658.5ZM515.5 599V659H516.5V599H515.5ZM516 658.5H456V659.5H516V658.5ZM1115.5 599V659H1116.5V599H1115.5ZM1116 658.5H1056V659.5H1116V658.5ZM1475.5 599V659H1476.5V599H1475.5ZM1476 658.5H1416V659.5H1476V658.5ZM576 658.5H516V659.5H576V658.5ZM1176 658.5H1116V659.5H1176V658.5ZM1536 658.5H1476V659.5H1536V658.5ZM35.5 659V719H36.5V659H35.5ZM36 718.5H-24V719.5H36V718.5ZM635.5 659V719H636.5V659H635.5ZM636 718.5H576V719.5H636V718.5ZM576.5 719V659H575.5V719H576.5ZM95.5 659V719H96.5V659H95.5ZM96 718.5H36V719.5H96V718.5ZM695.5 659V719H696.5V659H695.5ZM696 718.5H636V719.5H696V718.5ZM155.5 659V719H156.5V659H155.5ZM156 718.5H96V719.5H156V718.5ZM755.5 659V719H756.5V659H755.5ZM756 718.5H696V719.5H756V718.5ZM215.5 659V719H216.5V659H215.5ZM216 718.5H156V719.5H216V718.5ZM815.5 659V719H816.5V659H815.5ZM816 718.5H756V719.5H816V718.5ZM275.5 659V719H276.5V659H275.5ZM276 718.5H216V719.5H276V718.5ZM875.5 659V719H876.5V659H875.5ZM876 718.5H816V719.5H876V718.5ZM1235.5 659V719H1236.5V659H1235.5ZM1236 718.5H1176V719.5H1236V718.5ZM1176.5 719V659H1175.5V719H1176.5ZM335.5 659V719H336.5V659H335.5ZM336 718.5H276V719.5H336V718.5ZM935.5 659V719H936.5V659H935.5ZM936 718.5H876V719.5H936V718.5ZM1295.5 659V719H1296.5V659H1295.5ZM1296 718.5H1236V719.5H1296V718.5ZM395.5 659V719H396.5V659H395.5ZM396 718.5H336V719.5H396V718.5ZM995.5 659V719H996.5V659H995.5ZM996 718.5H936V719.5H996V718.5ZM1355.5 659V719H1356.5V659H1355.5ZM1356 718.5H1296V719.5H1356V718.5ZM455.5 659V719H456.5V659H455.5ZM456 718.5H396V719.5H456V718.5ZM1055.5 659V719H1056.5V659H1055.5ZM1056 718.5H996V719.5H1056V718.5ZM1415.5 659V719H1416.5V659H1415.5ZM1416 718.5H1356V719.5H1416V718.5ZM515.5 659V719H516.5V659H515.5ZM516 718.5H456V719.5H516V718.5ZM1115.5 659V719H1116.5V659H1115.5ZM1116 718.5H1056V719.5H1116V718.5ZM1475.5 659V719H1476.5V659H1475.5ZM1476 718.5H1416V719.5H1476V718.5ZM576 718.5H516V719.5H576V718.5ZM1176 718.5H1116V719.5H1176V718.5ZM1536 718.5H1476V719.5H1536V718.5ZM35.5 719V779H36.5V719H35.5ZM36 778.5H-24V779.5H36V778.5ZM635.5 719V779H636.5V719H635.5ZM636 778.5H576V779.5H636V778.5ZM576.5 779V719H575.5V779H576.5ZM95.5 719V779H96.5V719H95.5ZM96 778.5H36V779.5H96V778.5ZM695.5 719V779H696.5V719H695.5ZM696 778.5H636V779.5H696V778.5ZM155.5 719V779H156.5V719H155.5ZM156 778.5H96V779.5H156V778.5ZM755.5 719V779H756.5V719H755.5ZM756 778.5H696V779.5H756V778.5ZM215.5 719V779H216.5V719H215.5ZM216 778.5H156V779.5H216V778.5ZM815.5 719V779H816.5V719H815.5ZM816 778.5H756V779.5H816V778.5ZM275.5 719V779H276.5V719H275.5ZM276 778.5H216V779.5H276V778.5ZM875.5 719V779H876.5V719H875.5ZM876 778.5H816V779.5H876V778.5ZM1235.5 719V779H1236.5V719H1235.5ZM1236 778.5H1176V779.5H1236V778.5ZM1176.5 779V719H1175.5V779H1176.5ZM335.5 719V779H336.5V719H335.5ZM336 778.5H276V779.5H336V778.5ZM935.5 719V779H936.5V719H935.5ZM936 778.5H876V779.5H936V778.5ZM1295.5 719V779H1296.5V719H1295.5ZM1296 778.5H1236V779.5H1296V778.5ZM395.5 719V779H396.5V719H395.5ZM396 778.5H336V779.5H396V778.5ZM995.5 719V779H996.5V719H995.5ZM996 778.5H936V779.5H996V778.5ZM1355.5 719V779H1356.5V719H1355.5ZM1356 778.5H1296V779.5H1356V778.5ZM455.5 719V779H456.5V719H455.5ZM456 778.5H396V779.5H456V778.5ZM1055.5 719V779H1056.5V719H1055.5ZM1056 778.5H996V779.5H1056V778.5ZM1415.5 719V779H1416.5V719H1415.5ZM1416 778.5H1356V779.5H1416V778.5ZM515.5 719V779H516.5V719H515.5ZM516 778.5H456V779.5H516V778.5ZM1115.5 719V779H1116.5V719H1115.5ZM1116 778.5H1056V779.5H1116V778.5ZM1475.5 719V779H1476.5V719H1475.5ZM1476 778.5H1416V779.5H1476V778.5ZM576 778.5H516V779.5H576V778.5ZM1176 778.5H1116V779.5H1176V778.5ZM1536 778.5H1476V779.5H1536V778.5ZM35.5 779V839H36.5V779H35.5ZM36 838.5H-24V839.5H36V838.5ZM635.5 779V839H636.5V779H635.5ZM636 838.5H576V839.5H636V838.5ZM576.5 839V779H575.5V839H576.5ZM95.5 779V839H96.5V779H95.5ZM96 838.5H36V839.5H96V838.5ZM695.5 779V839H696.5V779H695.5ZM696 838.5H636V839.5H696V838.5ZM155.5 779V839H156.5V779H155.5ZM156 838.5H96V839.5H156V838.5ZM755.5 779V839H756.5V779H755.5ZM756 838.5H696V839.5H756V838.5ZM215.5 779V839H216.5V779H215.5ZM216 838.5H156V839.5H216V838.5ZM815.5 779V839H816.5V779H815.5ZM816 838.5H756V839.5H816V838.5ZM275.5 779V839H276.5V779H275.5ZM276 838.5H216V839.5H276V838.5ZM875.5 779V839H876.5V779H875.5ZM876 838.5H816V839.5H876V838.5ZM1235.5 779V839H1236.5V779H1235.5ZM1236 838.5H1176V839.5H1236V838.5ZM1176.5 839V779H1175.5V839H1176.5ZM335.5 779V839H336.5V779H335.5ZM336 838.5H276V839.5H336V838.5ZM935.5 779V839H936.5V779H935.5ZM936 838.5H876V839.5H936V838.5ZM1295.5 779V839H1296.5V779H1295.5ZM1296 838.5H1236V839.5H1296V838.5ZM395.5 779V839H396.5V779H395.5ZM396 838.5H336V839.5H396V838.5ZM995.5 779V839H996.5V779H995.5ZM996 838.5H936V839.5H996V838.5ZM1355.5 779V839H1356.5V779H1355.5ZM1356 838.5H1296V839.5H1356V838.5ZM455.5 779V839H456.5V779H455.5ZM456 838.5H396V839.5H456V838.5ZM1055.5 779V839H1056.5V779H1055.5ZM1056 838.5H996V839.5H1056V838.5ZM1415.5 779V839H1416.5V779H1415.5ZM1416 838.5H1356V839.5H1416V838.5ZM515.5 779V839H516.5V779H515.5ZM516 838.5H456V839.5H516V838.5ZM1115.5 779V839H1116.5V779H1115.5ZM1116 838.5H1056V839.5H1116V838.5ZM1475.5 779V839H1476.5V779H1475.5ZM1476 838.5H1416V839.5H1476V838.5ZM576 838.5H516V839.5H576V838.5ZM1176 838.5H1116V839.5H1176V838.5ZM1536 838.5H1476V839.5H1536V838.5ZM35.5 839V899H36.5V839H35.5ZM36 898.5H-24V899.5H36V898.5ZM635.5 839V899H636.5V839H635.5ZM636 898.5H576V899.5H636V898.5ZM576.5 899V839H575.5V899H576.5ZM95.5 839V899H96.5V839H95.5ZM96 898.5H36V899.5H96V898.5ZM695.5 839V899H696.5V839H695.5ZM696 898.5H636V899.5H696V898.5ZM155.5 839V899H156.5V839H155.5ZM156 898.5H96V899.5H156V898.5ZM755.5 839V899H756.5V839H755.5ZM756 898.5H696V899.5H756V898.5ZM215.5 839V899H216.5V839H215.5ZM216 898.5H156V899.5H216V898.5ZM815.5 839V899H816.5V839H815.5ZM816 898.5H756V899.5H816V898.5ZM275.5 839V899H276.5V839H275.5ZM276 898.5H216V899.5H276V898.5ZM875.5 839V899H876.5V839H875.5ZM876 898.5H816V899.5H876V898.5ZM1235.5 839V899H1236.5V839H1235.5ZM1236 898.5H1176V899.5H1236V898.5ZM1176.5 899V839H1175.5V899H1176.5ZM335.5 839V899H336.5V839H335.5ZM336 898.5H276V899.5H336V898.5ZM935.5 839V899H936.5V839H935.5ZM936 898.5H876V899.5H936V898.5ZM1295.5 839V899H1296.5V839H1295.5ZM1296 898.5H1236V899.5H1296V898.5ZM395.5 839V899H396.5V839H395.5ZM396 898.5H336V899.5H396V898.5ZM995.5 839V899H996.5V839H995.5ZM996 898.5H936V899.5H996V898.5ZM1355.5 839V899H1356.5V839H1355.5ZM1356 898.5H1296V899.5H1356V898.5ZM455.5 839V899H456.5V839H455.5ZM456 898.5H396V899.5H456V898.5ZM1055.5 839V899H1056.5V839H1055.5ZM1056 898.5H996V899.5H1056V898.5ZM1415.5 839V899H1416.5V839H1415.5ZM1416 898.5H1356V899.5H1416V898.5ZM515.5 839V899H516.5V839H515.5ZM516 898.5H456V899.5H516V898.5ZM1115.5 839V899H1116.5V839H1115.5ZM1116 898.5H1056V899.5H1116V898.5ZM1475.5 839V899H1476.5V839H1475.5ZM1476 898.5H1416V899.5H1476V898.5ZM576 898.5H516V899.5H576V898.5ZM1176 898.5H1116V899.5H1176V898.5ZM1536 898.5H1476V899.5H1536V898.5ZM35.5 899V959H36.5V899H35.5ZM36 958.5H-24V959.5H36V958.5ZM635.5 899V959H636.5V899H635.5ZM636 958.5H576V959.5H636V958.5ZM576.5 959V899H575.5V959H576.5ZM95.5 899V959H96.5V899H95.5ZM96 958.5H36V959.5H96V958.5ZM695.5 899V959H696.5V899H695.5ZM696 958.5H636V959.5H696V958.5ZM155.5 899V959H156.5V899H155.5ZM156 958.5H96V959.5H156V958.5ZM755.5 899V959H756.5V899H755.5ZM756 958.5H696V959.5H756V958.5ZM215.5 899V959H216.5V899H215.5ZM216 958.5H156V959.5H216V958.5ZM815.5 899V959H816.5V899H815.5ZM816 958.5H756V959.5H816V958.5ZM275.5 899V959H276.5V899H275.5ZM276 958.5H216V959.5H276V958.5ZM875.5 899V959H876.5V899H875.5ZM876 958.5H816V959.5H876V958.5ZM1235.5 899V959H1236.5V899H1235.5ZM1236 958.5H1176V959.5H1236V958.5ZM1176.5 959V899H1175.5V959H1176.5ZM335.5 899V959H336.5V899H335.5ZM336 958.5H276V959.5H336V958.5ZM935.5 899V959H936.5V899H935.5ZM936 958.5H876V959.5H936V958.5ZM1295.5 899V959H1296.5V899H1295.5ZM1296 958.5H1236V959.5H1296V958.5ZM395.5 899V959H396.5V899H395.5ZM396 958.5H336V959.5H396V958.5ZM995.5 899V959H996.5V899H995.5ZM996 958.5H936V959.5H996V958.5ZM1355.5 899V959H1356.5V899H1355.5ZM1356 958.5H1296V959.5H1356V958.5ZM455.5 899V959H456.5V899H455.5ZM456 958.5H396V959.5H456V958.5ZM1055.5 899V959H1056.5V899H1055.5ZM1056 958.5H996V959.5H1056V958.5ZM1415.5 899V959H1416.5V899H1415.5ZM1416 958.5H1356V959.5H1416V958.5ZM515.5 899V959H516.5V899H515.5ZM516 958.5H456V959.5H516V958.5ZM1115.5 899V959H1116.5V899H1115.5ZM1116 958.5H1056V959.5H1116V958.5ZM1475.5 899V959H1476.5V899H1475.5ZM1476 958.5H1416V959.5H1476V958.5ZM576 958.5H516V959.5H576V958.5ZM1176 958.5H1116V959.5H1176V958.5ZM1536 958.5H1476V959.5H1536V958.5ZM35.5 959V1019H36.5V959H35.5ZM36 1018.5H-24V1019.5H36V1018.5ZM635.5 959V1019H636.5V959H635.5ZM636 1018.5H576V1019.5H636V1018.5ZM576.5 1019V959H575.5V1019H576.5ZM95.5 959V1019H96.5V959H95.5ZM96 1018.5H36V1019.5H96V1018.5ZM695.5 959V1019H696.5V959H695.5ZM696 1018.5H636V1019.5H696V1018.5ZM155.5 959V1019H156.5V959H155.5ZM156 1018.5H96V1019.5H156V1018.5ZM755.5 959V1019H756.5V959H755.5ZM756 1018.5H696V1019.5H756V1018.5ZM215.5 959V1019H216.5V959H215.5ZM216 1018.5H156V1019.5H216V1018.5ZM815.5 959V1019H816.5V959H815.5ZM816 1018.5H756V1019.5H816V1018.5ZM275.5 959V1019H276.5V959H275.5ZM276 1018.5H216V1019.5H276V1018.5ZM875.5 959V1019H876.5V959H875.5ZM876 1018.5H816V1019.5H876V1018.5ZM1235.5 959V1019H1236.5V959H1235.5ZM1236 1018.5H1176V1019.5H1236V1018.5ZM1176.5 1019V959H1175.5V1019H1176.5ZM335.5 959V1019H336.5V959H335.5ZM336 1018.5H276V1019.5H336V1018.5ZM935.5 959V1019H936.5V959H935.5ZM936 1018.5H876V1019.5H936V1018.5ZM1295.5 959V1019H1296.5V959H1295.5ZM1296 1018.5H1236V1019.5H1296V1018.5ZM395.5 959V1019H396.5V959H395.5ZM396 1018.5H336V1019.5H396V1018.5ZM995.5 959V1019H996.5V959H995.5ZM996 1018.5H936V1019.5H996V1018.5ZM1355.5 959V1019H1356.5V959H1355.5ZM1356 1018.5H1296V1019.5H1356V1018.5ZM455.5 959V1019H456.5V959H455.5ZM456 1018.5H396V1019.5H456V1018.5ZM1055.5 959V1019H1056.5V959H1055.5ZM1056 1018.5H996V1019.5H1056V1018.5ZM1415.5 959V1019H1416.5V959H1415.5ZM1416 1018.5H1356V1019.5H1416V1018.5ZM515.5 959V1019H516.5V959H515.5ZM516 1018.5H456V1019.5H516V1018.5ZM1115.5 959V1019H1116.5V959H1115.5ZM1116 1018.5H1056V1019.5H1116V1018.5ZM1475.5 959V1019H1476.5V959H1475.5ZM1476 1018.5H1416V1019.5H1476V1018.5ZM576 1018.5H516V1019.5H576V1018.5ZM1176 1018.5H1116V1019.5H1176V1018.5ZM1536 1018.5H1476V1019.5H1536V1018.5ZM35.5 1019V1079H36.5V1019H35.5ZM36 1078.5H-24V1079.5H36V1078.5ZM635.5 1019V1079H636.5V1019H635.5ZM636 1078.5H576V1079.5H636V1078.5ZM576.5 1079V1019H575.5V1079H576.5ZM95.5 1019V1079H96.5V1019H95.5ZM96 1078.5H36V1079.5H96V1078.5ZM695.5 1019V1079H696.5V1019H695.5ZM696 1078.5H636V1079.5H696V1078.5ZM155.5 1019V1079H156.5V1019H155.5ZM156 1078.5H96V1079.5H156V1078.5ZM755.5 1019V1079H756.5V1019H755.5ZM756 1078.5H696V1079.5H756V1078.5ZM215.5 1019V1079H216.5V1019H215.5ZM216 1078.5H156V1079.5H216V1078.5ZM815.5 1019V1079H816.5V1019H815.5ZM816 1078.5H756V1079.5H816V1078.5ZM275.5 1019V1079H276.5V1019H275.5ZM276 1078.5H216V1079.5H276V1078.5ZM875.5 1019V1079H876.5V1019H875.5ZM876 1078.5H816V1079.5H876V1078.5ZM1235.5 1019V1079H1236.5V1019H1235.5ZM1236 1078.5H1176V1079.5H1236V1078.5ZM1176.5 1079V1019H1175.5V1079H1176.5ZM335.5 1019V1079H336.5V1019H335.5ZM336 1078.5H276V1079.5H336V1078.5ZM935.5 1019V1079H936.5V1019H935.5ZM936 1078.5H876V1079.5H936V1078.5ZM1295.5 1019V1079H1296.5V1019H1295.5ZM1296 1078.5H1236V1079.5H1296V1078.5ZM395.5 1019V1079H396.5V1019H395.5ZM396 1078.5H336V1079.5H396V1078.5ZM995.5 1019V1079H996.5V1019H995.5ZM996 1078.5H936V1079.5H996V1078.5ZM1355.5 1019V1079H1356.5V1019H1355.5ZM1356 1078.5H1296V1079.5H1356V1078.5ZM455.5 1019V1079H456.5V1019H455.5ZM456 1078.5H396V1079.5H456V1078.5ZM1055.5 1019V1079H1056.5V1019H1055.5ZM1056 1078.5H996V1079.5H1056V1078.5ZM1415.5 1019V1079H1416.5V1019H1415.5ZM1416 1078.5H1356V1079.5H1416V1078.5ZM515.5 1019V1079H516.5V1019H515.5ZM516 1078.5H456V1079.5H516V1078.5ZM1115.5 1019V1079H1116.5V1019H1115.5ZM1116 1078.5H1056V1079.5H1116V1078.5ZM1475.5 1019V1079H1476.5V1019H1475.5ZM1476 1078.5H1416V1079.5H1476V1078.5ZM576 1078.5H516V1079.5H576V1078.5ZM1176 1078.5H1116V1079.5H1176V1078.5ZM1536 1078.5H1476V1079.5H1536V1078.5ZM35.5 1079V1139H36.5V1079H35.5ZM36 1138.5H-24V1139.5H36V1138.5ZM635.5 1079V1139H636.5V1079H635.5ZM636 1138.5H576V1139.5H636V1138.5ZM576.5 1139V1079H575.5V1139H576.5ZM95.5 1079V1139H96.5V1079H95.5ZM96 1138.5H36V1139.5H96V1138.5ZM695.5 1079V1139H696.5V1079H695.5ZM696 1138.5H636V1139.5H696V1138.5ZM155.5 1079V1139H156.5V1079H155.5ZM156 1138.5H96V1139.5H156V1138.5ZM755.5 1079V1139H756.5V1079H755.5ZM756 1138.5H696V1139.5H756V1138.5ZM215.5 1079V1139H216.5V1079H215.5ZM216 1138.5H156V1139.5H216V1138.5ZM815.5 1079V1139H816.5V1079H815.5ZM816 1138.5H756V1139.5H816V1138.5ZM275.5 1079V1139H276.5V1079H275.5ZM276 1138.5H216V1139.5H276V1138.5ZM875.5 1079V1139H876.5V1079H875.5ZM876 1138.5H816V1139.5H876V1138.5ZM1235.5 1079V1139H1236.5V1079H1235.5ZM1236 1138.5H1176V1139.5H1236V1138.5ZM1176.5 1139V1079H1175.5V1139H1176.5ZM335.5 1079V1139H336.5V1079H335.5ZM336 1138.5H276V1139.5H336V1138.5ZM935.5 1079V1139H936.5V1079H935.5ZM936 1138.5H876V1139.5H936V1138.5ZM1295.5 1079V1139H1296.5V1079H1295.5ZM1296 1138.5H1236V1139.5H1296V1138.5ZM395.5 1079V1139H396.5V1079H395.5ZM396 1138.5H336V1139.5H396V1138.5ZM995.5 1079V1139H996.5V1079H995.5ZM996 1138.5H936V1139.5H996V1138.5ZM1355.5 1079V1139H1356.5V1079H1355.5ZM1356 1138.5H1296V1139.5H1356V1138.5ZM455.5 1079V1139H456.5V1079H455.5ZM456 1138.5H396V1139.5H456V1138.5ZM1055.5 1079V1139H1056.5V1079H1055.5ZM1056 1138.5H996V1139.5H1056V1138.5ZM1415.5 1079V1139H1416.5V1079H1415.5ZM1416 1138.5H1356V1139.5H1416V1138.5ZM515.5 1079V1139H516.5V1079H515.5ZM516 1138.5H456V1139.5H516V1138.5ZM1115.5 1079V1139H1116.5V1079H1115.5ZM1116 1138.5H1056V1139.5H1116V1138.5ZM1475.5 1079V1139H1476.5V1079H1475.5ZM1476 1138.5H1416V1139.5H1476V1138.5ZM576 1138.5H516V1139.5H576V1138.5ZM1176 1138.5H1116V1139.5H1176V1138.5ZM1536 1138.5H1476V1139.5H1536V1138.5ZM35.5 1139V1199H36.5V1139H35.5ZM635.5 1139V1199H636.5V1139H635.5ZM576.5 1199V1139H575.5V1199H576.5ZM95.5 1139V1199H96.5V1139H95.5ZM695.5 1139V1199H696.5V1139H695.5ZM155.5 1139V1199H156.5V1139H155.5ZM755.5 1139V1199H756.5V1139H755.5ZM215.5 1139V1199H216.5V1139H215.5ZM815.5 1139V1199H816.5V1139H815.5ZM275.5 1139V1199H276.5V1139H275.5ZM875.5 1139V1199H876.5V1139H875.5ZM1235.5 1139V1199H1236.5V1139H1235.5ZM1176.5 1199V1139H1175.5V1199H1176.5ZM335.5 1139V1199H336.5V1139H335.5ZM935.5 1139V1199H936.5V1139H935.5ZM1295.5 1139V1199H1296.5V1139H1295.5ZM395.5 1139V1199H396.5V1139H395.5ZM995.5 1139V1199H996.5V1139H995.5ZM1355.5 1139V1199H1356.5V1139H1355.5ZM455.5 1139V1199H456.5V1139H455.5ZM1055.5 1139V1199H1056.5V1139H1055.5ZM1415.5 1139V1199H1416.5V1139H1415.5ZM515.5 1139V1199H516.5V1139H515.5ZM1115.5 1139V1199H1116.5V1139H1115.5ZM1475.5 1139V1199H1476.5V1139H1475.5ZM-24 599V598H-25V599H-24ZM1536 599H1537V598H1536V599ZM-24 1199H-25V1200H-24V1199ZM1536 1199V1200H1537V1199H1536ZM-24 600H36V598H-24V600ZM-23 659V599H-25V659H-23ZM576 600H636V598H576V600ZM36 600H96V598H36V600ZM636 600H696V598H636V600ZM96 600H156V598H96V600ZM696 600H756V598H696V600ZM156 600H216V598H156V600ZM756 600H816V598H756V600ZM216 600H276V598H216V600ZM816 600H876V598H816V600ZM1176 600H1236V598H1176V600ZM276 600H336V598H276V600ZM876 600H936V598H876V600ZM1236 600H1296V598H1236V600ZM336 600H396V598H336V600ZM936 600H996V598H936V600ZM1296 600H1356V598H1296V600ZM396 600H456V598H396V600ZM996 600H1056V598H996V600ZM1356 600H1416V598H1356V600ZM456 600H516V598H456V600ZM1056 600H1116V598H1056V600ZM1416 600H1476V598H1416V600ZM516 600H576V598H516V600ZM1116 600H1176V598H1116V600ZM1476 600H1536V598H1476V600ZM1535 599V659H1537V599H1535ZM-23 719V659H-25V719H-23ZM1535 659V719H1537V659H1535ZM-23 779V719H-25V779H-23ZM1535 719V779H1537V719H1535ZM-23 839V779H-25V839H-23ZM1535 779V839H1537V779H1535ZM-23 899V839H-25V899H-23ZM1535 839V899H1537V839H1535ZM-23 959V899H-25V959H-23ZM1535 899V959H1537V899H1535ZM-23 1019V959H-25V1019H-23ZM1535 959V1019H1537V959H1535ZM-23 1079V1019H-25V1079H-23ZM1535 1019V1079H1537V1019H1535ZM-23 1139V1079H-25V1139H-23ZM1535 1079V1139H1537V1079H1535ZM36 1198H-24V1200H36V1198ZM-23 1199V1139H-25V1199H-23ZM636 1198H576V1200H636V1198ZM96 1198H36V1200H96V1198ZM696 1198H636V1200H696V1198ZM156 1198H96V1200H156V1198ZM756 1198H696V1200H756V1198ZM216 1198H156V1200H216V1198ZM816 1198H756V1200H816V1198ZM276 1198H216V1200H276V1198ZM876 1198H816V1200H876V1198ZM1236 1198H1176V1200H1236V1198ZM336 1198H276V1200H336V1198ZM936 1198H876V1200H936V1198ZM1296 1198H1236V1200H1296V1198ZM396 1198H336V1200H396V1198ZM996 1198H936V1200H996V1198ZM1356 1198H1296V1200H1356V1198ZM456 1198H396V1200H456V1198ZM1056 1198H996V1200H1056V1198ZM1416 1198H1356V1200H1416V1198ZM516 1198H456V1200H516V1198ZM1116 1198H1056V1200H1116V1198ZM1476 1198H1416V1200H1476V1198ZM576 1198H516V1200H576V1198ZM1176 1198H1116V1200H1176V1198ZM1535 1139V1199H1537V1139H1535ZM1536 1198H1476V1200H1536V1198Z" fill="url(#paint1_linear_83_30013)" mask="url(#path-4-inside-2_83_30013)"/>
</g>
<defs>
<linearGradient id="paint0_linear_83_30013" x1="756" y1="0" x2="756" y2="600" gradientUnits="userSpaceOnUse">
<stop stop-opacity="0"/>
<stop offset="0.712211" stop-opacity="0.06"/>
<stop offset="1" stop-opacity="0.06"/>
</linearGradient>
<linearGradient id="paint1_linear_83_30013" x1="756" y1="599" x2="756" y2="1199" gradientUnits="userSpaceOnUse">
<stop stop-opacity="0.06"/>
<stop offset="0.650268" stop-opacity="0"/>
</linearGradient>
</defs>
</svg>
