<svg width="33" height="32" viewBox="0 0 33 32" fill="none" xmlns="http://www.w3.org/2000/svg">
<path fill-rule="evenodd" clip-rule="evenodd" d="M16.998 0C8.16149 0 0.998047 7.16344 0.998047 16C0.998047 24.8366 8.16149 32 16.998 32C25.8346 32 32.998 24.8366 32.998 16C32.998 7.16344 25.8346 0 16.998 0ZM13.4804 6.85266C14.3906 6.8149 14.6814 6.80566 16.999 6.80566H16.9963C19.3146 6.80566 19.6043 6.8149 20.5146 6.85266C21.423 6.89058 22.0435 7.02167 22.5875 7.21402C23.1493 7.41252 23.6239 7.67828 24.0986 8.11094C24.5733 8.54327 24.8648 8.97723 25.0835 9.48881C25.2933 9.98337 25.4373 10.5486 25.48 11.3766C25.5208 12.2063 25.5315 12.4714 25.5315 14.5838C25.5315 16.6963 25.5208 16.9607 25.48 17.7904C25.4373 18.6181 25.2933 19.1835 25.0835 19.6782C24.8648 20.1896 24.5733 20.6236 24.0986 21.0559C23.6245 21.4886 23.1491 21.755 22.588 21.9536C22.0451 22.146 21.4243 22.2771 20.5158 22.315C19.6056 22.3528 19.3156 22.362 16.9979 22.362C14.6806 22.362 14.3899 22.3528 13.4797 22.315C12.5714 22.2771 11.9511 22.146 11.4082 21.9536C10.8473 21.755 10.3712 21.4886 9.89704 21.0559C9.42254 20.6236 9.13098 20.1896 8.91285 19.678C8.702 19.1835 8.55818 18.6183 8.5164 17.7902C8.47515 16.9605 8.46484 16.6963 8.46484 14.5838C8.46484 12.4714 8.47551 12.2061 8.51622 11.3765C8.55711 10.5487 8.70111 9.98337 8.91267 9.48865C9.13134 8.97723 9.4229 8.54327 9.89757 8.11094C10.3719 7.67844 10.848 7.41269 11.4092 7.21402C11.9518 7.02167 12.5719 6.89058 13.4804 6.85266Z" fill="white" fill-opacity="0.96"/>
<path fill-rule="evenodd" clip-rule="evenodd" d="M16.2321 8.20507C16.3807 8.20486 16.5406 8.20492 16.7132 8.20499L16.9976 8.20507C19.276 8.20507 19.5461 8.21252 20.4458 8.24979C21.2778 8.28447 21.7294 8.41119 22.0302 8.51765C22.4284 8.65863 22.7123 8.82716 23.0108 9.0994C23.3095 9.37163 23.4944 9.63091 23.6494 9.99389C23.7662 10.2677 23.9054 10.6793 23.9433 11.4377C23.9841 12.2577 23.993 12.504 23.993 14.5798C23.993 16.6556 23.9841 16.9019 23.9433 17.7218C23.9052 18.4802 23.7662 18.8918 23.6494 19.1656C23.4947 19.5286 23.3095 19.7871 23.0108 20.0592C22.7121 20.3314 22.4286 20.4999 22.0302 20.6409C21.7297 20.7479 21.2778 20.8742 20.4458 20.9089C19.5462 20.9462 19.276 20.9543 16.9976 20.9543C14.719 20.9543 14.4489 20.9462 13.5494 20.9089C12.7174 20.8739 12.2658 20.7472 11.9648 20.6407C11.5666 20.4998 11.2821 20.3312 10.9835 20.059C10.6848 19.7868 10.4999 19.5281 10.3449 19.165C10.2281 18.8911 10.0889 18.4795 10.051 17.7212C10.0101 16.9012 10.002 16.6549 10.002 14.5778C10.002 12.5007 10.0101 12.2557 10.051 11.4358C10.0891 10.6774 10.2281 10.2658 10.3449 9.99162C10.4996 9.62864 10.6848 9.36936 10.9835 9.09713C11.2821 8.82489 11.5666 8.65637 11.9648 8.51506C12.2656 8.40811 12.7174 8.28172 13.5494 8.24688C14.3366 8.21447 14.6416 8.20475 16.2321 8.20312V8.20507ZM21.5533 9.49642C20.988 9.49642 20.5293 9.91401 20.5293 10.4295C20.5293 10.9448 20.988 11.3629 21.5533 11.3629C22.1186 11.3629 22.5773 10.9448 22.5773 10.4295C22.5773 9.91417 22.1186 9.49609 21.5533 9.49609V9.49642ZM12.6153 14.5815C12.6153 12.3756 14.5774 10.5871 16.9974 10.587C19.4175 10.587 21.3791 12.3755 21.3791 14.5815C21.3791 16.7874 19.4177 18.5751 16.9976 18.5751C14.5775 18.5751 12.6153 16.7874 12.6153 14.5815Z" fill="white" fill-opacity="0.96"/>
<path d="M16.9988 11.9922C18.5696 11.9922 19.8432 13.1529 19.8432 14.5849C19.8432 16.0167 18.5696 17.1776 16.9988 17.1776C15.4277 17.1776 14.1543 16.0167 14.1543 14.5849C14.1543 13.1529 15.4277 11.9922 16.9988 11.9922Z" fill="white" fill-opacity="0.96"/>
</svg>
