<svg width="33" height="32" viewBox="0 0 33 32" fill="none" xmlns="http://www.w3.org/2000/svg">
<path fill-rule="evenodd" clip-rule="evenodd" d="M16.998 0C8.16149 0 0.998047 7.16344 0.998047 16C0.998047 24.8366 8.16149 32 16.998 32C25.8346 32 32.998 24.8366 32.998 16C32.998 7.16344 25.8346 0 16.998 0ZM8.67969 13.252H12.3056V24.1464H8.67969V13.252ZM12.544 9.88184C12.5205 8.81364 11.7566 8.00004 10.5162 8.00004C9.27578 8.00004 8.46484 8.81364 8.46484 9.88184C8.46484 10.9279 9.25182 11.7649 10.4691 11.7649H10.4923C11.7566 11.7649 12.544 10.9279 12.544 9.88184ZM21.2072 12.9961C23.5932 12.9961 25.382 14.5535 25.382 17.8998L25.3819 24.1464H21.7561V18.3178C21.7561 16.8538 21.2314 15.8548 19.9188 15.8548C18.917 15.8548 18.3203 16.5283 18.0583 17.1788C17.9624 17.4119 17.9389 17.7367 17.9389 18.0623V24.1467H14.3125C14.3125 24.1467 14.3603 14.2745 14.3125 13.2522H17.9389V14.7953C18.4201 14.0535 19.2821 12.9961 21.2072 12.9961Z" fill="white" fill-opacity="0.96"/>
</svg>
