<svg width="120" height="26" viewBox="0 0 120 26" fill="none" xmlns="http://www.w3.org/2000/svg">
<path d="M10.199 15.2174L16.7983 24.8164H10.5989L6.69931 18.9837L5.06615 20.7502V24.8164H0V0.685547H5.06615V13.8175L10.099 8.25144H16.665L10.199 15.2174Z" fill="black"/>
<path d="M25.5974 20.6502C26.0863 20.6502 26.5529 20.5724 26.9973 20.4169C27.4417 20.2391 27.8305 19.9836 28.1638 19.6503C28.5193 19.2948 28.7971 18.8615 28.9971 18.3504C29.2193 17.8393 29.3304 17.2283 29.3304 16.5173C29.3304 15.8284 29.2193 15.2285 28.9971 14.7174C28.7971 14.1842 28.5193 13.7509 28.1638 13.4176C27.8305 13.0843 27.4417 12.8399 26.9973 12.6843C26.5529 12.5066 26.0863 12.4177 25.5974 12.4177C25.1308 12.4177 24.6642 12.5066 24.1976 12.6843C23.7532 12.8399 23.3532 13.0843 22.9977 13.4176C22.6644 13.7509 22.3866 14.1842 22.1644 14.7174C21.9645 15.2285 21.8645 15.8284 21.8645 16.5173C21.8645 17.2061 21.9645 17.8171 22.1644 18.3504C22.3866 18.8615 22.6644 19.2948 22.9977 19.6503C23.3532 19.9836 23.7532 20.2391 24.1976 20.4169C24.6642 20.5724 25.1308 20.6502 25.5974 20.6502ZM25.5974 7.75149C26.8417 7.75149 27.9972 7.97369 29.0637 8.41809C30.1303 8.84027 31.0524 9.44021 31.8301 10.2179C32.63 10.9956 33.2522 11.9177 33.6966 12.9843C34.1632 14.0508 34.3965 15.2285 34.3965 16.5173C34.3965 17.806 34.1632 18.9948 33.6966 20.0836C33.2522 21.1501 32.63 22.0722 31.8301 22.8499C31.0524 23.6276 30.1303 24.2387 29.0637 24.6831C27.9972 25.1053 26.8417 25.3164 25.5974 25.3164C24.3531 25.3164 23.1977 25.1053 22.1311 24.6831C21.0646 24.2387 20.1313 23.6276 19.3314 22.8499C18.5537 22.0722 17.9315 21.1501 17.4649 20.0836C17.0205 18.9948 16.7983 17.806 16.7983 16.5173C16.7983 15.2285 17.0205 14.0508 17.4649 12.9843C17.9315 11.9177 18.5537 10.9956 19.3314 10.2179C20.1313 9.44021 21.0646 8.84027 22.1311 8.41809C23.1977 7.97369 24.3531 7.75149 25.5974 7.75149Z" fill="black"/>
<path d="M35.4901 13.2509C35.779 13.1843 36.0567 13.1398 36.3234 13.1176C36.59 13.0954 36.8455 13.0843 37.0899 13.0843C37.601 13.0843 38.0898 13.1621 38.5565 13.3176C39.0231 13.4731 39.4342 13.7287 39.7897 14.0842C40.1452 14.4397 40.4341 14.9063 40.6562 15.484C40.8562 16.0618 40.9562 16.7617 40.9562 17.5838V24.8164H46.0224V8.25144H41.1229V10.4845C40.9007 10.0179 40.6229 9.62908 40.2896 9.318C39.9341 9.00692 39.5564 8.7625 39.1564 8.58474C38.7564 8.40698 38.3565 8.28477 37.9565 8.21811C37.5343 8.12923 37.1566 8.08479 36.8233 8.08479C36.3122 8.08479 35.8679 8.14034 35.4901 8.25144V13.2509Z" fill="black"/>
<path d="M60.4621 13.2509C60.1732 13.1843 59.8955 13.1398 59.6288 13.1176C59.3622 13.0954 59.1067 13.0843 58.8622 13.0843C58.3512 13.0843 57.8623 13.162 57.3957 13.3176C56.9291 13.4731 56.518 13.7287 56.1625 14.0842C55.807 14.4397 55.5181 14.9063 55.2959 15.484C55.096 16.0618 54.996 16.7617 54.996 17.5838V24.8164H49.9298V8.25144H54.8293V10.4845C55.0515 10.0179 55.3293 9.62908 55.6626 9.318C56.0181 9.00692 56.3958 8.7625 56.7958 8.58474C57.1957 8.40698 57.5957 8.28477 57.9957 8.21811C58.4178 8.12923 58.7956 8.08479 59.1289 8.08479C59.6399 8.08479 60.0843 8.14034 60.4621 8.25144V13.2509Z" fill="black"/>
<path d="M73.8055 14.5508C73.7833 14.2397 73.7055 13.9175 73.5722 13.5842C73.4611 13.2509 73.2722 12.951 73.0056 12.6843C72.7389 12.4177 72.3945 12.1955 71.9724 12.0177C71.5724 11.84 71.0725 11.7511 70.4725 11.7511C69.9392 11.7511 69.4726 11.84 69.0727 12.0177C68.6727 12.1955 68.3283 12.4177 68.0394 12.6843C67.7728 12.951 67.5617 13.2509 67.4062 13.5842C67.2728 13.9175 67.1951 14.2397 67.1729 14.5508H73.8055ZM78.405 20.0502C78.2051 20.7613 77.894 21.439 77.4718 22.0834C77.0496 22.7277 76.5163 23.2943 75.872 23.7832C75.2276 24.2498 74.4721 24.6164 73.6055 24.8831C72.7612 25.1719 71.8168 25.3164 70.7725 25.3164C69.6393 25.3164 68.5505 25.1164 67.5062 24.7164C66.4618 24.3165 65.5397 23.7387 64.7398 22.9833C63.9399 22.2278 63.3066 21.3057 62.84 20.2169C62.3733 19.1281 62.14 17.8838 62.14 16.4839C62.14 15.1507 62.3622 13.9509 62.8066 12.8843C63.2733 11.7955 63.8843 10.8734 64.6398 10.1179C65.4175 9.36244 66.3063 8.78472 67.3062 8.38476C68.3061 7.96258 69.3393 7.75149 70.4059 7.75149C72.9834 7.75149 75.0054 8.49586 76.4719 9.9846C77.9606 11.4733 78.705 13.562 78.705 16.2506C78.705 16.6061 78.6939 16.9506 78.6717 17.2838C78.6495 17.5949 78.6272 17.7727 78.605 17.8171H67.0729C67.0951 18.2837 67.2062 18.717 67.4062 19.117C67.6284 19.4947 67.9061 19.828 68.2394 20.1169C68.5949 20.4058 68.9949 20.628 69.4393 20.7835C69.8837 20.939 70.3503 21.0168 70.8391 21.0168C71.7724 21.0168 72.4945 20.8168 73.0056 20.4169C73.5389 20.0169 73.9277 19.4947 74.1721 18.8504L78.405 20.0502Z" fill="black"/>
<path d="M89.5904 12.4177C89.0571 12.4177 88.5571 12.5066 88.0905 12.6843C87.6461 12.8621 87.2461 13.1287 86.8906 13.4842C86.5573 13.8398 86.2907 14.273 86.0907 14.7841C85.8907 15.2952 85.7907 15.884 85.7907 16.5506C85.7907 17.2172 85.8907 17.806 86.0907 18.3171C86.3129 18.8059 86.5907 19.2281 86.924 19.5836C87.2795 19.9391 87.6905 20.2058 88.1572 20.3835C88.6238 20.5613 89.1237 20.6502 89.657 20.6502C90.6347 20.6502 91.4013 20.3946 91.9568 19.8836C92.5345 19.3725 92.9122 18.8059 93.09 18.1838L97.5562 19.5503C97.3784 20.2835 97.0674 20.9946 96.623 21.6834C96.2008 22.3722 95.6564 22.9833 94.9898 23.5165C94.3232 24.0498 93.5455 24.4831 92.6567 24.8164C91.7679 25.1497 90.768 25.3164 89.657 25.3164C88.4127 25.3164 87.2461 25.1053 86.1574 24.6831C85.0908 24.2387 84.1576 23.6276 83.3577 22.8499C82.5577 22.0722 81.9245 21.1501 81.4578 20.0836C80.9912 19.017 80.7579 17.8393 80.7579 16.5506C80.7579 15.2618 80.9801 14.0842 81.4245 13.0176C81.8911 11.9288 82.5133 10.9956 83.291 10.2179C84.0909 9.44021 85.013 8.84027 86.0574 8.41809C87.1239 7.97369 88.2683 7.75149 89.4904 7.75149C90.6236 7.75149 91.6457 7.91814 92.5567 8.25144C93.4677 8.56252 94.2565 8.9847 94.9231 9.51798C95.5897 10.0513 96.1341 10.6734 96.5563 11.3845C96.9785 12.0733 97.2785 12.7843 97.4562 13.5176L92.9233 14.8841C92.8345 14.573 92.7011 14.273 92.5234 13.9842C92.3456 13.6731 92.1234 13.4065 91.8568 13.1843C91.5901 12.9398 91.268 12.751 90.8902 12.6177C90.5125 12.4843 90.0792 12.4177 89.5904 12.4177Z" fill="black"/>
<path d="M106.707 8.25144H109.94V12.6843H106.707V18.8837C106.707 19.5725 106.873 20.0391 107.207 20.2835C107.54 20.5057 107.984 20.6168 108.54 20.6168C108.807 20.6168 109.051 20.6057 109.273 20.5835C109.518 20.5391 109.718 20.4946 109.873 20.4502V24.6498C109.762 24.6942 109.495 24.7831 109.073 24.9164C108.651 25.0497 108.04 25.1164 107.24 25.1164C105.507 25.1164 104.152 24.6498 103.174 23.7165C102.196 22.7611 101.707 21.4501 101.707 19.7836V12.6843H98.7743V8.25144H99.6075C100.474 8.25144 101.119 7.99591 101.541 7.48485C101.963 6.97379 102.174 6.32941 102.174 5.55172V3.4186H106.707V8.25144Z" fill="black"/>
<path d="M113.434 20.383C113.256 20.7829 113.167 21.2162 113.167 21.6829C113.167 22.1495 113.256 22.5939 113.434 23.0161C113.611 23.416 113.856 23.7715 114.167 24.0826C114.478 24.3937 114.833 24.6381 115.233 24.8159C115.656 25.0158 116.1 25.1158 116.567 25.1158C117.033 25.1158 117.467 25.0158 117.867 24.8159C118.289 24.6381 118.655 24.3937 118.966 24.0826C119.3 23.7715 119.555 23.416 119.733 23.0161C119.911 22.5939 120 22.1495 120 21.6829C120 21.2162 119.911 20.7829 119.733 20.383C119.555 19.9608 119.3 19.5942 118.966 19.2831C118.655 18.972 118.289 18.7276 117.867 18.5498C117.467 18.3721 117.033 18.2832 116.567 18.2832C116.1 18.2832 115.656 18.3721 115.233 18.5498C114.833 18.7276 114.478 18.972 114.167 19.2831C113.856 19.5942 113.611 19.9608 113.434 20.383Z" fill="#007C89"/>
</svg>
