<svg width="280" height="236" viewBox="0 0 280 236" fill="none" xmlns="http://www.w3.org/2000/svg">
<g filter="url(#filter0_d_83_29882)">
<rect x="16" y="8" width="517" height="550" rx="8" fill="white"/>
<path d="M60.049 45.9091V59H57.9396L51.7713 50.0831H51.6626V59H49.2912V45.9091H51.4134L57.5753 54.8324H57.6903V45.9091H60.049ZM66.6253 59.1918C65.6409 59.1918 64.7908 58.9872 64.0749 58.5781C63.3632 58.1648 62.8156 57.581 62.4321 56.8267C62.0486 56.0682 61.8568 55.1754 61.8568 54.1484C61.8568 53.1385 62.0486 52.2521 62.4321 51.4893C62.8199 50.7223 63.3611 50.1257 64.0557 49.6996C64.7503 49.2692 65.5664 49.054 66.5039 49.054C67.109 49.054 67.68 49.152 68.2169 49.348C68.7581 49.5398 69.2354 49.8381 69.6487 50.2429C70.0664 50.6477 70.3945 51.1634 70.6331 51.7898C70.8718 52.4119 70.9911 53.1534 70.9911 54.0142V54.7237H62.9435V53.1641H68.773C68.7688 52.7209 68.6729 52.3267 68.4854 51.9815C68.2979 51.6321 68.0358 51.3572 67.6992 51.157C67.3668 50.9567 66.979 50.8565 66.5358 50.8565C66.0628 50.8565 65.6473 50.9716 65.2894 51.2017C64.9314 51.4276 64.6523 51.7259 64.452 52.0966C64.256 52.4631 64.1558 52.8658 64.1516 53.3047V54.6662C64.1516 55.2372 64.256 55.7273 64.4648 56.1364C64.6736 56.5412 64.9655 56.8523 65.3405 57.0696C65.7155 57.2827 66.1544 57.3892 66.6573 57.3892C66.9939 57.3892 67.2986 57.3423 67.5713 57.2486C67.8441 57.1506 68.0806 57.0078 68.2808 56.8203C68.4811 56.6328 68.6324 56.4006 68.7347 56.1236L70.8952 56.3665C70.7588 56.9375 70.4989 57.4361 70.1154 57.8622C69.7361 58.2841 69.2503 58.6122 68.658 58.8466C68.0656 59.0767 67.3881 59.1918 66.6253 59.1918ZM74.6702 59L71.896 49.1818H74.2547L75.9806 56.0852H76.07L77.8342 49.1818H80.1673L81.9315 56.0469H82.0274L83.7277 49.1818H86.0928L83.3122 59H80.9024L79.0615 52.3651H78.9273L77.0864 59H74.6702ZM91.7715 59V45.9091H100.158V47.897H94.1429V51.451H99.5826V53.4389H94.1429V59H91.7715ZM105.59 59.1918C104.606 59.1918 103.755 58.9872 103.04 58.5781C102.328 58.1648 101.78 57.581 101.397 56.8267C101.013 56.0682 100.822 55.1754 100.822 54.1484C100.822 53.1385 101.013 52.2521 101.397 51.4893C101.785 50.7223 102.326 50.1257 103.02 49.6996C103.715 49.2692 104.531 49.054 105.469 49.054C106.074 49.054 106.645 49.152 107.182 49.348C107.723 49.5398 108.2 49.8381 108.613 50.2429C109.031 50.6477 109.359 51.1634 109.598 51.7898C109.836 52.4119 109.956 53.1534 109.956 54.0142V54.7237H101.908V53.1641H107.738C107.733 52.7209 107.638 52.3267 107.45 51.9815C107.263 51.6321 107 51.3572 106.664 51.157C106.331 50.9567 105.944 50.8565 105.5 50.8565C105.027 50.8565 104.612 50.9716 104.254 51.2017C103.896 51.4276 103.617 51.7259 103.417 52.0966C103.221 52.4631 103.121 52.8658 103.116 53.3047V54.6662C103.116 55.2372 103.221 55.7273 103.429 56.1364C103.638 56.5412 103.93 56.8523 104.305 57.0696C104.68 57.2827 105.119 57.3892 105.622 57.3892C105.959 57.3892 106.263 57.3423 106.536 57.2486C106.809 57.1506 107.045 57.0078 107.246 56.8203C107.446 56.6328 107.597 56.4006 107.699 56.1236L109.86 56.3665C109.723 56.9375 109.464 57.4361 109.08 57.8622C108.701 58.2841 108.215 58.6122 107.623 58.8466C107.03 59.0767 106.353 59.1918 105.59 59.1918ZM116.008 59.1918C115.024 59.1918 114.173 58.9872 113.457 58.5781C112.746 58.1648 112.198 57.581 111.815 56.8267C111.431 56.0682 111.239 55.1754 111.239 54.1484C111.239 53.1385 111.431 52.2521 111.815 51.4893C112.202 50.7223 112.744 50.1257 113.438 49.6996C114.133 49.2692 114.949 49.054 115.886 49.054C116.492 49.054 117.063 49.152 117.6 49.348C118.141 49.5398 118.618 49.8381 119.031 50.2429C119.449 50.6477 119.777 51.1634 120.016 51.7898C120.254 52.4119 120.374 53.1534 120.374 54.0142V54.7237H112.326V53.1641H118.156C118.151 52.7209 118.055 52.3267 117.868 51.9815C117.68 51.6321 117.418 51.3572 117.082 51.157C116.749 50.9567 116.362 50.8565 115.918 50.8565C115.445 50.8565 115.03 50.9716 114.672 51.2017C114.314 51.4276 114.035 51.7259 113.835 52.0966C113.639 52.4631 113.538 52.8658 113.534 53.3047V54.6662C113.534 55.2372 113.639 55.7273 113.847 56.1364C114.056 56.5412 114.348 56.8523 114.723 57.0696C115.098 57.2827 115.537 57.3892 116.04 57.3892C116.376 57.3892 116.681 57.3423 116.954 57.2486C117.227 57.1506 117.463 57.0078 117.663 56.8203C117.864 56.6328 118.015 56.4006 118.117 56.1236L120.278 56.3665C120.141 56.9375 119.881 57.4361 119.498 57.8622C119.119 58.2841 118.633 58.6122 118.041 58.8466C117.448 59.0767 116.771 59.1918 116.008 59.1918ZM125.723 59.1726C124.951 59.1726 124.261 58.9744 123.652 58.5781C123.042 58.1818 122.561 57.6065 122.207 56.8523C121.853 56.098 121.677 55.1818 121.677 54.1037C121.677 53.0128 121.855 52.0923 122.213 51.3423C122.576 50.5881 123.064 50.0192 123.677 49.6357C124.291 49.2479 124.975 49.054 125.729 49.054C126.304 49.054 126.777 49.152 127.148 49.348C127.519 49.5398 127.813 49.772 128.03 50.0447C128.248 50.3132 128.416 50.5668 128.535 50.8054H128.631V45.9091H130.951V59H128.676V57.4531H128.535C128.416 57.6918 128.243 57.9453 128.017 58.2138C127.792 58.478 127.493 58.7038 127.123 58.8913C126.752 59.0788 126.285 59.1726 125.723 59.1726ZM126.368 57.2741C126.858 57.2741 127.276 57.142 127.621 56.8778C127.966 56.6094 128.228 56.2365 128.407 55.7592C128.586 55.282 128.676 54.7259 128.676 54.0909C128.676 53.456 128.586 52.9041 128.407 52.4354C128.233 51.9666 127.973 51.6023 127.628 51.3423C127.287 51.0824 126.867 50.9524 126.368 50.9524C125.853 50.9524 125.422 51.0866 125.077 51.3551C124.732 51.6236 124.472 51.9943 124.297 52.4673C124.123 52.9403 124.035 53.4815 124.035 54.0909C124.035 54.7045 124.123 55.2521 124.297 55.7337C124.476 56.2109 124.738 56.5881 125.083 56.8651C125.433 57.1378 125.861 57.2741 126.368 57.2741ZM133.267 59V45.9091H135.581V50.8054H135.677C135.797 50.5668 135.965 50.3132 136.182 50.0447C136.399 49.772 136.694 49.5398 137.064 49.348C137.435 49.152 137.908 49.054 138.483 49.054C139.242 49.054 139.926 49.2479 140.535 49.6357C141.149 50.0192 141.635 50.5881 141.993 51.3423C142.355 52.0923 142.536 53.0128 142.536 54.1037C142.536 55.1818 142.359 56.098 142.005 56.8523C141.652 57.6065 141.17 58.1818 140.561 58.5781C139.951 58.9744 139.261 59.1726 138.49 59.1726C137.927 59.1726 137.461 59.0788 137.09 58.8913C136.719 58.7038 136.421 58.478 136.195 58.2138C135.973 57.9453 135.801 57.6918 135.677 57.4531H135.543V59H133.267ZM135.537 54.0909C135.537 54.7259 135.626 55.282 135.805 55.7592C135.988 56.2365 136.25 56.6094 136.591 56.8778C136.936 57.142 137.354 57.2741 137.844 57.2741C138.355 57.2741 138.784 57.1378 139.129 56.8651C139.474 56.5881 139.734 56.2109 139.909 55.7337C140.088 55.2521 140.177 54.7045 140.177 54.0909C140.177 53.4815 140.09 52.9403 139.915 52.4673C139.74 51.9943 139.48 51.6236 139.135 51.3551C138.79 51.0866 138.36 50.9524 137.844 50.9524C137.35 50.9524 136.93 51.0824 136.585 51.3423C136.24 51.6023 135.978 51.9666 135.799 52.4354C135.624 52.9041 135.537 53.456 135.537 54.0909ZM147.076 59.1982C146.454 59.1982 145.894 59.0874 145.395 58.8658C144.901 58.6399 144.509 58.3075 144.219 57.8686C143.934 57.4297 143.791 56.8885 143.791 56.245C143.791 55.6911 143.893 55.233 144.098 54.8707C144.302 54.5085 144.581 54.2188 144.935 54.0014C145.289 53.7841 145.687 53.62 146.13 53.5092C146.578 53.3942 147.04 53.3111 147.517 53.2599C148.093 53.2003 148.559 53.147 148.917 53.1001C149.275 53.049 149.535 52.9723 149.697 52.87C149.863 52.7635 149.946 52.5994 149.946 52.3778V52.3395C149.946 51.858 149.804 51.4851 149.518 51.2209C149.233 50.9567 148.821 50.8246 148.284 50.8246C147.718 50.8246 147.268 50.9482 146.936 51.1953C146.608 51.4425 146.386 51.7344 146.271 52.071L144.11 51.7642C144.281 51.1676 144.562 50.669 144.954 50.2685C145.346 49.8636 145.826 49.5611 146.392 49.3608C146.959 49.1562 147.586 49.054 148.272 49.054C148.745 49.054 149.215 49.1094 149.684 49.2202C150.153 49.331 150.581 49.5142 150.969 49.7699C151.357 50.0213 151.668 50.3643 151.902 50.799C152.141 51.2337 152.26 51.777 152.26 52.429V59H150.036V57.6513H149.959C149.818 57.924 149.62 58.1797 149.365 58.4183C149.113 58.6527 148.796 58.8423 148.412 58.9872C148.033 59.1278 147.588 59.1982 147.076 59.1982ZM147.677 57.4979C148.142 57.4979 148.544 57.4062 148.885 57.223C149.226 57.0355 149.488 56.7884 149.671 56.4815C149.859 56.1747 149.953 55.8402 149.953 55.478V54.321C149.88 54.3807 149.757 54.4361 149.582 54.4872C149.412 54.5384 149.22 54.5831 149.007 54.6214C148.794 54.6598 148.583 54.6939 148.374 54.7237C148.165 54.7536 147.984 54.7791 147.831 54.8004C147.485 54.8473 147.176 54.924 146.904 55.0305C146.631 55.1371 146.416 55.2862 146.258 55.478C146.1 55.6655 146.022 55.9084 146.022 56.2067C146.022 56.6328 146.177 56.9545 146.488 57.1719C146.799 57.3892 147.196 57.4979 147.677 57.4979ZM158.618 59.1918C157.637 59.1918 156.796 58.9766 156.093 58.5462C155.394 58.1158 154.855 57.5213 154.476 56.7628C154.101 56 153.913 55.1222 153.913 54.1293C153.913 53.1321 154.105 52.2521 154.488 51.4893C154.872 50.7223 155.413 50.1257 156.112 49.6996C156.815 49.2692 157.646 49.054 158.605 49.054C159.402 49.054 160.107 49.201 160.721 49.495C161.338 49.7848 161.831 50.196 162.197 50.7287C162.564 51.2571 162.772 51.875 162.824 52.5824H160.612C160.522 52.1094 160.309 51.7152 159.973 51.3999C159.64 51.0803 159.195 50.9205 158.637 50.9205C158.164 50.9205 157.748 51.0483 157.39 51.304C157.032 51.5554 156.753 51.9176 156.553 52.3906C156.357 52.8636 156.259 53.4304 156.259 54.0909C156.259 54.7599 156.357 55.3352 156.553 55.8168C156.749 56.294 157.024 56.6626 157.378 56.9226C157.736 57.1783 158.155 57.3061 158.637 57.3061C158.978 57.3061 159.282 57.2422 159.551 57.1143C159.824 56.9822 160.052 56.7926 160.235 56.5455C160.418 56.2983 160.544 55.9979 160.612 55.6442H162.824C162.768 56.3388 162.564 56.9545 162.21 57.4915C161.856 58.0241 161.375 58.4418 160.765 58.7443C160.156 59.0426 159.44 59.1918 158.618 59.1918ZM166.581 55.919L166.575 53.1257H166.945L170.474 49.1818H173.178L168.837 54.0142H168.358L166.581 55.919ZM164.472 59V45.9091H166.786V59H164.472ZM170.634 59L167.438 54.532L168.997 52.902L173.401 59H170.634Z" fill="#252C32"/>
<rect x="48" y="80" width="453" height="390" rx="16" fill="white"/>
<rect x="133.5" y="105.5" width="167" height="31" rx="5.5" fill="white"/>
<path d="M151.801 118.364C151.741 117.86 151.5 117.469 151.075 117.19C150.651 116.912 150.131 116.773 149.514 116.773C149.063 116.773 148.669 116.846 148.331 116.991C147.996 117.137 147.734 117.338 147.545 117.593C147.36 117.848 147.267 118.138 147.267 118.463C147.267 118.735 147.332 118.969 147.461 119.164C147.594 119.356 147.763 119.517 147.968 119.646C148.174 119.772 148.389 119.877 148.614 119.96C148.84 120.039 149.047 120.104 149.236 120.153L150.27 120.432C150.535 120.501 150.83 120.598 151.155 120.72C151.483 120.843 151.796 121.01 152.094 121.222C152.396 121.431 152.645 121.7 152.84 122.028C153.036 122.356 153.134 122.759 153.134 123.236C153.134 123.786 152.989 124.283 152.701 124.727C152.416 125.171 151.998 125.524 151.448 125.786C150.901 126.048 150.237 126.179 149.455 126.179C148.725 126.179 148.094 126.061 147.56 125.826C147.03 125.591 146.612 125.263 146.308 124.842C146.006 124.421 145.835 123.932 145.795 123.375H147.068C147.101 123.759 147.231 124.078 147.456 124.33C147.685 124.578 147.973 124.764 148.321 124.886C148.672 125.006 149.05 125.065 149.455 125.065C149.925 125.065 150.348 124.989 150.722 124.837C151.097 124.681 151.393 124.465 151.612 124.19C151.831 123.912 151.94 123.587 151.94 123.216C151.94 122.878 151.846 122.603 151.657 122.391C151.468 122.179 151.219 122.006 150.911 121.874C150.603 121.741 150.27 121.625 149.912 121.526L148.659 121.168C147.864 120.939 147.234 120.612 146.77 120.188C146.306 119.764 146.074 119.209 146.074 118.523C146.074 117.953 146.228 117.455 146.536 117.031C146.848 116.604 147.265 116.272 147.789 116.037C148.316 115.798 148.904 115.679 149.554 115.679C150.21 115.679 150.794 115.797 151.304 116.032C151.814 116.264 152.219 116.582 152.517 116.987C152.819 117.391 152.978 117.85 152.994 118.364H151.801ZM158.119 126.159C157.384 126.159 156.749 125.997 156.215 125.672C155.685 125.344 155.276 124.886 154.987 124.3C154.702 123.71 154.56 123.024 154.56 122.241C154.56 121.459 154.702 120.77 154.987 120.173C155.276 119.573 155.677 119.106 156.19 118.771C156.707 118.433 157.311 118.264 158 118.264C158.398 118.264 158.79 118.33 159.178 118.463C159.566 118.596 159.919 118.811 160.237 119.109C160.555 119.404 160.809 119.795 160.998 120.283C161.187 120.77 161.281 121.37 161.281 122.082V122.58H155.395V121.565H160.088C160.088 121.134 160.002 120.75 159.83 120.412C159.66 120.074 159.419 119.807 159.104 119.612C158.792 119.416 158.424 119.318 158 119.318C157.533 119.318 157.128 119.434 156.787 119.666C156.449 119.895 156.189 120.193 156.006 120.561C155.824 120.929 155.733 121.323 155.733 121.744V122.42C155.733 122.997 155.832 123.486 156.031 123.887C156.233 124.285 156.513 124.588 156.871 124.797C157.229 125.002 157.645 125.105 158.119 125.105C158.428 125.105 158.706 125.062 158.955 124.976C159.206 124.886 159.424 124.754 159.606 124.578C159.788 124.399 159.929 124.177 160.028 123.912L161.162 124.23C161.043 124.615 160.842 124.953 160.56 125.244C160.279 125.533 159.931 125.758 159.516 125.92C159.102 126.08 158.636 126.159 158.119 126.159ZM164.155 115.818V126H162.982V115.818H164.155ZM169.621 118.364V119.358H165.504V118.364H169.621ZM166.737 126V117.31C166.737 116.872 166.84 116.508 167.046 116.216C167.251 115.924 167.518 115.705 167.846 115.56C168.174 115.414 168.52 115.341 168.885 115.341C169.173 115.341 169.409 115.364 169.591 115.411C169.773 115.457 169.909 115.5 169.999 115.54L169.661 116.554C169.601 116.534 169.518 116.509 169.412 116.479C169.309 116.45 169.173 116.435 169.004 116.435C168.617 116.435 168.337 116.532 168.164 116.728C167.995 116.924 167.911 117.21 167.911 117.588V126H166.737ZM175.452 120.909C175.452 119.656 175.615 118.504 175.94 117.454C176.268 116.4 176.735 115.43 177.342 114.545H178.376C178.137 114.874 177.913 115.278 177.704 115.759C177.499 116.236 177.318 116.761 177.163 117.335C177.007 117.905 176.884 118.495 176.795 119.104C176.708 119.714 176.665 120.316 176.665 120.909C176.665 121.698 176.742 122.498 176.894 123.31C177.047 124.122 177.252 124.876 177.511 125.572C177.769 126.268 178.057 126.835 178.376 127.273H177.342C176.735 126.388 176.268 125.42 175.94 124.369C175.615 123.315 175.452 122.162 175.452 120.909ZM183.324 126H180.182V115.818H183.463C184.451 115.818 185.296 116.022 185.999 116.43C186.701 116.834 187.24 117.416 187.615 118.175C187.989 118.93 188.176 119.835 188.176 120.889C188.176 121.95 187.987 122.863 187.61 123.629C187.232 124.391 186.682 124.978 185.959 125.388C185.237 125.796 184.358 126 183.324 126ZM181.415 124.906H183.245C184.086 124.906 184.784 124.744 185.338 124.419C185.891 124.094 186.304 123.632 186.576 123.032C186.847 122.432 186.983 121.718 186.983 120.889C186.983 120.067 186.849 119.36 186.581 118.766C186.312 118.17 185.911 117.712 185.377 117.394C184.844 117.073 184.179 116.912 183.384 116.912H181.415V124.906ZM193.203 126.159C192.467 126.159 191.833 125.997 191.299 125.672C190.769 125.344 190.359 124.886 190.071 124.3C189.786 123.71 189.644 123.024 189.644 122.241C189.644 121.459 189.786 120.77 190.071 120.173C190.359 119.573 190.76 119.106 191.274 118.771C191.791 118.433 192.394 118.264 193.084 118.264C193.482 118.264 193.874 118.33 194.262 118.463C194.65 118.596 195.003 118.811 195.321 119.109C195.639 119.404 195.893 119.795 196.082 120.283C196.271 120.77 196.365 121.37 196.365 122.082V122.58H190.479V121.565H195.172C195.172 121.134 195.086 120.75 194.913 120.412C194.744 120.074 194.502 119.807 194.188 119.612C193.876 119.416 193.508 119.318 193.084 119.318C192.617 119.318 192.212 119.434 191.871 119.666C191.533 119.895 191.273 120.193 191.09 120.561C190.908 120.929 190.817 121.323 190.817 121.744V122.42C190.817 122.997 190.916 123.486 191.115 123.887C191.317 124.285 191.597 124.588 191.955 124.797C192.313 125.002 192.729 125.105 193.203 125.105C193.511 125.105 193.79 125.062 194.038 124.976C194.29 124.886 194.507 124.754 194.69 124.578C194.872 124.399 195.013 124.177 195.112 123.912L196.246 124.23C196.126 124.615 195.926 124.953 195.644 125.244C195.363 125.533 195.015 125.758 194.6 125.92C194.186 126.08 193.72 126.159 193.203 126.159ZM201.466 118.364V119.358H197.35V118.364H201.466ZM198.583 126V117.31C198.583 116.872 198.686 116.508 198.891 116.216C199.097 115.924 199.364 115.705 199.692 115.56C200.02 115.414 200.366 115.341 200.731 115.341C201.019 115.341 201.254 115.364 201.437 115.411C201.619 115.457 201.755 115.5 201.844 115.54L201.506 116.554C201.447 116.534 201.364 116.509 201.258 116.479C201.155 116.45 201.019 116.435 200.85 116.435C200.462 116.435 200.182 116.532 200.01 116.728C199.841 116.924 199.756 117.21 199.756 117.588V126H198.583ZM205.055 126.179C204.571 126.179 204.132 126.088 203.738 125.906C203.343 125.72 203.03 125.453 202.798 125.105C202.566 124.754 202.45 124.33 202.45 123.832C202.45 123.395 202.536 123.04 202.709 122.768C202.881 122.493 203.111 122.278 203.4 122.122C203.688 121.966 204.006 121.85 204.354 121.774C204.706 121.695 205.059 121.632 205.413 121.585C205.877 121.526 206.253 121.481 206.542 121.451C206.833 121.418 207.046 121.363 207.178 121.287C207.314 121.211 207.382 121.078 207.382 120.889V120.849C207.382 120.359 207.248 119.978 206.979 119.706C206.714 119.434 206.311 119.298 205.771 119.298C205.211 119.298 204.772 119.421 204.454 119.666C204.136 119.911 203.912 120.173 203.783 120.452L202.669 120.054C202.868 119.59 203.133 119.229 203.464 118.97C203.799 118.708 204.164 118.526 204.558 118.423C204.956 118.317 205.347 118.264 205.731 118.264C205.977 118.264 206.258 118.294 206.577 118.354C206.898 118.41 207.208 118.528 207.506 118.707C207.808 118.886 208.058 119.156 208.257 119.517C208.456 119.878 208.555 120.362 208.555 120.969V126H207.382V124.966H207.322C207.243 125.132 207.11 125.309 206.925 125.498C206.739 125.687 206.492 125.848 206.184 125.98C205.876 126.113 205.499 126.179 205.055 126.179ZM205.234 125.125C205.698 125.125 206.089 125.034 206.408 124.852C206.729 124.669 206.971 124.434 207.133 124.146C207.299 123.857 207.382 123.554 207.382 123.236V122.162C207.332 122.222 207.223 122.276 207.054 122.326C206.888 122.372 206.696 122.414 206.477 122.45C206.262 122.483 206.051 122.513 205.846 122.54C205.644 122.563 205.479 122.583 205.354 122.599C205.049 122.639 204.764 122.704 204.498 122.793C204.237 122.879 204.024 123.01 203.862 123.186C203.703 123.358 203.623 123.594 203.623 123.892C203.623 124.3 203.774 124.608 204.076 124.817C204.381 125.022 204.767 125.125 205.234 125.125ZM215.425 122.878V118.364H216.599V126H215.425V124.707H215.346C215.167 125.095 214.888 125.425 214.511 125.697C214.133 125.965 213.655 126.099 213.079 126.099C212.601 126.099 212.177 125.995 211.806 125.786C211.435 125.574 211.143 125.256 210.931 124.832C210.719 124.404 210.613 123.866 210.613 123.216V118.364H211.786V123.136C211.786 123.693 211.942 124.137 212.253 124.469C212.568 124.8 212.969 124.966 213.457 124.966C213.748 124.966 214.045 124.891 214.346 124.742C214.651 124.593 214.907 124.364 215.112 124.056C215.321 123.748 215.425 123.355 215.425 122.878ZM219.837 115.818V126H218.664V115.818H219.837ZM225.223 118.364V119.358H221.265V118.364H225.223ZM222.419 116.534H223.592V123.812C223.592 124.144 223.64 124.393 223.736 124.558C223.836 124.721 223.962 124.83 224.114 124.886C224.27 124.939 224.434 124.966 224.606 124.966C224.736 124.966 224.842 124.959 224.925 124.946C225.007 124.929 225.074 124.916 225.123 124.906L225.362 125.96C225.282 125.99 225.171 126.02 225.029 126.05C224.886 126.083 224.706 126.099 224.487 126.099C224.156 126.099 223.831 126.028 223.513 125.886C223.198 125.743 222.936 125.526 222.727 125.234C222.522 124.943 222.419 124.575 222.419 124.131V116.534ZM229.409 121.705C229.409 122.957 229.245 124.111 228.917 125.165C228.592 126.215 228.127 127.183 227.52 128.068H226.486C226.725 127.74 226.947 127.336 227.152 126.855C227.361 126.378 227.543 125.854 227.699 125.284C227.855 124.711 227.976 124.119 228.062 123.509C228.152 122.896 228.196 122.295 228.196 121.705C228.196 120.916 228.12 120.115 227.968 119.303C227.815 118.491 227.61 117.737 227.351 117.041C227.093 116.345 226.804 115.778 226.486 115.341H227.52C228.127 116.226 228.592 117.195 228.917 118.249C229.245 119.3 229.409 120.452 229.409 121.705Z" fill="#252C32"/>
<rect x="133.5" y="105.5" width="167" height="31" rx="5.5" stroke="#DDE2E4"/>
<path d="M44.6761 160.912V159.818H52.3125V160.912H49.1108V170H47.8778V160.912H44.6761ZM53.9723 170V162.364H55.1456V170H53.9723ZM54.5689 161.091C54.3402 161.091 54.143 161.013 53.9773 160.857C53.8149 160.701 53.7336 160.514 53.7336 160.295C53.7336 160.077 53.8149 159.889 53.9773 159.734C54.143 159.578 54.3402 159.5 54.5689 159.5C54.7976 159.5 54.9931 159.578 55.1555 159.734C55.3212 159.889 55.4041 160.077 55.4041 160.295C55.4041 160.514 55.3212 160.701 55.1555 160.857C54.9931 161.013 54.7976 161.091 54.5689 161.091ZM60.5316 162.364V163.358H56.5742V162.364H60.5316ZM57.7276 160.534H58.9009V167.812C58.9009 168.144 58.949 168.393 59.0451 168.558C59.1445 168.721 59.2704 168.83 59.4229 168.886C59.5787 168.939 59.7427 168.966 59.9151 168.966C60.0444 168.966 60.1504 168.959 60.2333 168.946C60.3161 168.929 60.3824 168.916 60.4321 168.906L60.6708 169.96C60.5912 169.99 60.4802 170.02 60.3377 170.05C60.1952 170.083 60.0145 170.099 59.7958 170.099C59.4643 170.099 59.1395 170.028 58.8213 169.886C58.5065 169.743 58.2446 169.526 58.0358 169.234C57.8303 168.943 57.7276 168.575 57.7276 168.131V160.534ZM63.5498 159.818V170H62.3766V159.818H63.5498ZM68.8165 170.159C68.0807 170.159 67.446 169.997 66.9124 169.672C66.3821 169.344 65.9728 168.886 65.6844 168.3C65.3994 167.71 65.2569 167.024 65.2569 166.241C65.2569 165.459 65.3994 164.77 65.6844 164.173C65.9728 163.573 66.3738 163.106 66.8875 162.771C67.4046 162.433 68.0078 162.264 68.6972 162.264C69.0949 162.264 69.4877 162.33 69.8755 162.463C70.2633 162.596 70.6162 162.811 70.9344 163.109C71.2526 163.404 71.5062 163.795 71.6951 164.283C71.884 164.77 71.9785 165.37 71.9785 166.082V166.58H66.0921V165.565H70.7853C70.7853 165.134 70.6991 164.75 70.5267 164.412C70.3577 164.074 70.1158 163.807 69.8009 163.612C69.4893 163.416 69.1214 163.318 68.6972 163.318C68.2299 163.318 67.8255 163.434 67.4841 163.666C67.1461 163.895 66.8859 164.193 66.7036 164.561C66.5213 164.929 66.4302 165.323 66.4302 165.744V166.42C66.4302 166.997 66.5296 167.486 66.7285 167.887C66.9306 168.285 67.2107 168.588 67.5687 168.797C67.9266 169.002 68.3426 169.105 68.8165 169.105C69.1248 169.105 69.4032 169.062 69.6517 168.976C69.9036 168.886 70.1207 168.754 70.303 168.578C70.4853 168.399 70.6262 168.177 70.7256 167.912L71.8591 168.23C71.7398 168.615 71.5393 168.953 71.2576 169.244C70.9758 169.533 70.6278 169.758 70.2135 169.92C69.7992 170.08 69.3336 170.159 68.8165 170.159Z" fill="#252C32"/>
<rect x="44.5" y="181.5" width="452" height="39" rx="5.5" fill="white"/>
<path d="M66.8011 198.364C66.7415 197.86 66.4995 197.469 66.0753 197.19C65.651 196.912 65.1307 196.773 64.5142 196.773C64.0634 196.773 63.669 196.846 63.331 196.991C62.9962 197.137 62.7344 197.338 62.5455 197.593C62.3598 197.848 62.267 198.138 62.267 198.463C62.267 198.735 62.3317 198.969 62.4609 199.164C62.5935 199.356 62.7625 199.517 62.968 199.646C63.1735 199.772 63.389 199.877 63.6143 199.96C63.8397 200.039 64.0469 200.104 64.2358 200.153L65.2699 200.432C65.535 200.501 65.83 200.598 66.1548 200.72C66.483 200.843 66.7962 201.01 67.0945 201.222C67.3961 201.431 67.6446 201.7 67.8402 202.028C68.0357 202.356 68.1335 202.759 68.1335 203.236C68.1335 203.786 67.9893 204.283 67.701 204.727C67.416 205.171 66.9983 205.524 66.4482 205.786C65.9013 206.048 65.2367 206.179 64.4545 206.179C63.7254 206.179 63.094 206.061 62.5604 205.826C62.0301 205.591 61.6125 205.263 61.3075 204.842C61.0059 204.421 60.8352 203.932 60.7955 203.375H62.0682C62.1013 203.759 62.2306 204.078 62.456 204.33C62.6847 204.578 62.973 204.764 63.321 204.886C63.6723 205.006 64.0502 205.065 64.4545 205.065C64.9252 205.065 65.3478 204.989 65.7223 204.837C66.0968 204.681 66.3935 204.465 66.6122 204.19C66.831 203.912 66.9403 203.587 66.9403 203.216C66.9403 202.878 66.8459 202.603 66.657 202.391C66.468 202.179 66.2195 202.006 65.9112 201.874C65.603 201.741 65.2699 201.625 64.9119 201.526L63.6591 201.168C62.8636 200.939 62.2339 200.612 61.7699 200.188C61.3059 199.764 61.0739 199.209 61.0739 198.523C61.0739 197.953 61.228 197.455 61.5362 197.031C61.8478 196.604 62.2654 196.272 62.7891 196.037C63.3161 195.798 63.9044 195.679 64.554 195.679C65.2102 195.679 65.7936 195.797 66.304 196.032C66.8144 196.264 67.2188 196.582 67.517 196.987C67.8187 197.391 67.9777 197.85 67.9943 198.364H66.8011ZM71.0909 201.406V206H69.9176V195.818H71.0909V199.557H71.1903C71.3693 199.162 71.6378 198.849 71.9957 198.617C72.357 198.382 72.8376 198.264 73.4375 198.264C73.9578 198.264 74.4136 198.369 74.8047 198.577C75.1958 198.783 75.499 199.099 75.7145 199.527C75.9332 199.951 76.0426 200.491 76.0426 201.148V206H74.8693V201.227C74.8693 200.621 74.7119 200.152 74.397 199.82C74.0854 199.486 73.6529 199.318 73.0994 199.318C72.7149 199.318 72.3702 199.399 72.0653 199.562C71.7637 199.724 71.5251 199.961 71.3494 200.273C71.1771 200.584 71.0909 200.962 71.0909 201.406ZM81.2074 206.159C80.518 206.159 79.9131 205.995 79.3927 205.667C78.8757 205.339 78.4713 204.88 78.1797 204.29C77.8913 203.7 77.7471 203.01 77.7471 202.222C77.7471 201.426 77.8913 200.732 78.1797 200.138C78.4713 199.545 78.8757 199.085 79.3927 198.756C79.9131 198.428 80.518 198.264 81.2074 198.264C81.8967 198.264 82.5 198.428 83.017 198.756C83.5374 199.085 83.9417 199.545 84.2301 200.138C84.5218 200.732 84.6676 201.426 84.6676 202.222C84.6676 203.01 84.5218 203.7 84.2301 204.29C83.9417 204.88 83.5374 205.339 83.017 205.667C82.5 205.995 81.8967 206.159 81.2074 206.159ZM81.2074 205.105C81.731 205.105 82.1619 204.971 82.5 204.702C82.838 204.434 83.0883 204.081 83.2507 203.643C83.4131 203.206 83.4943 202.732 83.4943 202.222C83.4943 201.711 83.4131 201.236 83.2507 200.795C83.0883 200.354 82.838 199.998 82.5 199.726C82.1619 199.454 81.731 199.318 81.2074 199.318C80.6837 199.318 80.2528 199.454 79.9147 199.726C79.5767 199.998 79.3264 200.354 79.164 200.795C79.0016 201.236 78.9204 201.711 78.9204 202.222C78.9204 202.732 79.0016 203.206 79.164 203.643C79.3264 204.081 79.5767 204.434 79.9147 204.702C80.2528 204.971 80.6837 205.105 81.2074 205.105ZM86.3746 206V198.364H87.5081V199.517H87.5877C87.7269 199.139 87.9788 198.833 88.3433 198.597C88.7079 198.362 89.1189 198.244 89.5763 198.244C89.6625 198.244 89.7702 198.246 89.8995 198.249C90.0287 198.253 90.1265 198.258 90.1928 198.264V199.457C90.153 199.447 90.0619 199.433 89.9193 199.413C89.7801 199.389 89.6326 199.378 89.4769 199.378C89.1057 199.378 88.7742 199.456 88.4826 199.612C88.1942 199.764 87.9655 199.976 87.7965 200.248C87.6308 200.516 87.5479 200.823 87.5479 201.168V206H86.3746ZM95.2991 198.364V199.358H91.3417V198.364H95.2991ZM92.4951 196.534H93.6684V203.812C93.6684 204.144 93.7165 204.393 93.8126 204.558C93.912 204.721 94.038 204.83 94.1905 204.886C94.3462 204.939 94.5103 204.966 94.6826 204.966C94.8119 204.966 94.918 204.959 95.0008 204.946C95.0837 204.929 95.15 204.916 95.1997 204.906L95.4383 205.96C95.3588 205.99 95.2477 206.02 95.1052 206.05C94.9627 206.083 94.7821 206.099 94.5633 206.099C94.2319 206.099 93.9071 206.028 93.5889 205.886C93.274 205.743 93.0122 205.526 92.8034 205.234C92.5979 204.943 92.4951 204.575 92.4951 204.131V196.534ZM98.73 204.608L98.6505 205.145C98.5941 205.523 98.508 205.927 98.392 206.358C98.2793 206.789 98.1616 207.195 98.039 207.576C97.9164 207.957 97.8153 208.26 97.7357 208.486H96.8408C96.8839 208.274 96.9403 207.994 97.0099 207.646C97.0795 207.298 97.1491 206.908 97.2187 206.477C97.2916 206.05 97.3512 205.612 97.3977 205.165L97.4573 204.608H98.73ZM107.557 206.159C106.921 206.159 106.359 205.998 105.872 205.677C105.384 205.352 105.003 204.895 104.728 204.305C104.453 203.711 104.315 203.01 104.315 202.202C104.315 201.4 104.453 200.704 104.728 200.114C105.003 199.524 105.386 199.068 105.876 198.746C106.367 198.425 106.934 198.264 107.577 198.264C108.074 198.264 108.467 198.347 108.755 198.513C109.047 198.675 109.269 198.861 109.421 199.07C109.577 199.275 109.698 199.444 109.784 199.577H109.884V195.818H111.057V206H109.923V204.827H109.784C109.698 204.966 109.575 205.142 109.416 205.354C109.257 205.562 109.03 205.75 108.735 205.915C108.44 206.078 108.047 206.159 107.557 206.159ZM107.716 205.105C108.187 205.105 108.584 204.982 108.909 204.737C109.234 204.489 109.481 204.146 109.65 203.708C109.819 203.267 109.903 202.759 109.903 202.182C109.903 201.612 109.821 201.113 109.655 200.685C109.489 200.254 109.244 199.92 108.919 199.681C108.594 199.439 108.193 199.318 107.716 199.318C107.219 199.318 106.805 199.446 106.473 199.701C106.145 199.953 105.898 200.296 105.732 200.73C105.57 201.161 105.489 201.645 105.489 202.182C105.489 202.725 105.572 203.219 105.737 203.663C105.906 204.104 106.155 204.455 106.483 204.717C106.814 204.976 107.225 205.105 107.716 205.105ZM116.486 206.159C115.751 206.159 115.116 205.997 114.582 205.672C114.052 205.344 113.643 204.886 113.354 204.3C113.069 203.71 112.927 203.024 112.927 202.241C112.927 201.459 113.069 200.77 113.354 200.173C113.643 199.573 114.044 199.106 114.557 198.771C115.074 198.433 115.678 198.264 116.367 198.264C116.765 198.264 117.158 198.33 117.545 198.463C117.933 198.596 118.286 198.811 118.604 199.109C118.922 199.404 119.176 199.795 119.365 200.283C119.554 200.77 119.648 201.37 119.648 202.082V202.58H113.762V201.565H118.455C118.455 201.134 118.369 200.75 118.197 200.412C118.028 200.074 117.786 199.807 117.471 199.612C117.159 199.416 116.791 199.318 116.367 199.318C115.9 199.318 115.495 199.434 115.154 199.666C114.816 199.895 114.556 200.193 114.373 200.561C114.191 200.929 114.1 201.323 114.1 201.744V202.42C114.1 202.997 114.199 203.486 114.398 203.887C114.6 204.285 114.881 204.588 115.239 204.797C115.596 205.002 116.012 205.105 116.486 205.105C116.795 205.105 117.073 205.062 117.322 204.976C117.574 204.886 117.791 204.754 117.973 204.578C118.155 204.399 118.296 204.177 118.395 203.912L119.529 204.23C119.41 204.615 119.209 204.953 118.927 205.244C118.646 205.533 118.298 205.758 117.883 205.92C117.469 206.08 117.003 206.159 116.486 206.159ZM126.758 200.074L125.704 200.372C125.638 200.196 125.54 200.026 125.411 199.86C125.285 199.691 125.113 199.552 124.894 199.442C124.675 199.333 124.395 199.278 124.054 199.278C123.586 199.278 123.197 199.386 122.885 199.602C122.577 199.814 122.423 200.084 122.423 200.412C122.423 200.704 122.529 200.934 122.741 201.103C122.953 201.272 123.285 201.413 123.735 201.526L124.869 201.804C125.552 201.97 126.061 202.223 126.395 202.565C126.73 202.903 126.897 203.339 126.897 203.872C126.897 204.31 126.771 204.701 126.52 205.045C126.271 205.39 125.923 205.662 125.476 205.861C125.028 206.06 124.508 206.159 123.914 206.159C123.136 206.159 122.491 205.99 121.981 205.652C121.47 205.314 121.147 204.82 121.011 204.17L122.125 203.892C122.231 204.303 122.431 204.611 122.726 204.817C123.025 205.022 123.414 205.125 123.895 205.125C124.441 205.125 124.876 205.009 125.197 204.777C125.522 204.542 125.684 204.26 125.684 203.932C125.684 203.667 125.592 203.445 125.406 203.266C125.22 203.083 124.935 202.947 124.551 202.858L123.278 202.56C122.579 202.394 122.065 202.137 121.737 201.789C121.412 201.438 121.25 200.999 121.25 200.472C121.25 200.041 121.371 199.66 121.613 199.328C121.858 198.997 122.191 198.737 122.612 198.548C123.036 198.359 123.517 198.264 124.054 198.264C124.809 198.264 125.403 198.43 125.833 198.761C126.268 199.093 126.576 199.53 126.758 200.074ZM131.682 206.159C130.966 206.159 130.349 205.99 129.832 205.652C129.315 205.314 128.918 204.848 128.639 204.255C128.361 203.662 128.222 202.984 128.222 202.222C128.222 201.446 128.364 200.762 128.649 200.168C128.938 199.572 129.339 199.106 129.852 198.771C130.369 198.433 130.973 198.264 131.662 198.264C132.199 198.264 132.683 198.364 133.114 198.562C133.545 198.761 133.898 199.04 134.173 199.398C134.448 199.756 134.618 200.173 134.685 200.651H133.511C133.422 200.303 133.223 199.994 132.915 199.726C132.61 199.454 132.199 199.318 131.682 199.318C131.224 199.318 130.823 199.437 130.479 199.676C130.137 199.911 129.871 200.245 129.678 200.675C129.489 201.103 129.395 201.605 129.395 202.182C129.395 202.772 129.488 203.286 129.673 203.723C129.862 204.161 130.127 204.5 130.469 204.742C130.813 204.984 131.218 205.105 131.682 205.105C131.987 205.105 132.264 205.052 132.512 204.946C132.761 204.84 132.971 204.688 133.143 204.489C133.316 204.29 133.438 204.051 133.511 203.773H134.685C134.618 204.223 134.454 204.629 134.192 204.991C133.934 205.349 133.591 205.634 133.163 205.846C132.739 206.055 132.245 206.159 131.682 206.159ZM136.316 206V198.364H137.449V199.517H137.529C137.668 199.139 137.92 198.833 138.285 198.597C138.649 198.362 139.06 198.244 139.518 198.244C139.604 198.244 139.711 198.246 139.841 198.249C139.97 198.253 140.068 198.258 140.134 198.264V199.457C140.094 199.447 140.003 199.433 139.861 199.413C139.721 199.389 139.574 199.378 139.418 199.378C139.047 199.378 138.715 199.456 138.424 199.612C138.135 199.764 137.907 199.976 137.738 200.248C137.572 200.516 137.489 200.823 137.489 201.168V206H136.316ZM141.441 206V198.364H142.614V206H141.441ZM142.037 197.091C141.809 197.091 141.612 197.013 141.446 196.857C141.283 196.701 141.202 196.514 141.202 196.295C141.202 196.077 141.283 195.889 141.446 195.734C141.612 195.578 141.809 195.5 142.037 195.5C142.266 195.5 142.462 195.578 142.624 195.734C142.79 195.889 142.873 196.077 142.873 196.295C142.873 196.514 142.79 196.701 142.624 196.857C142.462 197.013 142.266 197.091 142.037 197.091ZM144.679 208.864V198.364H145.813V199.577H145.952C146.038 199.444 146.157 199.275 146.31 199.07C146.466 198.861 146.688 198.675 146.976 198.513C147.268 198.347 147.662 198.264 148.159 198.264C148.802 198.264 149.369 198.425 149.86 198.746C150.35 199.068 150.733 199.524 151.008 200.114C151.283 200.704 151.421 201.4 151.421 202.202C151.421 203.01 151.283 203.711 151.008 204.305C150.733 204.895 150.352 205.352 149.864 205.677C149.377 205.998 148.815 206.159 148.179 206.159C147.689 206.159 147.296 206.078 147.001 205.915C146.706 205.75 146.479 205.562 146.32 205.354C146.161 205.142 146.038 204.966 145.952 204.827H145.852V208.864H144.679ZM145.833 202.182C145.833 202.759 145.917 203.267 146.086 203.708C146.255 204.146 146.502 204.489 146.827 204.737C147.152 204.982 147.549 205.105 148.02 205.105C148.511 205.105 148.92 204.976 149.248 204.717C149.579 204.455 149.828 204.104 149.994 203.663C150.163 203.219 150.247 202.725 150.247 202.182C150.247 201.645 150.164 201.161 149.999 200.73C149.836 200.296 149.589 199.953 149.258 199.701C148.93 199.446 148.517 199.318 148.02 199.318C147.543 199.318 147.142 199.439 146.817 199.681C146.492 199.92 146.247 200.254 146.081 200.685C145.915 201.113 145.833 201.612 145.833 202.182ZM156.447 198.364V199.358H152.49V198.364H156.447ZM153.643 196.534H154.817V203.812C154.817 204.144 154.865 204.393 154.961 204.558C155.06 204.721 155.186 204.83 155.339 204.886C155.495 204.939 155.659 204.966 155.831 204.966C155.96 204.966 156.066 204.959 156.149 204.946C156.232 204.929 156.298 204.916 156.348 204.906L156.587 205.96C156.507 205.99 156.396 206.02 156.254 206.05C156.111 206.083 155.93 206.099 155.712 206.099C155.38 206.099 155.055 206.028 154.737 205.886C154.422 205.743 154.16 205.526 153.952 205.234C153.746 204.943 153.643 204.575 153.643 204.131V196.534ZM158.128 206V198.364H159.302V206H158.128ZM158.725 197.091C158.496 197.091 158.299 197.013 158.133 196.857C157.971 196.701 157.89 196.514 157.89 196.295C157.89 196.077 157.971 195.889 158.133 195.734C158.299 195.578 158.496 195.5 158.725 195.5C158.954 195.5 159.149 195.578 159.312 195.734C159.477 195.889 159.56 196.077 159.56 196.295C159.56 196.514 159.477 196.701 159.312 196.857C159.149 197.013 158.954 197.091 158.725 197.091ZM167.611 198.364L164.787 206H163.594L160.77 198.364H162.043L164.151 204.449H164.23L166.338 198.364H167.611ZM172.004 206.159C171.268 206.159 170.633 205.997 170.1 205.672C169.569 205.344 169.16 204.886 168.872 204.3C168.587 203.71 168.444 203.024 168.444 202.241C168.444 201.459 168.587 200.77 168.872 200.173C169.16 199.573 169.561 199.106 170.075 198.771C170.592 198.433 171.195 198.264 171.884 198.264C172.282 198.264 172.675 198.33 173.063 198.463C173.451 198.596 173.804 198.811 174.122 199.109C174.44 199.404 174.693 199.795 174.882 200.283C175.071 200.77 175.166 201.37 175.166 202.082V202.58H169.279V201.565H173.973C173.973 201.134 173.886 200.75 173.714 200.412C173.545 200.074 173.303 199.807 172.988 199.612C172.677 199.416 172.309 199.318 171.884 199.318C171.417 199.318 171.013 199.434 170.671 199.666C170.333 199.895 170.073 200.193 169.891 200.561C169.709 200.929 169.617 201.323 169.617 201.744V202.42C169.617 202.997 169.717 203.486 169.916 203.887C170.118 204.285 170.398 204.588 170.756 204.797C171.114 205.002 171.53 205.105 172.004 205.105C172.312 205.105 172.59 205.062 172.839 204.976C173.091 204.886 173.308 204.754 173.49 204.578C173.673 204.399 173.813 204.177 173.913 203.912L175.046 204.23C174.927 204.615 174.727 204.953 174.445 205.244C174.163 205.533 173.815 205.758 173.401 205.92C172.987 206.08 172.521 206.159 172.004 206.159ZM184.041 198.364V199.358H180.084V198.364H184.041ZM181.237 196.534H182.41V203.812C182.41 204.144 182.458 204.393 182.555 204.558C182.654 204.721 182.78 204.83 182.932 204.886C183.088 204.939 183.252 204.966 183.425 204.966C183.554 204.966 183.66 204.959 183.743 204.946C183.826 204.929 183.892 204.916 183.942 204.906L184.18 205.96C184.101 205.99 183.99 206.02 183.847 206.05C183.705 206.083 183.524 206.099 183.305 206.099C182.974 206.099 182.649 206.028 182.331 205.886C182.016 205.743 181.754 205.526 181.545 205.234C181.34 204.943 181.237 204.575 181.237 204.131V196.534ZM185.722 206V198.364H186.895V206H185.722ZM186.319 197.091C186.09 197.091 185.893 197.013 185.727 196.857C185.565 196.701 185.483 196.514 185.483 196.295C185.483 196.077 185.565 195.889 185.727 195.734C185.893 195.578 186.09 195.5 186.319 195.5C186.547 195.5 186.743 195.578 186.905 195.734C187.071 195.889 187.154 196.077 187.154 196.295C187.154 196.514 187.071 196.701 186.905 196.857C186.743 197.013 186.547 197.091 186.319 197.091ZM192.281 198.364V199.358H188.324V198.364H192.281ZM189.477 196.534H190.651V203.812C190.651 204.144 190.699 204.393 190.795 204.558C190.894 204.721 191.02 204.83 191.173 204.886C191.328 204.939 191.492 204.966 191.665 204.966C191.794 204.966 191.9 204.959 191.983 204.946C192.066 204.929 192.132 204.916 192.182 204.906L192.42 205.96C192.341 205.99 192.23 206.02 192.087 206.05C191.945 206.083 191.764 206.099 191.545 206.099C191.214 206.099 190.889 206.028 190.571 205.886C190.256 205.743 189.994 205.526 189.786 205.234C189.58 204.943 189.477 204.575 189.477 204.131V196.534ZM195.3 195.818V206H194.126V195.818H195.3ZM200.566 206.159C199.83 206.159 199.196 205.997 198.662 205.672C198.132 205.344 197.722 204.886 197.434 204.3C197.149 203.71 197.007 203.024 197.007 202.241C197.007 201.459 197.149 200.77 197.434 200.173C197.722 199.573 198.124 199.106 198.637 198.771C199.154 198.433 199.758 198.264 200.447 198.264C200.845 198.264 201.237 198.33 201.625 198.463C202.013 198.596 202.366 198.811 202.684 199.109C203.002 199.404 203.256 199.795 203.445 200.283C203.634 200.77 203.728 201.37 203.728 202.082V202.58H197.842V201.565H202.535C202.535 201.134 202.449 200.75 202.276 200.412C202.107 200.074 201.865 199.807 201.551 199.612C201.239 199.416 200.871 199.318 200.447 199.318C199.98 199.318 199.575 199.434 199.234 199.666C198.896 199.895 198.636 200.193 198.453 200.561C198.271 200.929 198.18 201.323 198.18 201.744V202.42C198.18 202.997 198.279 203.486 198.478 203.887C198.68 204.285 198.96 204.588 199.318 204.797C199.676 205.002 200.092 205.105 200.566 205.105C200.874 205.105 201.153 205.062 201.401 204.976C201.653 204.886 201.87 204.754 202.053 204.578C202.235 204.399 202.376 204.177 202.475 203.912L203.609 204.23C203.49 204.615 203.289 204.953 203.007 205.244C202.726 205.533 202.378 205.758 201.963 205.92C201.549 206.08 201.083 206.159 200.566 206.159Z" fill="#9AA6AC"/>
<rect x="44.5" y="181.5" width="452" height="39" rx="5.5" stroke="#DDE2E4"/>
<path d="M53.8239 121.909C53.8239 122.983 53.63 123.911 53.2422 124.693C52.8544 125.475 52.3224 126.079 51.6463 126.503C50.9702 126.927 50.1979 127.139 49.3295 127.139C48.4612 127.139 47.6889 126.927 47.0128 126.503C46.3366 126.079 45.8047 125.475 45.4169 124.693C45.0291 123.911 44.8352 122.983 44.8352 121.909C44.8352 120.835 45.0291 119.907 45.4169 119.125C45.8047 118.343 46.3366 117.74 47.0128 117.315C47.6889 116.891 48.4612 116.679 49.3295 116.679C50.1979 116.679 50.9702 116.891 51.6463 117.315C52.3224 117.74 52.8544 118.343 53.2422 119.125C53.63 119.907 53.8239 120.835 53.8239 121.909ZM52.6307 121.909C52.6307 121.027 52.4832 120.283 52.1882 119.677C51.8965 119.07 51.5005 118.611 51 118.3C50.5028 117.988 49.946 117.832 49.3295 117.832C48.7131 117.832 48.1546 117.988 47.6541 118.3C47.157 118.611 46.7609 119.07 46.4659 119.677C46.1742 120.283 46.0284 121.027 46.0284 121.909C46.0284 122.791 46.1742 123.535 46.4659 124.141C46.7609 124.748 47.157 125.207 47.6541 125.518C48.1546 125.83 48.7131 125.986 49.3295 125.986C49.946 125.986 50.5028 125.83 51 125.518C51.5005 125.207 51.8965 124.748 52.1882 124.141C52.4832 123.535 52.6307 122.791 52.6307 121.909ZM56.8272 122.406V127H55.6539V119.364H56.7874V120.557H56.8869C57.0659 120.169 57.3376 119.857 57.7022 119.622C58.0668 119.384 58.5374 119.264 59.1142 119.264C59.6312 119.264 60.0836 119.37 60.4714 119.582C60.8592 119.791 61.1608 120.109 61.3762 120.537C61.5917 120.961 61.6994 121.498 61.6994 122.148V127H60.5261V122.227C60.5261 121.627 60.3703 121.16 60.0588 120.825C59.7472 120.487 59.3196 120.318 58.7761 120.318C58.4016 120.318 58.0668 120.399 57.7718 120.562C57.4802 120.724 57.2498 120.961 57.0808 121.273C56.9117 121.584 56.8272 121.962 56.8272 122.406ZM67.772 127V116.818H68.9453V120.577H69.0447C69.1309 120.444 69.2502 120.275 69.4027 120.07C69.5584 119.861 69.7805 119.675 70.0688 119.513C70.3605 119.347 70.7549 119.264 71.2521 119.264C71.8951 119.264 72.4618 119.425 72.9524 119.746C73.4429 120.068 73.8257 120.524 74.1008 121.114C74.3759 121.704 74.5134 122.4 74.5134 123.202C74.5134 124.01 74.3759 124.711 74.1008 125.305C73.8257 125.895 73.4446 126.352 72.9573 126.677C72.4701 126.998 71.9083 127.159 71.272 127.159C70.7814 127.159 70.3887 127.078 70.0937 126.915C69.7987 126.75 69.5717 126.562 69.4126 126.354C69.2535 126.142 69.1309 125.966 69.0447 125.827H68.9055V127H67.772ZM68.9254 123.182C68.9254 123.759 69.0099 124.267 69.1789 124.708C69.348 125.146 69.5949 125.489 69.9197 125.737C70.2445 125.982 70.6422 126.105 71.1129 126.105C71.6034 126.105 72.0127 125.976 72.3409 125.717C72.6723 125.455 72.9209 125.104 73.0866 124.663C73.2556 124.219 73.3402 123.725 73.3402 123.182C73.3402 122.645 73.2573 122.161 73.0916 121.73C72.9292 121.296 72.6822 120.953 72.3508 120.701C72.0227 120.446 71.61 120.318 71.1129 120.318C70.6356 120.318 70.2346 120.439 69.9098 120.681C69.5849 120.92 69.3397 121.254 69.174 121.685C69.0082 122.113 68.9254 122.612 68.9254 123.182ZM79.4259 127.159C78.6901 127.159 78.0554 126.997 77.5218 126.672C76.9915 126.344 76.5821 125.886 76.2938 125.3C76.0088 124.71 75.8662 124.024 75.8662 123.241C75.8662 122.459 76.0088 121.77 76.2938 121.173C76.5821 120.573 76.9832 120.106 77.4969 119.771C78.014 119.433 78.6172 119.264 79.3066 119.264C79.7043 119.264 80.0971 119.33 80.4848 119.463C80.8726 119.596 81.2256 119.811 81.5438 120.109C81.862 120.404 82.1155 120.795 82.3044 121.283C82.4934 121.77 82.5878 122.37 82.5878 123.082V123.58H76.7015V122.565H81.3946C81.3946 122.134 81.3085 121.75 81.1361 121.412C80.9671 121.074 80.7251 120.807 80.4103 120.612C80.0987 120.416 79.7308 120.318 79.3066 120.318C78.8392 120.318 78.4349 120.434 78.0935 120.666C77.7554 120.895 77.4953 121.193 77.313 121.561C77.1307 121.929 77.0395 122.323 77.0395 122.744V123.42C77.0395 123.997 77.139 124.486 77.3378 124.887C77.54 125.285 77.8201 125.588 78.178 125.797C78.536 126.002 78.9519 126.105 79.4259 126.105C79.7341 126.105 80.0125 126.062 80.2611 125.976C80.513 125.886 80.7301 125.754 80.9124 125.578C81.0947 125.399 81.2356 125.177 81.335 124.912L82.4685 125.23C82.3492 125.615 82.1487 125.953 81.8669 126.244C81.5852 126.533 81.2372 126.758 80.8229 126.92C80.4086 127.08 79.9429 127.159 79.4259 127.159ZM85.4619 122.406V127H84.2886V116.818H85.4619V120.557H85.5614C85.7403 120.162 86.0088 119.849 86.3668 119.617C86.728 119.382 87.2086 119.264 87.8085 119.264C88.3289 119.264 88.7846 119.369 89.1757 119.577C89.5668 119.783 89.8701 120.099 90.0855 120.527C90.3043 120.951 90.4136 121.491 90.4136 122.148V127H89.2403V122.227C89.2403 121.621 89.0829 121.152 88.768 120.82C88.4565 120.486 88.024 120.318 87.4704 120.318C87.086 120.318 86.7413 120.399 86.4364 120.562C86.1347 120.724 85.8961 120.961 85.7204 121.273C85.5481 121.584 85.4619 121.962 85.4619 122.406ZM94.7233 127.179C94.2394 127.179 93.8002 127.088 93.4058 126.906C93.0114 126.72 92.6982 126.453 92.4662 126.105C92.2342 125.754 92.1182 125.33 92.1182 124.832C92.1182 124.395 92.2043 124.04 92.3767 123.768C92.549 123.493 92.7794 123.278 93.0677 123.122C93.3561 122.966 93.6743 122.85 94.0223 122.774C94.3736 122.695 94.7266 122.632 95.0812 122.585C95.5452 122.526 95.9214 122.481 96.2098 122.451C96.5014 122.418 96.7136 122.363 96.8461 122.287C96.982 122.211 97.05 122.078 97.05 121.889V121.849C97.05 121.359 96.9157 120.978 96.6473 120.706C96.3821 120.434 95.9794 120.298 95.4392 120.298C94.879 120.298 94.4399 120.421 94.1217 120.666C93.8035 120.911 93.5798 121.173 93.4505 121.452L92.3369 121.054C92.5358 120.59 92.8009 120.229 93.1324 119.97C93.4671 119.708 93.8317 119.526 94.2261 119.423C94.6238 119.317 95.0149 119.264 95.3994 119.264C95.6447 119.264 95.9264 119.294 96.2446 119.354C96.5661 119.41 96.876 119.528 97.1743 119.707C97.4759 119.886 97.7261 120.156 97.925 120.517C98.1238 120.878 98.2233 121.362 98.2233 121.969V127H97.05V125.966H96.9903C96.9108 126.132 96.7782 126.309 96.5926 126.498C96.407 126.687 96.1601 126.848 95.8518 126.98C95.5436 127.113 95.1674 127.179 94.7233 127.179ZM94.9022 126.125C95.3663 126.125 95.7574 126.034 96.0755 125.852C96.397 125.669 96.639 125.434 96.8014 125.146C96.9671 124.857 97.05 124.554 97.05 124.236V123.162C97.0003 123.222 96.8909 123.276 96.7219 123.326C96.5561 123.372 96.3639 123.414 96.1451 123.45C95.9297 123.483 95.7192 123.513 95.5138 123.54C95.3116 123.563 95.1475 123.583 95.0216 123.599C94.7166 123.639 94.4316 123.704 94.1665 123.793C93.9046 123.879 93.6925 124.01 93.5301 124.186C93.371 124.358 93.2915 124.594 93.2915 124.892C93.2915 125.3 93.4423 125.608 93.7439 125.817C94.0488 126.022 94.4349 126.125 94.9022 126.125ZM101.454 116.818V127H100.281V116.818H101.454ZM106.92 119.364V120.358H102.803V119.364H106.92ZM104.036 127V118.31C104.036 117.872 104.139 117.508 104.344 117.216C104.55 116.924 104.817 116.705 105.145 116.56C105.473 116.414 105.819 116.341 106.184 116.341C106.472 116.341 106.707 116.364 106.89 116.411C107.072 116.457 107.208 116.5 107.297 116.54L106.959 117.554C106.9 117.534 106.817 117.509 106.711 117.479C106.608 117.45 106.472 117.435 106.303 117.435C105.915 117.435 105.635 117.532 105.463 117.728C105.294 117.924 105.209 118.21 105.209 118.588V127H104.036ZM115.436 127.159C114.746 127.159 114.141 126.995 113.621 126.667C113.104 126.339 112.7 125.88 112.408 125.29C112.12 124.7 111.976 124.01 111.976 123.222C111.976 122.426 112.12 121.732 112.408 121.138C112.7 120.545 113.104 120.085 113.621 119.756C114.141 119.428 114.746 119.264 115.436 119.264C116.125 119.264 116.728 119.428 117.245 119.756C117.766 120.085 118.17 120.545 118.458 121.138C118.75 121.732 118.896 122.426 118.896 123.222C118.896 124.01 118.75 124.7 118.458 125.29C118.17 125.88 117.766 126.339 117.245 126.667C116.728 126.995 116.125 127.159 115.436 127.159ZM115.436 126.105C115.959 126.105 116.39 125.971 116.728 125.702C117.066 125.434 117.317 125.081 117.479 124.643C117.641 124.206 117.723 123.732 117.723 123.222C117.723 122.711 117.641 122.236 117.479 121.795C117.317 121.354 117.066 120.998 116.728 120.726C116.39 120.454 115.959 120.318 115.436 120.318C114.912 120.318 114.481 120.454 114.143 120.726C113.805 120.998 113.555 121.354 113.392 121.795C113.23 122.236 113.149 122.711 113.149 123.222C113.149 123.732 113.23 124.206 113.392 124.643C113.555 125.081 113.805 125.434 114.143 125.702C114.481 125.971 114.912 126.105 115.436 126.105ZM124.004 119.364V120.358H119.887V119.364H124.004ZM121.12 127V118.31C121.12 117.872 121.223 117.508 121.428 117.216C121.634 116.924 121.901 116.705 122.229 116.56C122.557 116.414 122.903 116.341 123.268 116.341C123.556 116.341 123.791 116.364 123.974 116.411C124.156 116.457 124.292 116.5 124.381 116.54L124.043 117.554C123.984 117.534 123.901 117.509 123.795 117.479C123.692 117.45 123.556 117.435 123.387 117.435C122.999 117.435 122.719 117.532 122.547 117.728C122.378 117.924 122.293 118.21 122.293 118.588V127H121.12Z" fill="black"/>
<rect width="517" height="1" transform="translate(12 80)" fill="#E5E9EB"/>
</g>
<defs>
<filter id="filter0_d_83_29882" x="0" y="0" width="545" height="574" filterUnits="userSpaceOnUse" color-interpolation-filters="sRGB">
<feFlood flood-opacity="0" result="BackgroundImageFix"/>
<feColorMatrix in="SourceAlpha" type="matrix" values="0 0 0 0 0 0 0 0 0 0 0 0 0 0 0 0 0 0 127 0" result="hardAlpha"/>
<feOffset dy="4"/>
<feGaussianBlur stdDeviation="6"/>
<feComposite in2="hardAlpha" operator="out"/>
<feColorMatrix type="matrix" values="0 0 0 0 0 0 0 0 0 0 0 0 0 0 0 0 0 0 0.2 0"/>
<feBlend mode="normal" in2="BackgroundImageFix" result="effect1_dropShadow_83_29882"/>
<feBlend mode="normal" in="SourceGraphic" in2="effect1_dropShadow_83_29882" result="shape"/>
</filter>
</defs>
</svg>
