<svg width="12" height="10" viewBox="0 0 12 10" fill="none" xmlns="http://www.w3.org/2000/svg">
<path d="M0.146252 5.35403L4.64625 9.85403C4.74007 9.94785 4.86732 10.0006 5 10.0006C5.13268 10.0006 5.25993 9.94785 5.35375 9.85403C5.44757 9.76021 5.50028 9.63296 5.50028 9.50028C5.50028 9.3676 5.44757 9.24035 5.35375 9.14653L1.70688 5.50028H11.5C11.6326 5.50028 11.7598 5.4476 11.8536 5.35383C11.9473 5.26006 12 5.13289 12 5.00028C12 4.86767 11.9473 4.74049 11.8536 4.64673C11.7598 4.55296 11.6326 4.50028 11.5 4.50028H1.70688L5.35375 0.854028C5.44757 0.760208 5.50028 0.63296 5.50028 0.500278C5.50028 0.367596 5.44757 0.240348 5.35375 0.146528C5.25993 0.0527077 5.13268 0 5 0C4.86732 0 4.74007 0.0527077 4.64625 0.146528L0.146252 4.64653C0.0997639 4.69297 0.0628843 4.74811 0.0377216 4.80881C0.0125599 4.86951 -0.000391006 4.93457 -0.000391006 5.00028C-0.000391006 5.06599 0.0125599 5.13105 0.0377216 5.19175C0.0628843 5.25245 0.0997639 5.30759 0.146252 5.35403Z" fill="black"/>
</svg>
