<svg width="101" height="36" viewBox="0 0 101 36" fill="none" xmlns="http://www.w3.org/2000/svg">
<path d="M0 0V9.22832H10.2263V36H21.4625V9.22417H31.6888V0.00415099L0 0ZM33.4352 0V36H64.1981V26.7717H44.6799V22.2883H64.1939V13.7117H44.6799V9.22832H64.1939V0H33.4352ZM66.0877 0V36H82.3445C95.0705 36 101 28.9926 101 17.946C101 8.87546 96.7033 0 84.537 0H66.0877ZM77.3323 9.22832H80.9094C89.0357 9.22832 89.7553 15.53 89.7553 17.7924C89.7553 21.1757 88.7327 26.7717 81.73 26.7717H77.3323V9.22832Z" fill="#E62B1E"/>
</svg>
